<svg viewBox="0 0 600 400" xmlns="http://www.w3.org/2000/svg">
<g transform="translate(72, 364)">
<g>
<g>
<path d="M0.68570286,-67.96369 L0.68570286,-67.96369 L1.3714057,-67.870476 L2.05704,-67.888664 L2.742539,-68.07066 L3.4278376,-68.37991 L4.1128716,-68.83266 L4.797579,-69.40824 L5.4818983,-70.10779 L6.1657705,-70.92415 L6.8491373,-71.85008 L7.531942,-72.878555 L8.214129,-74.00602 L8.895647,-75.22484 L9.576441,-76.527756 L10.256461,-77.91332 L10.9356575,-79.376366 L11.613983,-80.90696 L12.291389,-82.5049 L12.9678335,-84.16294 L13.6432705,-85.874 L14.3176565,-87.6373 L14.990951,-89.44774 L15.663115,-91.298584 L16.334108,-93.18688 L17.003895,-95.107994 L17.67244,-97.05886 L18.339705,-99.03354 L19.005661,-101.030785 L19.670273,-103.046036 L20.33351,-105.073845 L20.995342,-107.11462 L21.655745,-109.16162 L22.314688,-111.212616 L22.972145,-113.26527 L23.62809,-115.31719 L24.282503,-117.36447 L24.935358,-119.40465 L25.586637,-121.43635 L26.236319,-123.45658 L26.88438,-125.46162 L27.530811,-127.45239 L28.175587,-129.42429 L28.818695,-131.3763 L29.460123,-133.30743 L30.099855,-135.21503 L30.737879,-137.09802 L31.374182,-138.95517 L32.00875,-140.78476 L32.641586,-142.58604 L33.27267,-144.35744 L33.901997,-146.0985 L34.529564,-147.80806 L35.155357,-149.48546 L35.77938,-151.12944 L36.401627,-152.73961 L37.02209,-154.31596 L37.640774,-155.85815 L38.257675,-157.36557 L38.87279,-158.83798 L39.486126,-160.27455 L40.09768,-161.67622 L40.70745,-163.0429 L41.31545,-164.37361 L41.92167,-165.66974 L42.526127,-166.93105 L43.128822,-168.15773 L43.72976,-169.35 L44.328953,-170.50938 L44.9264,-171.63464 L45.522114,-172.7274 L46.1161,-173.7878 L46.708378,-174.81691 L47.298946,-175.81522 L47.887825,-176.78397 L48.47502,-177.72318 L49.060555,-178.63416 L49.64443,-179.51808 L50.22666,-180.37495 L50.807262,-181.20695 L51.386257,-182.01422 L51.96365,-182.79828 L52.539463,-183.5605 L53.113712,-184.30162 L53.686413,-185.02275 L54.257584,-185.72534 L54.827248,-186.41055 L55.395416,-187.0811 L55.962112,-187.736 L56.527336,-188.37346 L57.091095,-188.99123 L57.653393,-189.58788 L58.214233,-190.1614 L58.773636,-190.71158 L59.331596,-191.23586 L59.888123,-191.73358 L60.443226,-192.20392 L60.99691,-192.6451 L61.54919,-193.0573 L62.100067,-193.43852 L62.64955,-193.78882 L63.197655,-194.10695 L63.74438,-194.39279 L64.28974,-194.64566 L64.83375,-194.86534 L65.3764,-195.05112 L65.917725,-195.20258 L66.45772,-195.31998 L66.99639,-195.40266 L67.53377,-195.45042 L68.06983,-195.46342 L68.60462,-195.4417 L69.13813,-195.3846 L69.67038,-195.29292 L70.20138,-195.16661 L70.73113,-195.00536 L71.25965,-194.8092 L71.786964,-194.57939 L72.313065,-194.31477 L72.837975,-194.01677 L73.361694,-193.68452 L73.88425,-193.3188 L74.405655,-192.92075 L74.92591,-192.48961 L75.44503,-192.026 L75.963036,-191.53099 L76.479935,-191.00403 L76.99574,-190.44623 L77.510475,-189.85794 L78.02414,-189.23964 L78.53676,-188.5915 L79.04833,-187.91423 L79.55889,-187.20895 L80.068436,-186.47507 L80.576996,-185.71451 L81.084564,-184.92653 L81.59117,-184.11221 L82.096825,-183.27257 L82.60154,-182.40747 L83.10533,-181.51794 L83.60823,-180.60481 L84.11023,-179.66856 L84.61135,-178.70944 L85.11162,-177.72841 L85.61104,-176.72623 L86.10962,-175.7033 L86.60739,-174.6601 L87.10437,-173.59802 L87.600555,-172.51709 L88.09598,-171.41805 L88.59066,-170.30217 L89.084595,-169.16913 L89.57782,-168.02066 L90.070335,-166.85631 L90.562164,-165.67769 L91.05332,-164.48474 L91.54383,-163.27895 L92.03371,-162.0606 L92.52296,-160.8302 L93.011604,-159.58855 L93.499664,-158.33615 L93.98715,-157.0743 L94.47409,-155.80298 L94.96049,-154.52301 L95.44637,-153.23532 L95.93176,-151.9406 L96.41666,-150.63905 L96.901085,-149.33167 L97.38506,-148.01904 L97.8686,-146.70135 L98.35173,-145.38011 L98.83446,-144.05536 L99.3168,-142.72821 L99.79879,-141.39876 L100.280426,-140.06757 L100.761734,-138.73602 L101.24274,-137.4038 L101.72344,-136.07234 L102.203865,-134.74126 L102.68404,-133.41199 L103.16397,-132.08504 L103.64367,-130.76042 L104.12318,-129.4395 L104.60249,-128.12198 L105.08163,-126.80867 L105.56062,-125.50054 L106.03948,-124.19799 L106.51822,-122.90106 L106.99687,-121.61105 L107.47543,-120.32756 L107.95393,-119.05183 L108.43239,-117.78385 L108.91081,-116.524475 L109.38924,-115.27406 L109.86766,-114.03303 L110.346115,-112.801735 L110.824615,-111.58096 L111.30318,-110.37067 L111.781815,-109.17161 L112.26057,-107.984505 L112.73942,-106.80892 L113.2184,-105.64557 L113.69755,-104.49554 L114.176865,-103.358345 L114.65636,-102.23432 L115.136055,-101.124466 L115.61598,-100.02874 L116.09615,-98.947754 L116.57658,-97.88138 L117.05727,-96.82987 L117.53826,-95.794235 L118.01957,-94.7743 L118.50119,-93.769936 L118.98318,-92.78243 L119.465515,-91.81091 L119.948235,-90.856285 L120.43135,-89.918755 L120.91489,-88.99846 L121.39886,-88.09553 L121.88327,-87.20988 L122.36816,-86.34224 L122.85354,-85.49278 L123.3394,-84.66091 L123.82579,-83.84749 L124.31272,-83.05257 L124.8002,-82.27595 L125.288246,-81.51797 L125.776886,-80.778786 L126.26612,-80.05808 L126.75599,-79.35661 L127.24648,-78.673744 L127.737625,-78.00979 L128.22945,-77.364845 L128.72195,-76.73891 L129.21516,-76.13196 L129.70908,-75.543724 L130.20374,-74.97473 L130.69914,-74.42446 L131.19533,-73.89307 L131.69228,-73.38064 L132.19005,-72.88701 L132.68861,-72.411835 L133.18802,-71.95539 L133.68826,-71.51725 L134.18936,-71.09743 L134.69135,-70.6956 L135.19423,-70.31224 L135.698,-69.946396 L136.2027,-69.59842 L136.70834,-69.2681 L137.21492,-68.95463 L137.72249,-68.6589 L138.23102,-68.37942 L138.74054,-68.11676 L139.25107,-67.87057 L139.76262,-67.640236 L140.27522,-67.42611 L140.78886,-67.2274 L141.30359,-67.04434 L141.81937,-66.875824 L142.33626,-66.72196 L142.85423,-66.58219 L143.37334,-66.4566 L143.89357,-66.34449 L144.41495,-66.24564 L144.93747,-66.15973 L145.46118,-66.08589 L145.98605,-66.02409 L146.51213,-65.974174 L147.03941,-65.9352 L147.56792,-65.90715 L148.09766,-65.88927 L148.62862,-65.88115 L149.16084,-65.882195 L149.69434,-65.89231 L150.2291,-65.910866 L150.76514,-65.9368 L151.30249,-65.97055 L151.84113,-66.010574 L152.38109,-66.05701 L152.9224,-66.10963 L153.46503,-66.16689 L154.009,-66.22873 L154.55434,-66.29491 L155.10104,-66.3643 L155.64911,-66.43652 L156.19856,-66.510735 L156.74942,-66.58681 L157.30165,-66.663605 L157.85532,-66.74111 L158.4104,-66.81806 L158.9669,-66.89455 L159.52484,-66.969154 L160.08421,-67.04143 L160.64502,-67.11076 L161.20728,-67.17641 L161.77101,-67.23828 L162.33621,-67.294846 L162.90286,-67.345726 L163.47101,-67.38992 L164.04065,-67.42807 L164.61179,-67.459946 L165.18445,-67.48565 L165.75868,-67.506226 L166.33444,-67.52068 L166.91182,-67.53021 L167.49077,-67.53414 L168.07135,-67.53305 L168.65355,-67.5267 L169.23738,-67.51535 L169.82288,-67.498856 L170.41005,-67.47738 L170.9989,-67.45078 L171.58943,-67.41877 L172.18167,-67.38185 L172.77562,-67.339386 L173.3713,-67.291725 L173.96872,-67.23838 L174.56789,-67.17949 L175.16878,-67.11451 L175.77144,-67.0436 L176.37587,-66.9666 L176.98204,-66.882935 L177.59001,-66.79272 L178.19975,-66.695755 L178.81126,-66.59161 L179.42456,-66.4801 L180.03964,-66.36113 L180.65651,-66.23425 L181.27516,-66.09915 L181.89558,-65.95552 L182.51779,-65.80348 L183.14178,-65.64226 L183.76755,-65.471985 L184.39507,-65.292015 L185.02437,-65.10227 L185.65543,-64.90255 L186.28822,-64.692276 L186.92276,-64.47147 L187.55902,-64.23947 L188.197,-63.996407 L188.8367,-63.74178 L189.47809,-63.47545 L190.12117,-63.197113 L190.76593,-62.906776 L191.41232,-62.60385 L192.06036,-62.28827 L192.71,-61.95993 L193.36124,-61.618378 L194.01407,-61.26397 L194.66844,-60.89602 L195.32437,-60.514805 L195.98178,-60.11996 L196.6407,-59.711685 L197.30109,-59.28971 L197.96289,-58.854034 L198.6261,-58.404705 L199.29068,-57.94191 L199.95662,-57.465538 L200.62386,-56.975643 L201.29237,-56.472435 L201.96213,-55.956047 L202.63312,-55.426735 L203.30524,-54.88471 L203.97852,-54.33018 L204.65288,-53.763607 L205.3283,-53.1853 L206.00471,-52.595455 L206.68211,-51.994816 L207.36041,-51.383636 L208.0396,-50.762558 L208.7196,-50.132107 L209.40038,-49.492992 L210.0819,-48.845753 L210.76405,-48.1912 L211.44684,-47.5302 L212.1302,-46.86333 L212.81407,-46.191746 L213.49838,-45.516132 L214.18307,-44.83759 L214.8681,-44.157272 L215.5534,-43.47608 L216.23889,-42.795216 L216.92453,-42.116035 L217.61024,-41.44092 L218.29593,-40.768677 L218.98157,-40.098373 L219.66708,-39.428642 L220.35239,-38.758804 L221.03743,-38.087788 L221.72217,-37.4147 L222.40652,-36.738766 L223.09042,-36.059452 L223.77383,-35.376076 L224.4567,-34.68785 L225.13895,-33.9945 L225.82054,-33.295536 L226.50143,-32.59041 L227.18153,-31.878859 L227.86086,-31.160667 L228.5393,-30.435413 L229.21687,-29.703026 L229.89346,-28.963354 L230.56909,-28.21616 L231.24367,-27.461588 L231.91718,-26.699484 L232.58957,-25.929726 L233.26082,-25.152437 L233.93088,-24.367893 L234.59972,-23.575897 L235.2673,-22.7768 L235.9336,-21.970594 L236.59856,-21.157501 L237.26218,-20.337751 L237.92442,-19.511654 L238.58525,-18.679304 L239.24466,-17.840912 L239.90259,-16.996878 L240.55907,-16.147427 L241.214,-15.293012 L241.86743,-14.433792 L242.5193,-13.570032 L243.1696,-12.702253 L243.81833,-11.830702 L244.46544,-10.955638 L245.11092,-10.077585 L245.75478,-9.196606 L246.39697,-8.313311 L247.0375,-7.427959 L247.67638,-6.540926 L248.31354,-5.652451 L248.94902,-4.763039 L249.5828,-3.872835 L250.21484,-2.9823487 L250.84517,-2.0920022 L251.47379,-1.2017572 L252.10065,-0.31240526 L252.72578,-0.5762912 L253.34915,-1.4635338 L253.9708,-2.3492968 L254.59071,-3.23346 L255.20886,-4.1153245 L255.82527,-4.995082 L256.43994,-5.872152 L257.05286,-6.7463427 L257.664,-7.6174684 L258.27344,-8.485472 L258.88113,-9.350007 L259.48712,-10.211044 L260.09134,-11.068095 L260.69388,-11.9214 L261.29468,-12.770528 L261.8938,-13.6155815 L262.49124,-14.456411 L263.08698,-15.2927 L263.68103,-16.124636 L264.27344,-16.952059 L264.86417,-17.774961 L265.45325,-18.593115 L266.04074,-19.406775 L266.6266,-20.215912 L267.21088,-21.020641 L267.79352,-21.820633 L268.3746,-22.615957 L268.95416,-23.407274 L269.53214,-24.19394 L270.10864,-24.976818 L270.6836,-25.755293 L271.25708,-26.529835 L271.8291,-27.300776 L272.39966,-28.067852 L272.96875,-28.830732 L273.5364,-29.588854 L274.10263,-30.341652 L274.66742,-31.088835 L275.2308,-31.8303 L275.79272,-32.565094 L276.35327,-33.293137 L276.91238,-34.01402 L277.47015,-34.72786 L278.0265,-35.433586 L278.58142,-36.130806 L279.13504,-36.82005 L279.68726,-37.500435 L280.2381,-38.171448 L280.78763,-38.83329 L281.3358,-39.485558 L281.88266,-40.1284 L282.4282,-40.760807 L282.9724,-41.382957 L283.51535,-41.995113 L284.05695,-42.595676 L284.5973,-43.186104 L285.13638,-43.76536 L285.6742,-44.33313 L286.21075,-44.889656 L286.7461,-45.435192 L287.2802,-45.968822 L287.81308,-46.490265 L288.3448,-47.000362 L288.8753,-47.4987 L289.4046,-47.98455 L289.93274,-48.45815 L290.45975,-48.920353 L290.9856,-49.36973 L291.5103,-49.8072 L292.0339,-50.231915 L292.5564,-50.644802 L293.0778,-51.044952 L293.59814,-51.43336 L294.11737,-51.808643 L294.6356,-52.172256 L295.15274,-52.522827 L295.6689,-52.86188 L296.18402,-53.18809 L296.69815,-53.502354 L297.2113,-53.804493 L297.72348,-54.09428 L298.2347,-54.37217 L298.74496,-54.637897 L299.25433,-54.891937 L299.7628,-55.13408 L300.27032,-55.36415 L300.77698,-55.583107 L301.28278,-55.79029 L301.78772,-55.98602 L302.29184,-56.170223 L302.7951,-56.343296 L303.2976,-56.505653 L303.7993,-56.656616 L304.3002,-56.797146 L304.80038,-56.927124 L305.29974,-57.045856 L305.79846,-57.154964 L306.29645,-57.25369 L306.7937,-57.34193 L307.2903,-57.42071 L307.78622,-57.489353 L308.28152,-57.548885 L308.77618,-57.59857 L309.27023,-57.639553 L309.76367,-57.671043 L310.25656,-57.694138 L310.74884,-57.70815 L311.2406,-57.714104 L311.73184,-57.711334 L312.22253,-57.700317 L312.71274,-57.6821 L313.20245,-57.655415 L313.69174,-57.621925 L314.18057,-57.58091 L314.66895,-57.532314 L315.15692,-57.477196 L315.6445,-57.4154 L316.1317,-57.347477 L316.61856,-57.272713 L317.10507,-57.192177 L317.59125,-57.105774 L318.0771,-57.01342 L318.56268,-56.91615 L319.04797,-56.813316 L319.53305,-56.70595 L320.01785,-56.5934 L320.5024,-56.476147 L320.9868,-56.35466 L321.471,-56.229412 L321.95502,-56.099743 L322.43893,-55.966705 L322.92264,-55.829628 L323.40628,-55.68955 L323.88983,-55.54693 L324.37326,-55.400562 L324.85666,-55.252026 L325.34,-55.100666 L325.82333,-54.947506 L326.30664,-54.791885 L326.78998,-54.63482 L327.2733,-54.47565 L327.75668,-54.315388 L328.2401,-54.15338 L328.72366,-53.990623 L329.20728,-53.827007 L329.691,-53.662437 L330.1749,-53.497887 L330.6589,-53.332706 L331.1431,-53.16734 L331.62747,-53.0022 L332.11206,-52.837185 L332.59683,-52.672184 L333.08185,-52.508152 L333.56717,-52.34496 L334.0527,-52.182495 L334.53857,-52.021175 L335.02472,-51.860874 L335.5112,-51.702507 L335.99805,-51.54544 L336.4852,-51.389538 L336.97278,-51.23623 L337.46072,-51.08434 L337.9491,-50.934795 L338.4379,-50.787426 L338.92712,-50.6421 L339.4168,-50.49972 L339.907,-50.36011 L340.39767,-50.22264 L340.8889,-50.088673 L341.38058,-49.95704 L341.87286,-49.82861 L342.3657,-49.703693 L342.8591,-49.58165 L343.35312,-49.46332 L343.84775,-49.348038 L344.343,-49.2361 L344.83887,-49.12787 L345.33545,-49.023643 L345.83267,-48.92275 L346.33063,-48.826 L346.82925,-48.732677 L347.3286,-48.643105 L347.8287,-48.557583 L348.32962,-48.476418 L348.83124,-48.39888 L349.33368,-48.32526 L349.8369,-48.25584 L350.341,-48.190426 L350.8459,-48.12878 L351.35162,-48.07164 L351.85822,-48.017857 L352.36572,-47.96858 L352.8741,-47.92361 L353.38342,-47.88224 L353.89362,-47.84473 L354.4048,-47.811264 L354.91693,-47.78206 L355.43002,-47.756443 L355.9441,-47.73459 L356.45917,-47.716717 L356.97522,-47.702156 L357.49234,-47.691498 L358.01047,-47.68406 L358.52966,-47.680443 L359.04996,-47.68036 L359.57126,-47.683163 L360.09372,-47.68942 L360.61722,-47.698406 L361.1419,-47.71071 L361.66766,-47.725624 L362.19458,-47.743294 L362.7227,-47.763824 L363.25192,-47.786533 L363.78235,-47.81149 L364.31396,-47.838852 L364.84677,-47.86789 L365.38083,-47.89918 L365.91608,-47.93187 L366.45258,-47.966175 L366.99033,-48.001694 L367.52933,-48.03857 L368.06958,-48.075996 L368.6111,-48.114178 L369.15396,-48.15306 L369.69812,-48.19238 L370.24356,-48.23176 L370.79034,-48.270874 L371.33844,-48.309757 L371.88788,-48.34808 L372.4387,-48.3855 L372.9908,-48.42168 L373.5443,-48.456627 L374.09918,-48.489986 L374.65546,-48.521755 L375.21307,-48.550938 L375.77216,-48.578148 L376.33258,-48.602325 L376.89447,-48.623844 L377.45773,-48.64199 L378.02246,-48.656773 L378.58856,-48.667427 L379.15616,-48.67427 L379.72516,-48.67634 L380.29565,-48.673813 L380.86758,-48.666237 L381.44098,-48.653313 L382.01584,-48.635437 L382.59222,-48.612656 L383.17014,-48.58485 L383.74957,-48.552242 L384.3306,-48.51527 L384.91318,-48.473255 L385.4973,-48.42639 L386.08307,-48.375195 L386.67047,-48.319263 L387.25946,-48.258694 L387.8501,-48.193417 L388.44238,-48.12329 L389.03638,-48.04877 L389.632,-47.96917 L390.2293,-47.884922 L390.8283,-47.795918 L391.42905,-47.701927 L392.03146,-47.6029 L392.63562,-47.498966 L393.2415,-47.38993 L393.84906,-47.275497 L394.45844,-47.155945 L395.06946,-47.03073 L395.68228,-46.90018 L396.29684,-46.763924 L396.91315,-46.62204 L397.5312,-46.47428 L398.15097,-46.320396 L398.77252,-46.160557 L399.39578,-45.994415 L400.02084,-45.822075 L400.6476,-45.643253 L401.2761,-45.457615 L401.90634,-45.265396 L402.53827,-45.066254 L403.17197,-44.86023 L403.80734,-44.64701 L404.4444,-44.426525 L405.08316,-44.198647 L405.7236,-43.963356 L406.3657,-43.720432 L407.00946,-43.469776 L407.65485,-43.21129 L408.30185,-42.944923 L408.95047,-42.670555 L409.60068,-42.38816 L410.25247,-42.097576 L410.9058,-41.798676 L411.56067,-41.491512 L412.21704,-41.175972 L412.87488,-40.851974 L413.53418,-40.519604 L414.19495,-40.178852 L414.8571,-39.829624 L415.52066,-39.472046 L416.18555,-39.10601 L416.85178,-38.731594 L417.51926,-38.34884 L418.18802,-37.95788 L418.858,-37.55884 L419.52917,-37.151752 L420.2015,-36.736732 L420.87494,-36.313934 L421.54947,-35.883526 L422.22504,-35.445812 L422.90158,-35.00085 L423.57907,-34.548893 L424.25748,-34.09032 L424.93677,-33.625324 L425.61682,-33.154156 L426.29764,-32.677193 L426.9792,-32.19487 L427.66144,-31.70745 L428.34424,-31.215445 L429.02762,-30.71918 L429.7115,-30.219267 L430.3958,-29.71609 L431.08054,-29.210167 L431.76556,-28.702108 L432.45087,-28.19251 L433.13635,-27.681976 L433.822,-27.17115 L434.50772,-26.660633" fill="none" stroke="#FF0000" stroke-linejoin="round" stroke-width="2"/>
</g>
</g>
<g transform="translate(380, -340)">
<text font-size="12" text-anchor="start" x="0" y="0">
Legacy Algorithm
</text>
<line stroke="#FF0000" stroke-width="2" x1="-10" x2="-3" y1="-4" y2="-4"/>
</g>
<g>
<g>
<path d="M0.68570286,-67.96369 L0.68570286,-67.96369 L1.3714057,-67.870476 L2.05704,-67.888664 L2.742539,-68.07066 L3.4278376,-68.37991 L4.1128716,-68.83266 L4.797579,-69.40824 L5.4818983,-70.10779 L6.1657705,-70.92415 L6.8491373,-71.85008 L7.531942,-72.878555 L8.214129,-74.00602 L8.895647,-75.22484 L9.576441,-76.527756 L10.256461,-77.91332 L10.9356575,-79.376366 L11.613983,-80.90696 L12.291389,-82.5049 L12.9678335,-84.16294 L13.6432705,-85.874 L14.3176565,-87.6373 L14.990951,-89.44774 L15.663115,-91.298584 L16.334108,-93.18688 L17.003895,-95.107994 L17.67244,-97.05886 L18.339705,-99.03354 L19.005661,-101.030785 L19.670273,-103.046036 L20.33351,-105.073845 L20.995342,-107.11462 L21.655745,-109.16162 L22.314688,-111.212616 L22.972145,-113.26527 L23.62809,-115.31719 L24.282503,-117.36447 L24.935358,-119.40465 L25.586637,-121.43635 L26.236319,-123.45658 L26.88438,-125.46162 L27.530811,-127.45239 L28.175587,-129.42429 L28.818695,-131.3763 L29.460123,-133.30743 L30.099855,-135.21503 L30.737879,-137.09802 L31.374182,-138.95517 L32.00875,-140.78476 L32.641586,-142.58604 L33.27267,-144.35744 L33.901997,-146.0985 L34.529564,-147.80806 L35.155357,-149.48546 L35.77938,-151.12944 L36.401627,-152.73961 L37.02209,-154.31596 L37.640774,-155.85815 L38.257675,-157.36557 L38.87279,-158.83798 L39.486126,-160.27455 L40.09768,-161.67622 L40.70745,-163.0429 L41.31545,-164.37361 L41.92167,-165.66974 L42.526127,-166.93105 L43.128822,-168.15773 L43.72976,-169.35 L44.328953,-170.50938 L44.9264,-171.63464 L45.522114,-172.7274 L46.1161,-173.7878 L46.708378,-174.81691 L47.298946,-175.81522 L47.887825,-176.78397 L48.47502,-177.72318 L49.060555,-178.63416 L49.64443,-179.51808 L50.22666,-180.37495 L50.807262,-181.20695 L51.386257,-182.01422 L51.96365,-182.79828 L52.539463,-183.5605 L53.113712,-184.30162 L53.686413,-185.02275 L54.257584,-185.72534 L54.827248,-186.41055 L55.395416,-187.0811 L55.962112,-187.736 L56.527336,-188.37346 L57.091095,-188.99123 L57.653393,-189.58788 L58.214233,-190.1614 L58.773636,-190.71158 L59.331596,-191.23586 L59.888123,-191.73358 L60.443226,-192.20392 L60.99691,-192.6451 L61.54919,-193.0573 L62.100067,-193.43852 L62.64955,-193.78882 L63.197655,-194.10695 L63.74438,-194.39279 L64.28974,-194.64566 L64.83375,-194.86534 L65.3764,-195.05112 L65.917725,-195.20258 L66.45772,-195.31998 L66.99639,-195.40266 L67.53377,-195.45042 L68.06983,-195.46342 L68.60462,-195.4417 L69.13813,-195.3846 L69.67038,-195.29292 L70.20138,-195.16661 L70.73113,-195.00536 L71.25965,-194.8092 L71.786964,-194.57939 L72.313065,-194.31477 L72.837975,-194.01677 L73.361694,-193.68452 L73.88425,-193.3188 L74.405655,-192.92075 L74.92591,-192.48961 L75.44503,-192.026 L75.963036,-191.53099 L76.479935,-191.00403 L76.99574,-190.44623 L77.510475,-189.85794 L78.02414,-189.23964 L78.53676,-188.5915 L79.04833,-187.91423 L79.55889,-187.20895 L80.068436,-186.47507 L80.576996,-185.71451 L81.084564,-184.92653 L81.59117,-184.11221 L82.096825,-183.27257 L82.60154,-182.40747 L83.10533,-181.51794 L83.60823,-180.60481 L84.11023,-179.66856 L84.61135,-178.70944 L85.11162,-177.72841 L85.61104,-176.72623 L86.10962,-175.7033 L86.60739,-174.6601 L87.10437,-173.59802 L87.600555,-172.51709 L88.09598,-171.41805 L88.59066,-170.30217 L89.084595,-169.16913 L89.57782,-168.02066 L90.070335,-166.85631 L90.562164,-165.67769 L91.05332,-164.48474 L91.54383,-163.27895 L92.03371,-162.0606 L92.52296,-160.8302 L93.011604,-159.58855 L93.499664,-158.33615 L93.98715,-157.0743 L94.47409,-155.80298 L94.96049,-154.52301 L95.44637,-153.23532 L95.93176,-151.9406 L96.41666,-150.63905 L96.901085,-149.33167 L97.38506,-148.01904 L97.8686,-146.70135 L98.35173,-145.38011 L98.83446,-144.05536 L99.3168,-142.72821 L99.79879,-141.39876 L100.280426,-140.06757 L100.761734,-138.73602 L101.24274,-137.4038 L101.72344,-136.07234 L102.203865,-134.74126 L102.68404,-133.41199 L103.16397,-132.08504 L103.64367,-130.76042 L104.12318,-129.4395 L104.60249,-128.12198 L105.08163,-126.80867 L105.56062,-125.50054 L106.03948,-124.19799 L106.51822,-122.90106 L106.99687,-121.61105 L107.47543,-120.32756 L107.95393,-119.05183 L108.43239,-117.78385 L108.91081,-116.524475 L109.38924,-115.27406 L109.86766,-114.03303 L110.346115,-112.801735 L110.824615,-111.58096 L111.30318,-110.37067 L111.781815,-109.17161 L112.26057,-107.984505 L112.73942,-106.80892 L113.2184,-105.64557 L113.69755,-104.49554 L114.176865,-103.358345 L114.65636,-102.23432 L115.136055,-101.124466 L115.61598,-100.02874 L116.09615,-98.947754 L116.57658,-97.88138 L117.05727,-96.82987 L117.53826,-95.794235 L118.01957,-94.7743 L118.50119,-93.769936 L118.98318,-92.78243 L119.465515,-91.81091 L119.948235,-90.856285 L120.43135,-89.918755 L120.91489,-88.99846 L121.39886,-88.09553 L121.88327,-87.20988 L122.36816,-86.34224 L122.85354,-85.49278 L123.3394,-84.66091 L123.82579,-83.84749 L124.31272,-83.05257 L124.8002,-82.27595 L125.288246,-81.51797 L125.776886,-80.778786 L126.26612,-80.05808 L126.75599,-79.35661 L127.24648,-78.673744 L127.737625,-78.00979 L128.22945,-77.364845 L128.72195,-76.73891 L129.21516,-76.13196 L129.70908,-75.543724 L130.20374,-74.97473 L130.69914,-74.42446 L131.19533,-73.89307 L131.69228,-73.38064 L132.19005,-72.88701 L132.68861,-72.411835 L133.18802,-71.95539 L133.68826,-71.51725 L134.18936,-71.09743 L134.69135,-70.6956 L135.19423,-70.31224 L135.698,-69.946396 L136.2027,-69.59842 L136.70834,-69.2681 L137.21492,-68.95463 L137.72249,-68.6589 L138.23102,-68.37942 L138.74054,-68.11676 L139.25107,-67.87057 L139.76262,-67.640236 L140.27522,-67.42611 L140.78886,-67.2274 L141.30359,-67.04434 L141.81937,-66.875824 L142.33626,-66.72196 L142.85423,-66.58219 L143.37334,-66.4566 L143.89357,-66.34449 L144.41495,-66.24564 L144.93747,-66.15973 L145.46118,-66.08589 L145.98605,-66.02409 L146.51213,-65.974174 L147.03941,-65.9352 L147.56792,-65.90715 L148.09766,-65.88927 L148.62862,-65.88115 L149.16084,-65.882195 L149.69434,-65.89231 L150.2291,-65.910866 L150.76514,-65.9368 L151.30249,-65.97055 L151.84113,-66.010574 L152.38109,-66.05701 L152.9224,-66.10963 L153.46503,-66.16689 L154.009,-66.22873 L154.55434,-66.29491 L155.10104,-66.3643 L155.64911,-66.43652 L156.19856,-66.510735 L156.74942,-66.58681 L157.30165,-66.663605 L157.85532,-66.74111 L158.4104,-66.81806 L158.9669,-66.89455 L159.52484,-66.969154 L160.08421,-67.04143 L160.64502,-67.11076 L161.20728,-67.17641 L161.77101,-67.23828 L162.33621,-67.294846 L162.90286,-67.345726 L163.47101,-67.38992 L164.04065,-67.42807 L164.61179,-67.459946 L165.18445,-67.48565 L165.75868,-67.506226 L166.33444,-67.52068 L166.91182,-67.53021 L167.49077,-67.53414 L168.07135,-67.53305 L168.65355,-67.5267 L169.23738,-67.51535 L169.82288,-67.498856 L170.41005,-67.47738 L170.9989,-67.45078 L171.58943,-67.41877 L172.18167,-67.38185 L172.77562,-67.339386 L173.3713,-67.291725 L173.96872,-67.23838 L174.56789,-67.17949 L175.16878,-67.11451 L175.77144,-67.0436 L176.37587,-66.9666 L176.98204,-66.882935 L177.59001,-66.79272 L178.19975,-66.695755 L178.81126,-66.59161 L179.42456,-66.4801 L180.03964,-66.36113 L180.65651,-66.23425 L181.27516,-66.09915 L181.89558,-65.95552 L182.51779,-65.80348 L183.14178,-65.64226 L183.76755,-65.471985 L184.39507,-65.292015 L185.02437,-65.10227 L185.65543,-64.90255 L186.28822,-64.692276 L186.92276,-64.47147 L187.55902,-64.23947 L188.197,-63.996407 L188.8367,-63.74178 L189.47809,-63.47545 L190.12117,-63.197113 L190.76593,-62.906776 L191.41232,-62.60385 L192.06036,-62.28827 L192.71,-61.95993 L193.36124,-61.618378 L194.01407,-61.26397 L194.66844,-60.89602 L195.32437,-60.514805 L195.98178,-60.11996 L196.6407,-59.711685 L197.30109,-59.28971 L197.96289,-58.854034 L198.6261,-58.404705 L199.29068,-57.94191 L199.95662,-57.465538 L200.62386,-56.975643 L201.29237,-56.472435 L201.96213,-55.956047 L202.63312,-55.426735 L203.30524,-54.88471 L203.97852,-54.33018 L204.65288,-53.763607 L205.3283,-53.1853 L206.00471,-52.595455 L206.68211,-51.994816 L207.36041,-51.383636 L208.0396,-50.762558 L208.7196,-50.132107 L209.40038,-49.492992 L210.0819,-48.845753 L210.76405,-48.1912 L211.44684,-47.5302 L212.1302,-46.86333 L212.81407,-46.191746 L213.49838,-45.516132 L214.18307,-44.83759 L214.8681,-44.157272 L215.5534,-43.47608 L216.23889,-42.795216 L216.92453,-42.116035 L217.61024,-41.44092 L218.29593,-40.768677 L218.98157,-40.098373 L219.66708,-39.428642 L220.35239,-38.758804 L221.03743,-38.087788 L221.72217,-37.4147 L222.40652,-36.738766 L223.09042,-36.059452 L223.77383,-35.376076 L224.4567,-34.68785 L225.13895,-33.9945 L225.82054,-33.295536 L226.50143,-32.59041 L227.18153,-31.878859 L227.86086,-31.160667 L228.5393,-30.435413 L229.21687,-29.703026 L229.89346,-28.963354 L230.56909,-28.21616 L231.24367,-27.461588 L231.91718,-26.699484 L232.58957,-25.929726 L233.26082,-25.152437 L233.93088,-24.367893 L234.59972,-23.575897 L235.2673,-22.7768 L235.9336,-21.970594 L236.59856,-21.157501 L237.26218,-20.337751 L237.92442,-19.511654 L238.58525,-18.679304 L239.24466,-17.840912 L239.90259,-16.996878 L240.55907,-16.147427 L241.214,-15.293012 L241.86743,-14.433792 L242.5193,-13.570032 L243.1696,-12.702253 L243.81833,-11.830702 L244.46544,-10.955638 L245.11092,-10.077585 L245.75478,-9.196606 L246.39697,-8.313311 L247.0375,-7.427959 L247.67638,-6.540926 L248.31354,-5.652451 L248.94902,-4.763039 L249.5828,-3.872835 L250.21484,-2.9823487 L250.84517,-2.0920022 L251.47379,-1.2017572 L252.10065,-0.31240526 L252.72578,-0.5762912 L253.34915,-1.4635338 L253.9708,-2.3492968 L254.59071,-3.23346 L255.20886,-4.1153245 L255.82527,-4.995082 L256.43994,-5.872152 L257.05286,-6.7463427 L257.664,-7.6174684 L258.27344,-8.485472 L258.88113,-9.350007 L259.48712,-10.211044 L260.09134,-11.068095 L260.69388,-11.9214 L261.29468,-12.770528 L261.8938,-13.6155815 L262.49124,-14.456411 L263.08698,-15.2927 L263.68103,-16.124636 L264.27344,-16.952059 L264.86417,-17.774961 L265.45325,-18.593115 L266.04074,-19.406775 L266.6266,-20.215912 L267.21088,-21.020641 L267.79352,-21.820633 L268.3746,-22.615957 L268.95416,-23.407274 L269.53214,-24.19394 L270.10864,-24.976818 L270.6836,-25.755293 L271.25708,-26.529835 L271.8291,-27.300776 L272.39966,-28.067852 L272.96875,-28.830732 L273.5364,-29.588854 L274.10263,-30.341652 L274.66742,-31.088835 L275.2308,-31.8303 L275.79272,-32.565094 L276.35327,-33.293137 L276.91238,-34.01402 L277.47015,-34.72786 L278.0265,-35.433586 L278.58142,-36.130806 L279.13504,-36.82005 L279.68726,-37.500435 L280.2381,-38.171448 L280.78763,-38.83329 L281.3358,-39.485558 L281.88266,-40.1284 L282.4282,-40.760807 L282.9724,-41.382957 L283.51535,-41.995113 L284.05695,-42.595676 L284.5973,-43.186104 L285.13638,-43.76536 L285.6742,-44.33313 L286.21075,-44.889656 L286.7461,-45.435192 L287.2802,-45.968822 L287.81308,-46.490265 L288.3448,-47.000362 L288.8753,-47.4987 L289.4046,-47.98455 L289.93274,-48.45815 L290.45975,-48.920353 L290.9856,-49.36973 L291.5103,-49.8072 L292.0339,-50.231915 L292.5564,-50.644802 L293.0778,-51.044952 L293.59814,-51.43336 L294.11737,-51.808643 L294.6356,-52.172256 L295.15274,-52.522827 L295.6689,-52.86188 L296.18402,-53.18809 L296.69815,-53.502354 L297.2113,-53.804493 L297.72348,-54.09428 L298.2347,-54.37217 L298.74496,-54.637897 L299.25433,-54.891937 L299.7628,-55.13408 L300.27032,-55.36415 L300.77698,-55.583107 L301.28278,-55.79029 L301.78772,-55.98602 L302.29184,-56.170223 L302.7951,-56.343296 L303.2976,-56.505653 L303.7993,-56.656616 L304.3002,-56.797146 L304.80038,-56.927124 L305.29974,-57.045856 L305.79846,-57.154964 L306.29645,-57.25369 L306.7937,-57.34193 L307.2903,-57.42071 L307.78622,-57.489353 L308.28152,-57.548885 L308.77618,-57.59857 L309.27023,-57.639553 L309.76367,-57.671043 L310.25656,-57.694138 L310.74884,-57.70815 L311.2406,-57.714104 L311.73184,-57.711334 L312.22253,-57.700317 L312.71274,-57.6821 L313.20245,-57.655415 L313.69174,-57.621925 L314.18057,-57.58091 L314.66895,-57.532314 L315.15692,-57.477196 L315.6445,-57.4154 L316.1317,-57.347477 L316.61856,-57.272713 L317.10507,-57.192177 L317.59125,-57.105774 L318.0771,-57.01342 L318.56268,-56.91615 L319.04797,-56.813316 L319.53305,-56.70595 L320.01785,-56.5934 L320.5024,-56.476147 L320.9868,-56.35466 L321.471,-56.229412 L321.95502,-56.099743 L322.43893,-55.966705 L322.92264,-55.829628 L323.40628,-55.68955 L323.88983,-55.54693 L324.37326,-55.400562 L324.85666,-55.252026 L325.34,-55.100666 L325.82333,-54.947506 L326.30664,-54.791885 L326.78998,-54.63482 L327.2733,-54.47565 L327.75668,-54.315388 L328.2401,-54.15338 L328.72366,-53.990623 L329.20728,-53.827007 L329.691,-53.662437 L330.1749,-53.497887 L330.6589,-53.332706 L331.1431,-53.16734 L331.62747,-53.0022 L332.11206,-52.837185 L332.59683,-52.672184 L333.08185,-52.508152 L333.56717,-52.34496 L334.0527,-52.182495 L334.53857,-52.021175 L335.02472,-51.860874 L335.5112,-51.702507 L335.99805,-51.54544 L336.4852,-51.389538 L336.97278,-51.23623 L337.46072,-51.08434 L337.9491,-50.934795 L338.4379,-50.787426 L338.92712,-50.6421 L339.4168,-50.49972 L339.907,-50.36011 L340.39767,-50.22264 L340.8889,-50.088673 L341.38058,-49.95704 L341.87286,-49.82861 L342.3657,-49.703693 L342.8591,-49.58165 L343.35312,-49.46332 L343.84775,-49.348038 L344.343,-49.2361 L344.83887,-49.12787 L345.33545,-49.023643 L345.83267,-48.92275 L346.33063,-48.826 L346.82925,-48.732677 L347.3286,-48.643105 L347.8287,-48.557583 L348.32962,-48.476418 L348.83124,-48.39888 L349.33368,-48.32526 L349.8369,-48.25584 L350.341,-48.190426 L350.8459,-48.12878 L351.35162,-48.07164 L351.85822,-48.017857 L352.36572,-47.96858 L352.8741,-47.92361 L353.38342,-47.88224 L353.89362,-47.84473 L354.4048,-47.811264 L354.91693,-47.78206 L355.43002,-47.756443 L355.9441,-47.73459 L356.45917,-47.716717 L356.97522,-47.702156 L357.49234,-47.691498 L358.01047,-47.68406 L358.52966,-47.680443 L359.04996,-47.68036 L359.57126,-47.683163 L360.09372,-47.68942 L360.61722,-47.698406 L361.1419,-47.71071 L361.66766,-47.725624 L362.19458,-47.743294 L362.7227,-47.763824 L363.25192,-47.786533 L363.78235,-47.81149 L364.31396,-47.838852 L364.84677,-47.86789 L365.38083,-47.89918 L365.91608,-47.93187 L366.45258,-47.966175 L366.99033,-48.001694 L367.52933,-48.03857 L368.06958,-48.075996 L368.6111,-48.114178 L369.15396,-48.15306 L369.69812,-48.19238 L370.24356,-48.23176 L370.79034,-48.270874 L371.33844,-48.309757 L371.88788,-48.34808 L372.4387,-48.3855 L372.9908,-48.42168 L373.5443,-48.456627 L374.09918,-48.489986 L374.65546,-48.521755 L375.21307,-48.550938 L375.77216,-48.578148 L376.33258,-48.602325 L376.89447,-48.623844 L377.45773,-48.64199 L378.02246,-48.656773 L378.58856,-48.667427 L379.15616,-48.67427 L379.72516,-48.67634 L380.29565,-48.673813 L380.86758,-48.666237 L381.44098,-48.653313 L382.01584,-48.635437 L382.59222,-48.612656 L383.17014,-48.58485 L383.74957,-48.552242 L384.3306,-48.51527 L384.91318,-48.473255 L385.4973,-48.42639 L386.08307,-48.375195 L386.67047,-48.319263 L387.25946,-48.258694 L387.8501,-48.193417 L388.44238,-48.12329 L389.03638,-48.04877 L389.632,-47.96917 L390.2293,-47.884922 L390.8283,-47.795918 L391.42905,-47.701927 L392.03146,-47.6029 L392.63562,-47.498966 L393.2415,-47.38993 L393.84906,-47.275497 L394.45844,-47.155945 L395.06946,-47.03073 L395.68228,-46.90018 L396.29684,-46.763924 L396.91315,-46.62204 L397.5312,-46.47428 L398.15097,-46.320396 L398.77252,-46.160557 L399.39578,-45.994415 L400.02084,-45.822075 L400.6476,-45.643253 L401.2761,-45.457615 L401.90634,-45.265396 L402.53827,-45.066254 L403.17197,-44.86023 L403.80734,-44.64701 L404.4444,-44.426525 L405.08316,-44.198647 L405.7236,-43.963356 L406.3657,-43.720432 L407.00946,-43.469776 L407.65485,-43.21129 L408.30185,-42.944923 L408.95047,-42.670555 L409.60068,-42.38816 L410.25247,-42.097576 L410.9058,-41.798676 L411.56067,-41.491512 L412.21704,-41.175972 L412.87488,-40.851974 L413.53418,-40.519604 L414.19495,-40.178852 L414.8571,-39.829624 L415.52066,-39.472046 L416.18555,-39.10601 L416.85178,-38.731594 L417.51926,-38.34884 L418.18802,-37.95788 L418.858,-37.55884 L419.52917,-37.151752 L420.2015,-36.736732 L420.87494,-36.313934 L421.54947,-35.883526 L422.22504,-35.445812 L422.90158,-35.00085 L423.57907,-34.548893 L424.25748,-34.09032 L424.93677,-33.625324 L425.61682,-33.154156 L426.29764,-32.677193 L426.9792,-32.19487 L427.66144,-31.70745 L428.34424,-31.215445 L429.02762,-30.71918 L429.7115,-30.219267 L430.3958,-29.71609 L431.08054,-29.210167 L431.76556,-28.702108 L432.45087,-28.19251 L433.13635,-27.681976 L433.822,-27.17115 L434.50772,-26.660633" fill="none" stroke="#0000FF" stroke-linejoin="round" stroke-width="2"/>
</g>
</g>
<g transform="translate(380, -322)">
<text font-size="12" text-anchor="start" x="0" y="0">
New Algorithm
</text>
<line stroke="#0000FF" stroke-width="2" x1="-10" x2="-3" y1="-4" y2="-4"/>
</g>
<g>
<g>
<line stroke="black" stroke-width="1" x1="0" x2="0" y1="0" y2="10"/>
<line stroke="black" stroke-width="1" x1="137.14285714285714" x2="137.14285714285714" y1="0" y2="10"/>
<line stroke="black" stroke-width="1" x1="274.2857142857143" x2="274.2857142857143" y1="0" y2="10"/>
<line stroke="black" stroke-width="1" x1="411.42857142857144" x2="411.42857142857144" y1="0" y2="10"/>
</g>
<line stroke="black" stroke-width="1" x1="0" x2="480" y1="0" y2="0"/>
<g>
<text font-size="12" text-anchor="middle" x="0" y="20">
0
</text>
<text font-size="12" text-anchor="middle" x="137.14285714285714" y="20">
2
</text>
<text font-size="12" text-anchor="middle" x="274.2857142857143" y="20">
4
</text>
<text font-size="12" text-anchor="middle" x="411.42857142857144" y="20">
6
</text>
</g>
<text font-size="12" text-anchor="middle" x="240" y="30">
x
</text>
</g>
<g>
<g>
<line stroke="black" stroke-width="1" x1="0" x2="-10" y1="0" y2="0"/>
<line stroke="black" stroke-width="1" x1="0" x2="-10" y1="-68" y2="-68"/>
<line stroke="black" stroke-width="1" x1="0" x2="-10" y1="-136" y2="-136"/>
<line stroke="black" stroke-width="1" x1="0" x2="-10" y1="-203.99999999999997" y2="-203.99999999999997"/>
<line stroke="black" stroke-width="1" x1="0" x2="-10" y1="-272" y2="-272"/>
<line stroke="black" stroke-width="1" x1="0" x2="-10" y1="-340" y2="-340"/>
</g>
<line stroke="black" stroke-width="1" x1="0" x2="0" y1="0" y2="-340"/>
<g>
<text dominant-baseline="middle" font-size="12" text-anchor="end" x="-15" y="0">
0
</text>
<text dominant-baseline="middle" font-size="12" text-anchor="end" x="-15" y="-68">
0.01
</text>
<text dominant-baseline="middle" font-size="12" text-anchor="end" x="-15" y="-136">
0.02
</text>
<text dominant-baseline="middle" font-size="12" text-anchor="end" x="-15" y="-203.99999999999997">
0.03
</text>
<text dominant-baseline="middle" font-size="12" text-anchor="end" x="-15" y="-272">
0.04
</text>
<text dominant-baseline="middle" font-size="12" text-anchor="end" x="-15" y="-340">
0.05
</text>
</g>
<text font-size="12" text-anchor="middle" transform="rotate(-90 -48 -170)" x="-48" y="-182">
error
</text>
</g>
</g>
</svg>