<svg viewBox="0 0 600 400" xmlns="http://www.w3.org/2000/svg">
<g transform="translate(72, 364)">
<g>
<g>
<path d="M0.68570286,-0.33981845 L0.68570286,-0.33981845 L1.3714057,-0.6787387 L2.05704,-1.0184317 L2.742539,-1.3616182 L3.4278376,-1.709843 L4.1128716,-2.065506 L4.797579,-2.4300408 L5.4818983,-2.8053393 L6.1657705,-3.1929452 L6.8491373,-3.5942557 L7.531942,-4.010535 L8.214129,-4.4431157 L8.895647,-4.892997 L9.576441,-5.361049 L10.256461,-5.848438 L10.9356575,-6.3559985 L11.613983,-6.8840623 L12.291389,-7.4336367 L12.9678335,-8.005056 L13.6432705,-8.598529 L14.3176565,-9.214781 L14.990951,-9.854051 L15.663115,-10.516284 L16.334108,-11.20175 L17.003895,-11.910443 L17.67244,-12.642476 L18.339705,-13.397506 L19.005661,-14.175734 L19.670273,-14.976848 L20.33351,-15.800315 L20.995342,-16.646406 L21.655745,-17.514248 L22.314688,-18.40358 L22.972145,-19.314075 L23.62809,-20.245354 L24.282503,-21.196714 L24.935358,-22.167639 L25.586637,-23.157772 L26.236319,-24.16641 L26.88438,-25.19264 L27.530811,-26.23644 L28.175587,-27.296625 L28.818695,-28.372704 L29.460123,-29.464157 L30.099855,-30.570086 L30.737879,-31.689882 L31.374182,-32.82289 L32.00875,-33.96831 L32.641586,-35.125546 L33.27267,-36.293762 L33.901997,-37.472404 L34.529564,-38.66071 L35.155357,-39.858017 L35.77938,-41.0635 L36.401627,-42.276543 L37.02209,-43.496624 L37.640774,-44.723137 L38.257675,-45.95538 L38.87279,-47.192745 L39.486126,-48.434452 L40.09768,-49.680233 L40.70745,-50.92953 L41.31545,-52.181503 L41.92167,-53.436024 L42.526127,-54.692513 L43.128822,-55.95048 L43.72976,-57.20947 L44.328953,-58.46948 L44.9264,-59.72957 L45.522114,-60.98978 L46.1161,-62.24967 L46.708378,-63.509136 L47.298946,-64.76786 L47.887825,-66.02585 L48.47502,-67.28263 L49.060555,-68.5383 L49.64443,-69.79283 L50.22666,-71.04583 L50.807262,-72.29775 L51.386257,-73.54827 L51.96365,-74.79763 L52.539463,-76.04604 L53.113712,-77.293495 L53.686413,-78.540115 L54.257584,-79.78624 L54.827248,-81.03209 L55.395416,-82.278595 L55.962112,-83.52511 L56.527336,-84.77054 L57.091095,-86.01359 L57.653393,-87.253265 L58.214233,-88.48831 L58.773636,-89.71823 L59.331596,-90.94146 L59.888123,-92.157234 L60.443226,-93.364746 L60.99691,-94.56268 L61.54919,-95.75067 L62.100067,-96.92724 L62.64955,-98.09192 L63.197655,-99.2436 L63.74438,-100.381676 L64.28974,-101.50531 L64.83375,-102.61386 L65.3764,-103.706406 L65.917725,-104.782196 L66.45772,-105.84084 L66.99639,-106.881454 L67.53377,-107.903336 L68.06983,-108.90606 L68.60462,-109.88909 L69.13813,-110.85152 L69.67038,-111.793236 L70.20138,-112.71369 L70.73113,-113.61215 L71.25965,-114.48809 L71.786964,-115.34172 L72.313065,-116.17183 L72.837975,-116.978714 L73.361694,-117.761345 L73.88425,-118.519684 L74.405655,-119.25391 L74.92591,-119.96304 L75.44503,-120.646965 L75.963036,-121.30588 L76.479935,-121.93892 L76.99574,-122.54634 L77.510475,-123.1279 L78.02414,-123.68342 L78.53676,-124.212585 L79.04833,-124.71538 L79.55889,-125.19217 L80.068436,-125.64206 L80.576996,-126.066 L81.084564,-126.463036 L81.59117,-126.83352 L82.096825,-127.17774 L82.60154,-127.495255 L83.10533,-127.78639 L83.60823,-128.05138 L84.11023,-128.29022 L84.61135,-128.50273 L85.11162,-128.6893 L85.61104,-128.85014 L86.10962,-128.98524 L86.60739,-129.09465 L87.10437,-129.17914 L87.600555,-129.2384 L88.09598,-129.27277 L88.59066,-129.28294 L89.084595,-129.26839 L89.57782,-129.23026 L90.070335,-129.16792 L90.562164,-129.08246 L91.05332,-128.9736 L91.54383,-128.84233 L92.03371,-128.68867 L92.52296,-128.5129 L93.011604,-128.31544 L93.499664,-128.09657 L93.98715,-127.85721 L94.47409,-127.59719 L94.96049,-127.317085 L95.44637,-127.01754 L95.93176,-126.69903 L96.41666,-126.36163 L96.901085,-126.0061 L97.38506,-125.63287 L97.8686,-125.24202 L98.35173,-124.8348 L98.83446,-124.4112 L99.3168,-123.97215 L99.79879,-123.5177 L100.280426,-123.04833 L100.761734,-122.56528 L101.24274,-122.06824 L101.72344,-121.55851 L102.203865,-121.03576 L102.68404,-120.50131 L103.16397,-119.955666 L103.64367,-119.39889 L104.12318,-118.83228 L104.60249,-118.25561 L105.08163,-117.66971 L105.56062,-117.075554 L106.03948,-116.47361 L106.51822,-115.86401 L106.99687,-115.248085 L107.47543,-114.62554 L107.95393,-113.997696 L108.43239,-113.36467 L108.91081,-112.727394 L109.38924,-112.086365 L109.86766,-111.44212 L110.346115,-110.79517 L110.824615,-110.14645 L111.30318,-109.496056 L111.781815,-108.84492 L112.26057,-108.19394 L112.73942,-107.542854 L113.2184,-106.89255 L113.69755,-106.24435 L114.176865,-105.59793 L114.65636,-104.95384 L115.136055,-104.31333 L115.61598,-103.67655 L116.09615,-103.04436 L116.57658,-102.41683 L117.05727,-101.79447 L117.53826,-101.17856 L118.01957,-100.56916 L118.50119,-99.966354 L118.98318,-99.37177 L119.465515,-98.78471 L119.948235,-98.2064 L120.43135,-97.63731 L120.91489,-97.07784 L121.39886,-96.52841 L121.88327,-95.98917 L122.36816,-95.461174 L122.85354,-94.944916 L123.3394,-94.439964 L123.82579,-93.947556 L124.31272,-93.46805 L124.8002,-93.00146 L125.288246,-92.54846 L125.776886,-92.10951 L126.26612,-91.68452 L126.75599,-91.27463 L127.24648,-90.879395 L127.737625,-90.49945 L128.22945,-90.1352 L128.72195,-89.7869 L129.21516,-89.45484 L129.70908,-89.13896 L130.20374,-88.84017 L130.69914,-88.55813 L131.19533,-88.293304 L131.69228,-88.04609 L132.19005,-87.81655 L132.68861,-87.60455 L133.18802,-87.41073 L133.68826,-87.234795 L134.18936,-87.07707 L134.69135,-86.93742 L135.19423,-86.8167 L135.698,-86.714 L136.2027,-86.63001 L136.70834,-86.56475 L137.21492,-86.517456 L137.72249,-86.4895 L138.23102,-86.47928 L138.74054,-86.48773 L139.25107,-86.51467 L139.76262,-86.55956 L140.27522,-86.62309 L140.78886,-86.70448 L141.30359,-86.80427 L141.81937,-86.92122 L142.33626,-87.055725 L142.85423,-87.20724 L143.37334,-87.3761 L143.89357,-87.56161 L144.41495,-87.763664 L144.93747,-87.98202 L145.46118,-88.21573 L145.98605,-88.46492 L146.51213,-88.72955 L147.03941,-89.00855 L147.56792,-89.30204 L148.09766,-89.60915 L148.62862,-89.92949 L149.16084,-90.262375 L149.69434,-90.6078 L150.2291,-90.96506 L150.76514,-91.33276 L151.30249,-91.71166 L151.84113,-92.0997 L152.38109,-92.497154 L152.9224,-92.90384 L153.46503,-93.31762 L154.009,-93.73848 L154.55434,-94.16617 L155.10104,-94.59913 L155.64911,-95.03685 L156.19856,-95.47816 L156.74942,-95.922905 L157.30165,-96.36948 L157.85532,-96.81785 L158.4104,-97.26617 L158.9669,-97.71458 L159.52484,-98.16098 L160.08421,-98.60466 L160.64502,-99.04471 L161.20728,-99.47996 L161.77101,-99.91022 L162.33621,-100.33312 L162.90286,-100.74805 L163.47101,-101.15337 L164.04065,-101.54999 L164.61179,-101.93743 L165.18445,-102.31578 L165.75868,-102.68654 L166.33444,-103.04809 L166.91182,-103.4022 L167.49077,-103.74774 L168.07135,-104.085526 L168.65355,-104.41511 L169.23738,-104.73682 L169.82288,-105.050354 L170.41005,-105.35589 L170.9989,-105.653145 L171.58943,-105.94155 L172.18167,-106.221855 L172.77562,-106.49296 L173.3713,-106.75534 L173.96872,-107.00813 L174.56789,-107.25149 L175.16878,-107.48444 L175.77144,-107.70715 L176.37587,-107.919266 L176.98204,-108.119774 L177.59001,-108.30876 L178.19975,-108.48581 L178.81126,-108.65011 L179.42456,-108.801216 L180.03964,-108.93891 L180.65651,-109.06234 L181.27516,-109.17084 L181.89558,-109.26376 L182.51779,-109.341225 L183.14178,-109.40178 L183.76755,-109.44553 L184.39507,-109.47125 L185.02437,-109.47865 L185.65543,-109.46727 L186.28822,-109.43597 L186.92276,-109.38462 L187.55902,-109.31193 L188.197,-109.21799 L188.8367,-109.101746 L189.47809,-108.96281 L190.12117,-108.80048 L190.76593,-108.61459 L191.41232,-108.403946 L192.06036,-108.16823 L192.71,-107.90709 L193.36124,-107.61954 L194.01407,-107.306015 L194.66844,-106.96512 L195.32437,-106.597145 L195.98178,-106.20124 L196.6407,-105.77759 L197.30109,-105.32548 L197.96289,-104.84473 L198.6261,-104.33522 L199.29068,-103.79708 L199.95662,-103.229935 L200.62386,-102.633675 L201.29237,-102.00846 L201.96213,-101.35436 L202.63312,-100.67165 L203.30524,-99.96051 L203.97852,-99.22115 L204.65288,-98.45423 L205.3283,-97.66013 L206.00471,-96.83906 L206.68211,-95.9922 L207.36041,-95.11989 L208.0396,-94.22314 L208.7196,-93.3028 L209.40038,-92.36006 L210.0819,-91.3958 L210.76405,-90.4114 L211.44684,-89.40841 L212.1302,-88.38781 L212.81407,-87.35169 L213.49838,-86.3013 L214.18307,-85.23866 L214.8681,-84.16593 L215.5534,-83.0848 L216.23889,-81.99754 L216.92453,-80.90679 L217.61024,-79.81715 L218.29593,-78.72635 L218.98157,-77.63265 L219.66708,-76.53342 L220.35239,-75.42733 L221.03743,-74.3123 L221.72217,-73.186554 L222.40652,-72.04855 L223.09042,-70.897194 L223.77383,-69.73107 L224.4567,-68.548584 L225.13895,-67.34908 L225.82054,-66.13155 L226.50143,-64.89479 L227.18153,-63.638187 L227.86086,-62.36121 L228.5393,-61.0629 L229.21687,-59.743015 L229.89346,-58.40113 L230.56909,-57.036663 L231.24367,-55.649784 L231.91718,-54.240055 L232.58957,-52.80712 L233.26082,-51.35111 L233.93088,-49.87246 L234.59972,-48.37066 L235.2673,-46.84631 L235.9336,-45.299282 L236.59856,-43.72992 L237.26218,-42.138588 L237.92442,-40.525826 L238.58525,-38.891724 L239.24466,-37.236618 L239.90259,-35.561253 L240.55907,-33.866 L241.214,-32.151733 L241.86743,-30.418695 L242.5193,-28.667366 L243.1696,-26.898775 L243.81833,-25.113377 L244.46544,-23.311659 L245.11092,-21.494677 L245.75478,-19.662512 L246.39697,-17.816422 L247.0375,-15.956919 L247.67638,-14.084775 L248.31354,-12.200473 L248.94902,-10.305076 L249.5828,-8.398878 L250.21484,-6.4829698 L250.84517,-4.5582595 L251.47379,-2.6246598 L252.10065,-0.68389904 L252.72578,-1.2645357 L253.34915,-3.2188835 L253.9708,-5.179071 L254.59071,-7.144815 L255.20886,-9.114547 L255.82527,-11.088661 L256.43994,-13.06584 L257.05286,-15.045616 L257.664,-17.027534 L258.27344,-19.011423 L258.88113,-20.996462 L259.48712,-22.982533 L260.09134,-24.968481 L260.69388,-26.954794 L261.29468,-28.94044 L261.8938,-30.925589 L262.49124,-32.909843 L263.08698,-34.89241 L263.68103,-36.873657 L264.27344,-38.85315 L264.86417,-40.830803 L265.45325,-42.806023 L266.04074,-44.779324 L266.6266,-46.75058 L267.21088,-48.719982 L267.79352,-50.6867 L268.3746,-52.650818 L268.95416,-54.613815 L269.53214,-56.574123 L270.10864,-58.533703 L270.6836,-60.491035 L271.25708,-62.447174 L271.8291,-64.40283 L272.39966,-66.357346 L272.96875,-68.30986 L273.5364,-70.25897 L274.10263,-72.20326 L274.66742,-74.14195 L275.2308,-76.07471 L275.79272,-77.999146 L276.35327,-79.91497 L276.91238,-81.8211 L277.47015,-83.717705 L278.0265,-85.602066 L278.58142,-87.47311 L279.13504,-89.33199 L279.68726,-91.17643 L280.2381,-93.005035 L280.78763,-94.818146 L281.3358,-96.61463 L281.88266,-98.394714 L282.4282,-100.15575 L282.9724,-101.897995 L283.51535,-103.62197 L284.05695,-105.32351 L284.5973,-107.00609 L285.13638,-108.66696 L285.6742,-110.305145 L286.21075,-111.921074 L286.7461,-113.51521 L287.2802,-115.08508 L287.81308,-116.62977 L288.3448,-118.15123 L288.8753,-119.648224 L289.4046,-121.11871 L289.93274,-122.56312 L290.45975,-123.98341 L290.9856,-125.37577 L291.5103,-126.74234 L292.0339,-128.08073 L292.5564,-129.39317 L293.0778,-130.67711 L293.59814,-131.93492 L294.11737,-133.16281 L294.6356,-134.3644 L295.15274,-135.5359 L295.6689,-136.68109 L296.18402,-137.79633 L296.69815,-138.88374 L297.2113,-139.9427 L297.72348,-140.97241 L298.2347,-141.97386 L298.74496,-142.9462 L299.25433,-143.89044 L299.7628,-144.80588 L300.27032,-145.69186 L300.77698,-146.55075 L301.28278,-147.38062 L301.78772,-148.1821 L302.29184,-148.95485 L302.7951,-149.69977 L303.2976,-150.41776 L303.7993,-151.10684 L304.3002,-151.76944 L304.80038,-152.40506 L305.29974,-153.01167 L305.79846,-153.59348 L306.29645,-154.14828 L306.7937,-154.67566 L307.2903,-155.1782 L307.78622,-155.65395 L308.28152,-156.10553 L308.77618,-156.5308 L309.27023,-156.93275 L309.76367,-157.30907 L310.25656,-157.66263 L310.74884,-157.99141 L311.2406,-158.29811 L311.73184,-158.58075 L312.22253,-158.84052 L312.71274,-159.0802 L313.20245,-159.29616 L313.69174,-159.49292 L314.18057,-159.66835 L314.66895,-159.82217 L315.15692,-159.95723 L315.6445,-160.07303 L316.1317,-160.17099 L316.61856,-160.249 L317.10507,-160.30998 L317.59125,-160.35358 L318.0771,-160.37946 L318.56268,-160.39049 L319.04797,-160.38474 L319.53305,-160.36505 L320.01785,-160.32951 L320.5024,-160.27942 L320.9868,-160.21603 L321.471,-160.14067 L321.95502,-160.05136 L322.43893,-159.95105 L322.92264,-159.83777 L323.40628,-159.71446 L323.88983,-159.58241 L324.37326,-159.43808 L324.85666,-159.286 L325.34,-159.1242 L325.82333,-158.95567 L326.30664,-158.77843 L326.78998,-158.59541 L327.2733,-158.40468 L327.75668,-158.20914 L328.2401,-158.00687 L328.72366,-157.80077 L329.20728,-157.59053 L329.691,-157.37582 L330.1749,-157.15953 L330.6589,-156.93974 L331.1431,-156.71773 L331.62747,-156.49474 L332.11206,-156.27046 L332.59683,-156.04459 L333.08185,-155.81995 L333.56717,-155.59618 L334.0527,-155.37296 L334.53857,-155.15155 L335.02472,-154.93156 L335.5112,-154.71582 L335.99805,-154.50241 L336.4852,-154.29092 L336.97278,-154.08574 L337.46072,-153.8833 L337.9491,-153.68646 L338.4379,-153.49474 L338.92712,-153.30775 L339.4168,-153.12831 L339.907,-152.95589 L340.39767,-152.78859 L340.8889,-152.63068 L341.38058,-152.47856 L341.87286,-152.33498 L342.3657,-152.20093 L342.8591,-152.07448 L343.35312,-151.95828 L343.84775,-151.85031 L344.343,-151.75156 L344.83887,-151.66316 L345.33545,-151.58615 L345.83267,-151.51845 L346.33063,-151.46266 L346.82925,-151.41661 L347.3286,-151.38133 L347.8287,-151.35786 L348.32962,-151.3472 L348.83124,-151.3471 L349.33368,-151.35858 L349.8369,-151.38255 L350.341,-151.41846 L350.8459,-151.46564 L351.35162,-151.52646 L351.85822,-151.59734 L352.36572,-151.682 L352.8741,-151.77992 L353.38342,-151.88881 L353.89362,-152.00961 L354.4048,-152.14296 L354.91693,-152.28963 L355.43002,-152.44751 L355.9441,-152.6172 L356.45917,-152.7995 L356.97522,-152.99228 L357.49234,-153.1975 L358.01047,-153.41301 L358.52966,-153.64082 L359.04996,-153.88007 L359.57126,-154.12865 L360.09372,-154.3885 L360.61722,-154.65732 L361.1419,-154.93703 L361.66766,-155.22539 L362.19458,-155.52293 L362.7227,-155.83 L363.25192,-156.14444 L363.78235,-156.46648 L364.31396,-156.79669 L364.84677,-157.13269 L365.38083,-157.47646 L365.91608,-157.8251 L366.45258,-158.17947 L366.99033,-158.5382 L367.52933,-158.90178 L368.06958,-159.26756 L368.6111,-159.63622 L369.15396,-160.0076 L369.69812,-160.38084 L370.24356,-160.75467 L370.79034,-161.12799 L371.33844,-161.50095 L371.88788,-161.87239 L372.4387,-162.24118 L372.9908,-162.60614 L373.5443,-162.96732 L374.09918,-163.32346 L374.65546,-163.67455 L375.21307,-164.01717 L375.77216,-164.35338 L376.33258,-164.67953 L376.89447,-164.99689 L377.45773,-165.30292 L378.02246,-165.59764 L378.58856,-165.87837 L379.15616,-166.14616 L379.72516,-166.3976 L380.29565,-166.63327 L380.86758,-166.85155 L381.44098,-167.05128 L382.01584,-167.2338 L382.59222,-167.39919 L383.17014,-167.54692 L383.74957,-167.67772 L384.3306,-167.79306 L384.91318,-167.89049 L385.4973,-167.9706 L386.08307,-168.03513 L386.67047,-168.08263 L387.25946,-168.11334 L387.8501,-168.12694 L388.44238,-168.12291 L389.03638,-168.10274 L389.632,-168.06396 L390.2293,-168.00801 L390.8283,-167.93446 L391.42905,-167.84242 L392.03146,-167.73164 L392.63562,-167.60248 L393.2415,-167.45422 L393.84906,-167.2857 L394.45844,-167.09784 L395.06946,-166.88864 L395.68228,-166.65918 L396.29684,-166.40805 L396.91315,-166.13547 L397.5312,-165.84044 L398.15097,-165.52199 L398.77252,-165.18066 L399.39578,-164.8151 L400.02084,-164.42558 L400.6476,-164.011 L401.2761,-163.57007 L401.90634,-163.10353 L402.53827,-162.61005 L403.17197,-162.08968 L403.80734,-161.54118 L404.4444,-160.96419 L405.08316,-160.35812 L405.7236,-159.72285 L406.3657,-159.05743 L407.00946,-158.36139 L407.65485,-157.63425 L408.30185,-156.87573 L408.95047,-156.08528 L409.60068,-155.26266 L410.25247,-154.40721 L410.9058,-153.51828 L411.56067,-152.59598 L412.21704,-151.63979 L412.87488,-150.64925 L413.53418,-149.62457 L414.19495,-148.56561 L414.8571,-147.47188 L415.52066,-146.34373 L416.18555,-145.18066 L416.85178,-143.9828 L417.51926,-142.7502 L418.18802,-141.48323 L418.858,-140.18228 L419.52917,-138.84727 L420.2015,-137.47859 L420.87494,-136.07668 L421.54947,-134.64206 L422.22504,-133.17575 L422.90158,-131.67787 L423.57907,-130.14926 L424.25748,-128.59126 L424.93677,-127.00449 L425.61682,-125.389824 L426.29764,-123.748566 L426.9792,-122.08231 L427.66144,-120.39196 L428.34424,-118.67939 L429.02762,-116.94577 L429.7115,-115.19336 L430.3958,-113.42358 L431.08054,-111.63835 L431.76556,-109.83998 L432.45087,-108.03071 L433.13635,-106.21281 L433.822,-104.38877 L434.50772,-102.560875" fill="none" stroke="#DCA66B" stroke-linejoin="round" stroke-width="2"/>
</g>
</g>
<g transform="translate(380, -340)">
<text font-size="12" text-anchor="start" x="0" y="0">
Reconstructed Curve
</text>
<line stroke="#DCA66B" stroke-width="2" x1="-10" x2="-3" y1="-4" y2="-4"/>
</g>
<g>
<g>
<line stroke="black" stroke-width="1" x1="0" x2="0" y1="0" y2="10"/>
<line stroke="black" stroke-width="1" x1="137.14285714285714" x2="137.14285714285714" y1="0" y2="10"/>
<line stroke="black" stroke-width="1" x1="274.2857142857143" x2="274.2857142857143" y1="0" y2="10"/>
<line stroke="black" stroke-width="1" x1="411.42857142857144" x2="411.42857142857144" y1="0" y2="10"/>
</g>
<line stroke="black" stroke-width="1" x1="0" x2="480" y1="0" y2="0"/>
<g>
<text font-size="12" text-anchor="middle" x="0" y="20">
0
</text>
<text font-size="12" text-anchor="middle" x="137.14285714285714" y="20">
2
</text>
<text font-size="12" text-anchor="middle" x="274.2857142857143" y="20">
4
</text>
<text font-size="12" text-anchor="middle" x="411.42857142857144" y="20">
6
</text>
</g>
<text font-size="12" text-anchor="middle" x="240" y="30">
x
</text>
</g>
<g>
<g>
<line stroke="black" stroke-width="1" x1="0" x2="-10" y1="0" y2="0"/>
<line stroke="black" stroke-width="1" x1="0" x2="-10" y1="-68" y2="-68"/>
<line stroke="black" stroke-width="1" x1="0" x2="-10" y1="-136" y2="-136"/>
<line stroke="black" stroke-width="1" x1="0" x2="-10" y1="-203.99999999999997" y2="-203.99999999999997"/>
<line stroke="black" stroke-width="1" x1="0" x2="-10" y1="-272" y2="-272"/>
<line stroke="black" stroke-width="1" x1="0" x2="-10" y1="-340" y2="-340"/>
</g>
<line stroke="black" stroke-width="1" x1="0" x2="0" y1="0" y2="-340"/>
<g>
<text dominant-baseline="middle" font-size="12" text-anchor="end" x="-15" y="0">
0
</text>
<text dominant-baseline="middle" font-size="12" text-anchor="end" x="-15" y="-68">
0.02
</text>
<text dominant-baseline="middle" font-size="12" text-anchor="end" x="-15" y="-136">
0.04
</text>
<text dominant-baseline="middle" font-size="12" text-anchor="end" x="-15" y="-203.99999999999997">
0.06
</text>
<text dominant-baseline="middle" font-size="12" text-anchor="end" x="-15" y="-272">
0.08
</text>
<text dominant-baseline="middle" font-size="12" text-anchor="end" x="-15" y="-340">
0.1
</text>
</g>
<text font-size="12" text-anchor="middle" transform="rotate(-90 -48 -170)" x="-48" y="-182">
error
</text>
</g>
</g>
</svg>