<svg viewBox="0 0 600 400" xmlns="http://www.w3.org/2000/svg">
<g transform="translate(72, 364)">
<g>
<g>
<path d="M0.68569183,-0.020395268 L0.68569183,-0.020395268 L1.3713835,-0.03389531 L2.0569413,-0.040680125 L2.7422345,-0.040935382 L3.4271367,-0.03484271 L4.1115236,-0.02254973 L4.7952757,-0.0042111124 L5.4782767,-0.020010887 L6.160412,-0.050007083 L6.8415728,-0.08562901 L7.521652,-0.12677029 L8.200547,-0.17332508 L8.878157,-0.22517765 L9.554386,-0.2822419 L10.229141,-0.34442136 L10.902331,-0.4116483 L11.573871,-0.48384318 L12.243675,-0.56093425 L12.911664,-0.64286727 L13.577759,-0.7295747 L14.241888,-0.8210146 L14.903979,-0.9171423 L15.563963,-1.0178976 L16.221777,-1.123265 L16.877356,-1.2331942 L17.530643,-1.3476684 L18.181581,-1.4666556 L18.830116,-1.590126 L19.476202,-1.7180701 L20.119783,-1.8504556 L20.76082,-1.9872795 L21.399271,-2.12853 L22.035091,-2.2741776 L22.66825,-2.424223 L23.298708,-2.5786562 L23.926437,-2.7374594 L24.551405,-2.9006348 L25.173586,-3.0681627 L25.792957,-3.2400393 L26.409494,-3.4162698 L27.023182,-3.596824 L27.633997,-3.7817023 L28.241928,-3.970908 L28.846962,-4.164409 L29.449087,-4.3622093 L30.048298,-4.5642796 L30.644587,-4.7706246 L31.237946,-4.981218 L31.82838,-5.1960506 L32.415882,-5.415091 L33.000458,-5.6383257 L33.58211,-5.865743 L34.160847,-6.097292 L34.73667,-6.3329606 L35.309597,-6.5727253 L35.87963,-6.8165426 L36.44679,-7.0643783 L37.011086,-7.3162 L37.572533,-7.5719676 L38.131153,-7.831633 L38.686962,-8.095147 L39.239983,-8.362474 L39.79024,-8.633549 L40.33775,-8.908325 L40.882545,-9.186741 L41.424652,-9.468738 L41.964096,-9.754246 L42.500904,-10.043202 L43.03511,-10.335534 L43.566746,-10.63117 L44.095844,-10.930025 L44.62244,-11.232036 L45.146564,-11.5371 L45.668262,-11.845136 L46.18756,-12.15607 L46.704506,-12.469787 L47.21914,-12.786187 L47.731495,-13.105198 L48.24162,-13.426685 L48.749554,-13.750571 L49.25534,-14.076716 L49.75903,-14.405029 L50.260662,-14.735382 L50.76028,-15.067656 L51.257935,-15.401738 L51.753677,-15.737497 L52.247566,-16.074736 L52.73963,-16.413425 L53.22987,-16.753632 L53.718304,-17.09536 L54.20494,-17.438652 L54.689785,-17.783548 L55.17286,-18.130062 L55.654163,-18.47823 L56.13372,-18.828064 L56.61153,-19.179613 L57.087612,-19.53288 L57.56198,-19.887892 L58.034637,-20.244686 L58.505608,-20.603252 L58.97489,-20.963629 L59.442513,-21.325827 L59.90848,-21.689865 L60.372803,-22.055752 L60.835503,-22.423502 L61.296593,-22.793121 L61.756077,-23.164637 L62.213978,-23.53803 L62.670307,-23.913332 L63.12508,-24.290545 L63.57831,-24.669659 L64.030014,-25.050694 L64.4802,-25.43364 L64.928894,-25.818508 L65.3761,-26.205294 L65.821846,-26.593987 L66.26613,-26.984596 L66.708984,-27.377115 L67.15041,-27.771534 L67.59045,-28.16785 L68.02908,-28.566051 L68.466354,-28.966137 L68.90226,-29.368093 L69.33684,-29.771908 L69.77008,-30.177568 L70.20203,-30.585062 L70.632675,-30.99438 L71.06205,-31.405512 L71.49017,-31.818419 L71.91705,-32.233105 L72.34271,-32.64953 L72.76717,-33.067688 L73.190445,-33.487576 L73.61255,-33.90913 L74.03351,-34.33236 L74.45332,-34.75724 L74.872025,-35.183746 L75.289635,-35.611828 L75.70616,-36.041496 L76.12162,-36.472706 L76.53604,-36.905422 L76.94945,-37.339615 L77.36183,-37.77528 L77.77324,-38.212353 L78.18367,-38.65083 L78.593155,-39.09066 L79.001724,-39.531807 L79.40936,-39.974266 L79.81611,-40.41798 L80.221985,-40.8629 L80.627,-41.309032 L81.03119,-41.756294 L81.434555,-42.204685 L81.83713,-42.65414 L82.23892,-43.10463 L82.63995,-43.556118 L83.04025,-44.008553 L83.43982,-44.461918 L83.8387,-44.91615 L84.23689,-45.3712 L84.63443,-45.82705 L85.03132,-46.28365 L85.4276,-46.740936 L85.823265,-47.198887 L86.21835,-47.657444 L86.612885,-48.116573 L87.00688,-48.576202 L87.400345,-49.036324 L87.79331,-49.49687 L88.1858,-49.95777 L88.57783,-50.419018 L88.96941,-50.88055 L89.36058,-51.342304 L89.751335,-51.80426 L90.14172,-52.266327 L90.53175,-52.728493 L90.92144,-53.19068 L91.31081,-53.65285 L91.69988,-54.114944 L92.08868,-54.576912 L92.47721,-55.03872 L92.86551,-55.5003 L93.25359,-55.961597 L93.64149,-56.422558 L94.029205,-56.88313 L94.416756,-57.343277 L94.80419,-57.802914 L95.1915,-58.26202 L95.57872,-58.720516 L95.965866,-59.178368 L96.35296,-59.635498 L96.74002,-60.09187 L97.127075,-60.547417 L97.514145,-61.002094 L97.90123,-61.455856 L98.288376,-61.90862 L98.6756,-62.360332 L99.062904,-62.81096 L99.450325,-63.260433 L99.83788,-63.7087 L100.2256,-64.15568 L100.61348,-64.60137 L101.00156,-65.045685 L101.389854,-65.488556 L101.77839,-65.92993 L102.167175,-66.369774 L102.556244,-66.808014 L102.9456,-67.24461 L103.33528,-67.67949 L103.72531,-68.112595 L104.11569,-68.54386 L104.50645,-68.97327 L104.8976,-69.40076 L105.28918,-69.82624 L105.68119,-70.24967 L106.07368,-70.67099 L106.46664,-71.09017 L106.86009,-71.50715 L107.25407,-71.921844 L107.64859,-72.334236 L108.04366,-72.744255 L108.43932,-73.15183 L108.83559,-73.55694 L109.23247,-73.959496 L109.62998,-74.35948 L110.028175,-74.7568 L110.42703,-75.15145 L110.8266,-75.54334 L111.226875,-75.93243 L111.62789,-76.31868 L112.02967,-76.70203 L112.43223,-77.08242 L112.83557,-77.45982 L113.239746,-77.83415 L113.644745,-78.2054 L114.050606,-78.57346 L114.45734,-78.938354 L114.86496,-79.3 L115.2735,-79.65833 L115.68297,-80.01333 L116.09338,-80.36494 L116.50477,-80.71313 L116.917145,-81.05782 L117.33052,-81.398994 L117.74493,-81.73658 L118.16037,-82.070564 L118.57687,-82.40091 L118.99445,-82.72753 L119.41314,-83.05042 L119.83293,-83.36953 L120.25386,-83.68482 L120.67595,-83.99625 L121.0992,-84.303764 L121.52363,-84.60737 L121.949265,-84.90698 L122.37613,-85.20258 L122.80422,-85.49416 L123.233574,-85.78163 L123.6642,-86.065 L124.096115,-86.34422 L124.529335,-86.61928 L124.96388,-86.890114 L125.399765,-87.15671 L125.837006,-87.41905 L126.27561,-87.67708 L126.715614,-87.93079 L127.15702,-88.180145 L127.59985,-88.425125 L128.04411,-88.665726 L128.48982,-88.901886 L128.937,-89.13362 L129.38567,-89.36091 L129.83582,-89.583694 L130.28749,-89.80198 L130.74069,-90.01575 L131.19543,-90.225 L131.65173,-90.429695 L132.1096,-90.62983 L132.56906,-90.825424 L133.0301,-91.016396 L133.49278,-91.2028 L133.95708,-91.3846 L134.423,-91.5618 L134.8906,-91.734375 L135.35985,-91.90234 L135.83078,-92.0657 L136.3034,-92.224434 L136.77774,-92.37856 L137.25378,-92.528076 L137.73155,-92.67298 L138.21107,-92.813255 L138.69235,-92.94894 L139.1754,-93.08003 L139.6602,-93.20656 L140.1468,-93.32851 L140.63521,-93.44588 L141.1254,-93.558716 L141.61743,-93.66702 L142.11128,-93.77086 L142.60696,-93.87015 L143.10455,-93.964775 L143.60403,-94.0548 L144.10544,-94.14008 L144.6088,-94.220604 L145.11414,-94.29629 L145.62148,-94.3671 L146.13084,-94.43299 L146.64227,-94.49393 L147.15575,-94.54987 L147.67134,-94.60076 L148.18904,-94.64657 L148.70888,-94.68727 L149.23088,-94.72281 L149.75505,-94.753174 L150.2814,-94.77838 L150.81,-94.798325 L151.3408,-94.81305 L151.87386,-94.82252 L152.4092,-94.82669 L152.9468,-94.825615 L153.48671,-94.81918 L154.02892,-94.80748 L154.57346,-94.79047 L155.12033,-94.76811 L155.66957,-94.74045 L156.22116,-94.70749 L156.77512,-94.669235 L157.33147,-94.62568 L157.8902,-94.576836 L158.45132,-94.52273 L159.0149,-94.46333 L159.58084,-94.398735 L160.14923,-94.32892 L160.72003,-94.25392 L161.29326,-94.173744 L161.86893,-94.08844 L162.44704,-93.99805 L163.02757,-93.90256 L163.61055,-93.80206 L164.19597,-93.69658 L164.78381,-93.58615 L165.37408,-93.470825 L165.9668,-93.35065 L166.56194,-93.225624 L167.15948,-93.09587 L167.75946,-92.961395 L168.36183,-92.82229 L168.96658,-92.67859 L169.57375,-92.53035 L170.18327,-92.377625 L170.79517,-92.220474 L171.40941,-92.059 L172.02599,-91.893234 L172.64488,-91.72327 L173.2661,-91.549095 L173.88959,-91.37087 L174.51534,-91.18866 L175.14334,-91.002495 L175.77356,-90.812454 L176.406,-90.61861 L177.0406,-90.42105 L177.67737,-90.21982 L178.31627,-90.01503 L178.95724,-89.806725 L179.60031,-89.594986 L180.24539,-89.37993 L180.89249,-89.161545 L181.54156,-88.939964 L182.19257,-88.71524 L182.84549,-88.487465 L183.50027,-88.256676 L184.15688,-88.02297 L184.81526,-87.78638 L185.47539,-87.54703 L186.13722,-87.304924 L186.8007,-87.06018 L187.4658,-86.8128 L188.13245,-86.56287 L188.8006,-86.31047 L189.47023,-86.05561 L190.14127,-85.79836 L190.81363,-85.53879 L191.48732,-85.2769 L192.16226,-85.01264 L192.83836,-84.74626 L193.51555,-84.478096 L194.19379,-84.20839 L194.87296,-83.937416 L195.55302,-83.66542 L196.2339,-83.39274 L196.91551,-83.11954 L197.59781,-82.84612 L198.28072,-82.5727 L198.96417,-82.299515 L199.64812,-82.02679 L200.33247,-81.754745 L201.01721,-81.483604 L201.70224,-81.21356 L202.38751,-80.94482 L203.07297,-80.677574 L203.75858,-80.411995 L204.44426,-80.14829 L205.12997,-79.88663 L205.81564,-79.627174 L206.50128,-79.370094 L207.18677,-79.115524 L207.8721,-78.863655 L208.55722,-78.61459 L209.24208,-78.36849 L209.92662,-78.125496 L210.61086,-77.88571 L211.29468,-77.649284 L211.97807,-77.41631 L212.66101,-77.186935 L213.34346,-76.961235 L214.02534,-76.73932 L214.70668,-76.52129 L215.38739,-76.30724 L216.06747,-76.09727 L216.74689,-75.89146 L217.4256,-75.68986 L218.10356,-75.49259 L218.78079,-75.29968 L219.45721,-75.111244 L220.13283,-74.9273 L220.8076,-74.74795 L221.48154,-74.57321 L222.15456,-74.403175 L222.82669,-74.237854 L223.49788,-74.07733 L224.16812,-73.92164 L224.83743,-73.77081 L225.50574,-73.6249 L226.17302,-73.48392 L226.83931,-73.34792 L227.50456,-73.216934 L228.16878,-73.09098 L228.83192,-72.97011 L229.494,-72.854294 L230.155,-72.743614 L230.8149,-72.638054 L231.4737,-72.537674 L232.13138,-72.442444 L232.78796,-72.3524 L233.44342,-72.267555 L234.09775,-72.18794 L234.75092,-72.11353 L235.40295,-72.04437 L236.05386,-71.98049 L236.70361,-71.92183 L237.35223,-71.86847 L237.9997,-71.82037 L238.64598,-71.77756 L239.29114,-71.74003 L239.93515,-71.70782 L240.578,-71.68091 L241.21973,-71.659325 L241.8603,-71.64304 L242.49973,-71.63209 L243.13803,-71.62647 L243.7752,-71.62619 L244.41125,-71.631256 L245.04619,-71.64167 L245.68001,-71.65744 L246.31274,-71.67859 L246.94437,-71.7051 L247.5749,-71.73699 L248.20438,-71.77429 L248.8328,-71.81702 L249.46014,-71.865105 L250.08643,-71.91855 L250.71167,-71.97727 L251.33585,-72.04118 L251.95898,-72.1103 L252.58104,-72.18447 L253.20209,-72.263725 L253.82205,-72.34797 L254.44101,-72.43713 L255.0589,-72.53119 L255.67578,-72.63005 L256.2916,-72.733665 L256.9064,-72.84199 L257.52017,-72.95498 L258.1329,-73.07254 L258.74466,-73.19465 L259.35538,-73.321236 L259.9651,-73.452286 L260.57382,-73.58767 L261.18152,-73.72738 L261.78824,-73.87135 L262.39398,-74.01957 L262.99875,-74.17191 L263.60254,-74.328384 L264.20535,-74.48892 L264.80722,-74.65345 L265.4081,-74.82191 L266.0081,-74.99432 L266.60712,-75.1706 L267.2052,-75.350655 L267.80237,-75.534485 L268.39862,-75.72203 L268.994,-75.91325 L269.5884,-76.10808 L270.18198,-76.306496 L270.77466,-76.50845 L271.36646,-76.71387 L271.95737,-76.92275 L272.54742,-77.13505 L273.1367,-77.350716 L273.72507,-77.56968 L274.31262,-77.79193 L274.89938,-78.01746 L275.48532,-78.24616 L276.07043,-78.47802 L276.6548,-78.71298 L277.23834,-78.95111 L277.82117,-79.19225 L278.4032,-79.43644 L278.9845,-79.68361 L279.56503,-79.933685 L280.1449,-80.18679 L280.724,-80.44268 L281.30243,-80.70148 L281.88016,-80.963104 L282.45718,-81.22753 L283.03357,-81.49474 L283.6093,-81.76473 L284.1844,-82.0374 L284.75882,-82.31271 L285.33267,-82.59077 L285.90588,-82.871445 L286.4785,-83.15466 L287.0505,-83.44055 L287.62198,-83.728966 L288.19287,-84.01993 L288.76324,-84.31348 L289.33307,-84.60948 L289.90234,-84.90796 L290.47116,-85.208954 L291.03943,-85.51232 L291.60727,-85.81818 L292.1746,-86.126396 L292.74152,-86.437065 L293.30795,-86.75009 L293.87396,-87.065475 L294.43958,-87.383194 L295.00476,-87.703186 L295.56958,-88.02556 L296.134,-88.3502 L296.6981,-88.67721 L297.26178,-89.00639 L297.8252,-89.33793 L298.38824,-89.67163 L298.951,-90.00761 L299.5135,-90.34587 L300.07565,-90.68626 L300.6376,-91.02893 L301.19928,-91.37377 L301.7607,-91.72083 L302.32193,-92.07007 L302.88293,-92.42142 L303.44376,-92.77501 L304.0044,-93.13072 L304.56485,-93.48859 L305.12515,-93.84857 L305.68536,-94.210785 L306.2454,-94.57502 L306.80536,-94.941414 L307.36517,-95.30992 L307.92496,-95.680565 L308.48468,-96.053314 L309.04434,-96.42813 L309.60397,-96.80513 L310.16357,-97.18411 L310.72314,-97.5652 L311.28278,-97.948425 L311.84238,-98.333664 L312.40204,-98.72098 L312.96173,-99.11038 L313.52148,-99.50178 L314.08136,-99.895355 L314.6413,-100.2909 L315.20135,-100.68847 L315.76154,-101.0881 L316.32184,-101.489746 L316.8823,-101.893456 L317.4429,-102.299095 L318.00372,-102.70688 L318.5647,-103.1166 L319.1259,-103.52828 L319.68735,-103.94207 L320.249,-104.35776 L320.81088,-104.77546 L321.37308,-105.195206 L321.93552,-105.61679 L322.49826,-106.04045 L323.0613,-106.46601 L323.6247,-106.89355 L324.1884,-107.32301 L324.75244,-107.75434 L325.31683,-108.187675 L325.88162,-108.62288 L326.4468,-109.06 L327.01236,-109.49898 L327.57837,-109.93985 L328.1448,-110.38268 L328.71167,-110.827225 L329.279,-111.273705 L329.84677,-111.721985 L330.41504,-112.17202 L330.9838,-112.623924 L331.55307,-113.077576 L332.12283,-113.533 L332.69318,-113.99023 L333.26404,-114.44914 L333.83548,-114.90976 L334.40747,-115.37213 L334.98007,-115.83619 L335.55322,-116.30181 L336.12704,-116.76919 L336.70142,-117.23811 L337.2765,-117.70868 L337.85214,-118.18077 L338.4285,-118.65449 L339.00552,-119.1297 L339.5832,-119.60635 L340.16156,-120.08456 L340.74063,-120.56416 L341.32043,-121.04521 L341.90097,-121.527725 L342.4822,-122.011475 L343.0642,-122.49666 L343.64697,-122.98313 L344.2305,-123.47083 L344.8148,-123.95979 L345.3999,-124.44994 L345.98575,-124.94123 L346.57245,-125.43368 L347.15997,-125.92721 L347.74832,-126.42185 L348.3375,-126.917465 L348.92752,-127.41406 L349.5184,-127.91159 L350.11014,-128.41005 L350.70276,-128.9093 L351.29623,-129.40936 L351.89066,-129.91025 L352.48593,-130.4118 L353.08215,-130.91403 L353.67926,-131.4169 L354.2773,-131.92032 L354.87625,-132.42422 L355.47614,-132.9286 L356.07703,-133.4335 L356.67883,-133.93866 L357.28156,-134.44412 L357.8853,-134.94992 L358.49002,-135.45587 L359.0957,-135.96188 L359.70236,-136.46805 L360.31003,-136.97427 L360.91867,-137.48036 L361.52835,-137.98643 L362.139,-138.49231 L362.75067,-138.99792 L363.36334,-139.50327 L363.97708,-140.00829 L364.59183,-140.51286 L365.20758,-141.01692 L365.8244,-141.52043 L366.44223,-142.02333 L367.0611,-142.52548 L367.681,-143.02687 L368.302,-143.52748 L368.924,-144.0271 L369.5471,-144.52579 L370.17117,-145.02333 L370.79636,-145.51978 L371.42258,-146.015 L372.04987,-146.50896 L372.67822,-147.00151 L373.30762,-147.49263 L373.93808,-147.98235 L374.56967,-148.4707 L375.20233,-148.95763 L375.83606,-149.44307 L376.47095,-149.92714 L377.10693,-150.4097 L377.74402,-150.89082 L378.3823,-151.3705 L379.02164,-151.84863 L379.66217,-152.32527 L380.30377,-152.80034 L380.9466,-153.2739 L381.5905,-153.7459 L382.2356,-154.21628 L382.88184,-154.68504 L383.52924,-155.15222 L384.17776,-155.61768 L384.82745,-156.08148 L385.4783,-156.54358 L386.13025,-157.00389 L386.7834,-157.4625 L387.43762,-157.91927 L388.09302,-158.37425 L388.7495,-158.82736 L389.40717,-159.27864 L390.0659,-159.72797 L390.7257,-160.17537 L391.38666,-160.62085 L392.04868,-161.06433 L392.71176,-161.50577 L393.37592,-161.94519 L394.0411,-162.38254 L394.7073,-162.81776 L395.37457,-163.25092 L396.04282,-163.68187 L396.71204,-164.11066 L397.38223,-164.53728 L398.05338,-164.96165 L398.72543,-165.38379 L399.3984,-165.80365 L400.07227,-166.22125 L400.747,-166.63655 L401.42258,-167.04953 L402.09897,-167.46017 L402.77615,-167.86852 L403.45407,-168.27444 L404.13272,-168.67805 L404.81207,-169.07927 L405.49213,-169.47815 L406.17282,-169.87465 L406.8541,-170.26878 L407.53598,-170.66055 L408.21838,-171.04996 L408.9013,-171.43704 L409.58466,-171.8218 L410.26846,-172.20422 L410.95267,-172.58438 L411.6372,-172.96228 L412.32202,-173.3379 L413.00714,-173.71136 L413.69247,-174.08266 L414.37793,-174.45181 L415.06357,-174.8189 L415.74924,-175.18394 L416.43497,-175.54703 L417.12067,-175.9082 L417.80627,-176.26752 L418.49173,-176.62505 L419.17703,-176.98088 L419.8621,-177.33508 L420.5468,-177.68773 L421.2312,-178.03896 L421.91516,-178.38881 L422.59866,-178.73743 L423.2816,-179.08487 L423.96393,-179.43132 L424.64557,-179.77682 L425.3265,-180.12157 L426.00662,-180.46565 L426.68585,-180.80922 L427.36414,-181.1524 L428.0414,-181.49538 L428.7176,-181.83829" fill="none" stroke="#8A489E" stroke-linejoin="round" stroke-width="2"/>
</g>
</g>
<g transform="translate(380, -340)">
<text font-size="12" text-anchor="start" x="0" y="0">
curvature error s=0.000
</text>
<line stroke="#8A489E" stroke-width="2" x1="-10" x2="-3" y1="-4" y2="-4"/>
</g>
<g>
<g>
<path d="M0.68570286,-0.016990922 L0.68570286,-0.016990922 L1.3714057,-0.03394707 L2.05704,-0.05094185 L2.7425385,-0.06805046 L3.4278355,-0.08533991 L4.1128654,-0.10288931 L4.7975645,-0.120749734 L5.4818697,-0.13897443 L6.16572,-0.15760945 L6.8490543,-0.17670316 L7.5318136,-0.19627663 L8.213939,-0.21637416 L8.895373,-0.23700295 L9.57606,-0.2581837 L10.255946,-0.27994058 L10.934975,-0.30227122 L11.613095,-0.32516748 L12.290256,-0.3486452 L12.966404,-0.37268406 L13.641492,-0.39727885 L14.315471,-0.4223982 L14.988294,-0.44803703 L15.659912,-0.47416335 L16.330282,-0.5007414 L16.999361,-0.527731 L17.667103,-0.55511767 L18.333467,-0.5828425 L18.998415,-0.6108628 L19.6619,-0.6391196 L20.323889,-0.6675859 L20.984343,-0.69619566 L21.64322,-0.724882 L22.300495,-0.75359744 L22.956123,-0.78226596 L23.610071,-0.81083155 L24.26231,-0.8392296 L24.912807,-0.8673876 L25.561531,-0.8952352 L26.20845,-0.92269367 L26.853537,-0.9497012 L27.496761,-0.97615737 L28.138102,-1.0020058 L28.777523,-1.0271617 L29.415009,-1.0515484 L30.050528,-1.0750687 L30.684063,-1.0976652 L31.315584,-1.1192272 L31.945074,-1.1396941 L32.572514,-1.1589713 L33.19788,-1.1769836 L33.821156,-1.1936365 L34.442318,-1.2088504 L35.06136,-1.2225388 L35.678253,-1.2346104 L36.292988,-1.2449955 L36.905552,-1.253604 L37.515923,-1.2603503 L38.1241,-1.2651596 L38.73006,-1.2679307 L39.333794,-1.2685932 L39.93529,-1.2670721 L40.534546,-1.2632827 L41.131542,-1.257135 L41.726273,-1.2485654 L42.31874,-1.2374963 L42.908924,-1.2238388 L43.49682,-1.207521 L44.082428,-1.1884893 L44.66574,-1.1666471 L45.246754,-1.1419307 L45.825466,-1.1142836 L46.401867,-1.0836179 L46.975967,-1.0498755 L47.547752,-1.0130074 L48.117226,-0.9729148 L48.684395,-0.92958087 L49.249252,-0.88291305 L49.8118,-0.83287036 L50.37204,-0.779383 L50.929974,-0.72240967 L51.485607,-0.6618973 L52.03894,-0.5977874 L52.589985,-0.5300436 L53.138737,-0.45861435 L53.685204,-0.38344976 L54.22939,-0.30451164 L54.77131,-0.22176784 L55.310963,-0.13517377 L55.848354,-0.044679064 L56.383495,-0.04973549 L56.91639,-0.14813699 L57.447044,-0.25055578 L57.97547,-0.35700262 L58.50168,-0.4675344 L59.02567,-0.5821733 L59.54746,-0.7009447 L60.06706,-0.8238821 L60.58447,-0.95100224 L61.099712,-1.0823371 L61.612797,-1.2178942 L62.12373,-1.357697 L62.632526,-1.5017594 L63.139194,-1.6501032 L63.643757,-1.8027202 L64.14622,-1.9596568 L64.6466,-2.1208806 L65.144905,-2.2864282 L65.64115,-2.4562798 L66.13537,-2.630451 L66.62755,-2.808947 L67.11772,-2.99174 L67.605896,-3.1788626 L68.0921,-3.3702729 L68.57633,-3.5659993 L69.058624,-3.765988 L69.538994,-3.970266 L70.01745,-4.1788054 L70.49401,-4.391584 L70.9687,-4.6086025 L71.441536,-4.829814 L71.91252,-5.055233 L72.38171,-5.2847953 L72.84908,-5.518518 L73.314674,-5.7563686 L73.77853,-5.9982796 L74.240616,-6.244279 L74.701004,-6.4942822 L75.15968,-6.7483044 L75.6167,-7.0062685 L76.072044,-7.2681856 L76.52576,-7.53398 L76.97787,-7.803614 L77.428375,-8.077068 L77.87732,-8.354295 L78.32472,-8.635246 L78.77059,-8.919886 L79.214966,-9.208156 L79.65786,-9.500013 L80.0993,-9.795414 L80.53931,-10.094305 L80.97791,-10.3966255 L81.41512,-10.702351 L81.85098,-11.011398 L82.2855,-11.323736 L82.718704,-11.639284 L83.15063,-11.957992 L83.58128,-12.279813 L84.010704,-12.604697 L84.43892,-12.932534 L84.86593,-13.263334 L85.29179,-13.596972 L85.71651,-13.933405 L86.140114,-14.272593 L86.56264,-14.614431 L86.9841,-14.958878 L87.404526,-15.305848 L87.823944,-15.655297 L88.242386,-16.007141 L88.65987,-16.361311 L89.07642,-16.717724 L89.49207,-17.076332 L89.906845,-17.437048 L90.32078,-17.799782 L90.73388,-18.164505 L91.146194,-18.531094 L91.55773,-18.899515 L91.96853,-19.269659 L92.378624,-19.641455 L92.78802,-20.014853 L93.19676,-20.38974 L93.60487,-20.766047 L94.01238,-21.143702 L94.41931,-21.522633 L94.82568,-21.902744 L95.23155,-22.283945 L95.63692,-22.666183 L96.041824,-23.049341 L96.44629,-23.43339 L96.85034,-23.818192 L97.25402,-24.203691 L97.65734,-24.589798 L98.06033,-24.97643 L98.463036,-25.3635 L98.86547,-25.750927 L99.26766,-26.138615 L99.66964,-26.52651 L100.07143,-26.914494 L100.47307,-27.302492 L100.87457,-27.690428 L101.275986,-28.078203 L101.67733,-28.46572 L102.07863,-28.852922 L102.47991,-29.239687 L102.88121,-29.625969 L103.28254,-30.011707 L103.683914,-30.396858 L104.08536,-30.781378 L104.48689,-31.165184 L104.88854,-31.548258 L105.29032,-31.930529 L105.69225,-32.311935 L106.09436,-32.69244 L106.49665,-33.071995 L106.89916,-33.45052 L107.301895,-33.82801 L107.704895,-34.204365 L108.10815,-34.57958 L108.51171,-34.95355 L108.91558,-35.326256 L109.31978,-35.697655 L109.72433,-36.06768 L110.12925,-36.436275 L110.53457,-36.803394 L110.9403,-37.16898 L111.34646,-37.533 L111.753075,-37.895382 L112.16016,-38.2561 L112.56773,-38.615093 L112.97582,-38.972305 L113.38444,-39.32769 L113.79361,-39.681206 L114.20335,-40.032795 L114.61368,-40.382412 L115.02461,-40.730003 L115.43618,-41.075546 L115.8484,-41.41896 L116.26128,-41.760227 L116.674835,-42.099285 L117.08911,-42.43608 L117.50411,-42.770588 L117.91985,-43.102737 L118.33636,-43.432526 L118.75365,-43.759857 L119.17174,-44.084732 L119.590645,-44.407078 L120.01039,-44.72688 L120.43099,-45.04408 L120.85248,-45.358616 L121.27485,-45.670498 L121.69814,-45.979637 L122.12235,-46.28603 L122.54753,-46.58961 L122.973656,-46.890373 L123.40079,-47.188248 L123.8289,-47.48322 L124.25806,-47.775227 L124.68825,-48.064274 L125.11949,-48.350304 L125.55182,-48.633266 L125.98523,-48.91317 L126.419754,-49.18995 L126.8554,-49.46359 L127.2922,-49.734055 L127.730156,-50.001328 L128.1693,-50.265347 L128.60963,-50.52614 L129.05118,-50.783615 L129.49396,-51.03781 L129.93797,-51.288666 L130.38327,-51.536156 L130.82983,-51.780262 L131.27768,-52.020985 L131.72685,-52.258278 L132.17735,-52.49213 L132.6292,-52.72254 L133.0824,-52.94945 L133.53696,-53.17289 L133.99294,-53.39281 L134.45029,-53.609226 L134.90907,-53.822105 L135.3693,-54.03143 L135.83098,-54.237206 L136.29411,-54.439426 L136.75871,-54.638077 L137.22482,-54.83314 L137.69243,-55.02465 L138.16158,-55.212547 L138.63223,-55.396873 L139.10448,-55.57758 L139.57825,-55.75475 L140.05359,-55.9283 L140.53053,-56.098286 L141.0091,-56.26465 L141.48924,-56.4275 L141.97104,-56.58673 L142.45445,-56.742462 L142.93953,-56.894596 L143.42627,-57.043217 L143.91469,-57.188297 L144.40479,-57.329876 L144.89659,-57.467957 L145.39009,-57.602577 L145.88531,-57.733753 L146.38228,-57.861443 L146.88098,-57.98574 L147.38141,-58.106693 L147.88362,-58.224224 L148.3876,-58.338432 L148.89336,-58.449383 L149.40092,-58.55696 L149.91031,-58.661148 L150.42154,-58.761955 L150.93466,-58.859245 L151.44966,-58.953064 L151.96658,-59.04333 L152.48547,-59.129974 L153.00632,-59.21306 L153.52916,-59.29245 L154.05402,-59.368176 L154.5809,-59.440197 L155.10983,-59.508522 L155.64085,-59.573063 L156.17395,-59.633865 L156.70917,-59.690907 L157.24652,-59.744102 L157.78601,-59.793514 L158.32765,-59.83912 L158.87149,-59.880882 L159.41751,-59.91884 L159.96574,-59.952953 L160.51619,-59.983265 L161.0689,-60.00972 L161.62381,-60.032394 L162.18102,-60.05124 L162.74048,-60.06629 L163.30222,-60.07757 L163.86627,-60.085033 L164.4326,-60.088787 L165.00124,-60.08881 L165.57219,-60.085133 L166.14548,-60.077732 L166.72105,-60.06671 L167.29898,-60.052055 L167.87926,-60.033794 L168.46184,-60.011993 L169.04678,-59.986645 L169.63406,-59.957806 L170.22366,-59.925545 L170.81561,-59.88986 L171.40988,-59.850815 L172.0065,-59.808456 L172.60545,-59.76281 L173.20671,-59.713966 L173.81029,-59.661934 L174.41618,-59.60678 L175.02437,-59.548584 L175.63486,-59.487347 L176.24763,-59.423164 L176.86267,-59.356087 L177.47998,-59.286133 L178.09953,-59.213432 L178.7213,-59.137993 L179.34528,-59.059917 L179.97147,-58.97921 L180.59985,-58.895966 L181.23038,-58.81025 L181.86305,-58.7221 L182.49783,-58.631603 L183.1347,-58.53884 L183.77365,-58.443806 L184.41466,-58.346622 L185.05766,-58.247307 L185.70265,-58.145985 L186.34962,-58.042633 L186.9985,-57.937366 L187.64929,-57.8302 L188.30194,-57.721237 L188.9564,-57.610508 L189.61267,-57.49806 L190.27069,-57.38394 L190.93044,-57.26822 L191.59183,-57.150936 L192.25487,-57.032124 L192.91948,-56.91185 L193.58566,-56.790096 L194.25333,-56.666954 L194.92242,-56.542454 L195.59294,-56.416595 L196.2648,-56.289402 L196.93794,-56.160946 L197.61234,-56.03118 L198.28792,-55.900173 L198.96463,-55.76789 L199.64241,-55.63424 L200.3212,-55.499477 L201.0009,-55.36381 L201.68149,-55.227497 L202.36284,-55.090775 L203.0449,-54.95386 L203.72763,-54.816967 L204.41092,-54.680317 L205.09474,-54.54409 L205.77899,-54.408512 L206.46364,-54.27376 L207.1486,-54.140038 L207.83385,-54.007492 L208.51929,-53.876305 L209.20486,-53.746647 L209.89055,-53.61867 L210.57625,-53.49254 L211.26193,-53.368385 L211.94757,-53.246353 L212.63307,-53.126575 L213.31839,-53.009193 L214.00351,-52.89431 L214.68835,-52.782066 L215.3729,-52.672535 L216.05705,-52.565872 L216.74081,-52.46213 L217.42415,-52.361435 L218.107,-52.26387 L218.7893,-52.169525 L219.47107,-52.078476 L220.15222,-51.990803 L220.83273,-51.906567 L221.51259,-51.825848 L222.19174,-51.74871 L222.87015,-51.6752 L223.54778,-51.605404 L224.22461,-51.539333 L224.90062,-51.47704 L225.57578,-51.418583 L226.25003,-51.36402 L226.92339,-51.31336 L227.59583,-51.266644 L228.26729,-51.22391 L228.93777,-51.185177 L229.60725,-51.150494 L230.27573,-51.119843 L230.94316,-51.093292 L231.60951,-51.070827 L232.27481,-51.052464 L232.939,-51.03823 L233.60208,-51.028133 L234.26404,-51.022167 L234.92485,-51.020374 L235.58453,-51.02272 L236.24304,-51.02925 L236.90039,-51.03997 L237.55653,-51.05482 L238.2115,-51.073864 L238.86526,-51.09709 L239.51782,-51.124485 L240.16917,-51.15603 L240.8193,-51.19177 L241.46822,-51.23166 L242.1159,-51.275723 L242.76234,-51.32393 L243.40756,-51.376297 L244.05154,-51.43282 L244.6943,-51.493484 L245.33583,-51.558292 L245.9761,-51.627235 L246.61516,-51.700294 L247.25299,-51.777493 L247.88959,-51.858818 L248.52496,-51.94423 L249.15913,-52.03378 L249.79207,-52.12743 L250.42381,-52.2252 L251.05435,-52.32706 L251.68372,-52.433056 L252.31186,-52.543114 L252.93886,-52.657295 L253.56467,-52.775547 L254.18932,-52.89792 L254.81282,-53.024403 L255.4352,-53.155003 L256.05643,-53.289726 L256.67657,-53.428547 L257.29556,-53.571415 L257.91348,-53.718254 L258.53024,-53.868973 L259.1459,-54.023563 L259.76047,-54.181934 L260.37393,-54.34399 L260.98627,-54.5097 L261.59753,-54.679047 L262.2077,-54.85191 L262.81674,-55.028214 L263.42474,-55.207966 L264.03165,-55.391045 L264.63745,-55.577404 L265.24222,-55.76703 L265.8459,-55.959793 L266.44852,-56.155704 L267.05008,-56.354675 L267.65057,-56.556618 L268.25006,-56.76155 L268.84845,-56.969337 L269.44586,-57.179996 L270.04224,-57.393433 L270.63757,-57.609608 L271.23193,-57.82848 L271.82526,-58.049942 L272.4176,-58.274036 L273.00894,-58.50061 L273.5993,-58.7297 L274.1887,-58.961235 L274.77713,-59.195145 L275.3646,-59.43141 L275.9511,-59.669968 L276.5367,-59.910763 L277.12137,-60.1538 L277.70508,-60.398945 L278.2879,-60.64628 L278.8698,-60.895676 L279.45087,-61.147133 L280.03098,-61.400536 L280.61023,-61.655945 L281.18866,-61.913315 L281.76624,-62.172585 L282.3429,-62.433628 L282.91882,-62.69659 L283.49387,-62.96128 L284.0681,-63.227787 L284.64157,-63.49598 L285.21423,-63.76586 L285.7861,-64.03741 L286.3572,-64.31053 L286.92758,-64.58534 L287.4972,-64.86171 L288.0661,-65.13964 L288.63428,-65.419106 L289.20175,-65.700035 L289.7685,-65.982376 L290.3346,-66.26624 L290.90002,-66.55157 L291.46478,-66.83823 L292.0289,-67.126335 L292.59238,-67.41576 L293.15524,-67.70658 L293.7175,-67.998634 L294.27917,-68.29207 L294.84024,-68.586784 L295.4008,-68.88279 L295.96072,-69.17997 L296.52014,-69.47844 L297.07904,-69.77814 L297.63742,-70.07903 L298.1953,-70.38115 L298.7527,-70.68444 L299.30963,-70.98894 L299.8661,-71.29461 L300.4221,-71.60132 L300.9777,-71.909256 L301.53287,-72.218315 L302.08765,-72.52852 L302.64197,-72.839745 L303.196,-73.15221 L303.74963,-73.465675 L304.30292,-73.780205 L304.8559,-74.0959 L305.40854,-74.41267 L305.96088,-74.730446 L306.51294,-75.049355 L307.0647,-75.36926 L307.6162,-75.69024 L308.16748,-76.01231 L308.71854,-76.33542 L309.26935,-76.659546 L309.81998,-76.98473 L310.37042,-77.31092 L310.9207,-77.638176 L311.47076,-77.96645 L312.02075,-78.29579 L312.5706,-78.626144 L313.12033,-78.95756 L313.66998,-79.28999 L314.2195,-79.62342 L314.76898,-79.957886 L315.31842,-80.293335 L315.8678,-80.62982 L316.41718,-80.967384 L316.96652,-81.30592 L317.5159,-81.64552 L318.06528,-81.98611 L318.6147,-82.32769 L319.16418,-82.670334 L319.7137,-83.01399 L320.26337,-83.358696 L320.81308,-83.704346 L321.3629,-84.05107 L321.91287,-84.39881 L322.46298,-84.74754 L323.0132,-85.09723 L323.56366,-85.44798 L324.11426,-85.79979 L324.6651,-86.15258 L325.2161,-86.50633 L325.76736,-86.86109 L326.31885,-87.216896 L326.87064,-87.57371 L327.42267,-87.93149 L327.97498,-88.290276 L328.5276,-88.650024 L329.08054,-89.01079 L329.63382,-89.37253 L330.18744,-89.735275 L330.74142,-90.098915 L331.29578,-90.46356 L331.85052,-90.82918 L332.40564,-91.195724 L332.9612,-91.56324 L333.51718,-91.93168 L334.07364,-92.30108 L334.63055,-92.6714 L335.1879,-93.0426 L335.74576,-93.41472 L336.30408,-93.787704 L336.86295,-94.1616 L337.42233,-94.536354 L337.9823,-94.91201 L338.5428,-95.28851 L339.10382,-95.66575 L339.66547,-96.04389 L340.2277,-96.42284 L340.7905,-96.80253 L341.35394,-97.18299 L341.91803,-97.56427 L342.48276,-97.94623 L343.04813,-98.328896 L343.6142,-98.7123 L344.18094,-99.0964 L344.74832,-99.48106 L345.31647,-99.86646 L345.8853,-100.25241 L346.4549,-100.63899 L347.0252,-101.026085 L347.59628,-101.41372 L348.16812,-101.80191 L348.74075,-102.190605 L349.31412,-102.57967 L349.88834,-102.96922 L350.46335,-103.35918 L351.03918,-103.7495 L351.61584,-104.14012 L352.19333,-104.53106 L352.77167,-104.92227 L353.35092,-105.31376 L353.931,-105.70539 L354.51196,-106.09719 L355.09384,-106.48916 L355.6766,-106.881165 L356.2603,-107.27323 L356.8449,-107.66529 L357.43042,-108.05728 L358.01688,-108.4492 L358.60428,-108.841 L359.19266,-109.2327 L359.782,-109.62413 L360.37228,-110.01524 L360.9636,-110.40612 L361.55588,-110.79662 L362.14914,-111.186676 L362.7434,-111.576294 L363.33868,-111.9654 L363.93503,-112.354 L364.53235,-112.74188 L365.1307,-113.12912 L365.73013,-113.51565 L366.33057,-113.90138 L366.93207,-114.28627 L367.53464,-114.67023 L368.13824,-115.05325 L368.74292,-115.4352 L369.3487,-115.816086 L369.9555,-116.19582 L370.56342,-116.57433 L371.17245,-116.95162 L371.78253,-117.32754 L372.39374,-117.70201 L373.006,-118.075035 L373.6194,-118.44647 L374.2339,-118.81637 L374.8495,-119.18453 L375.4662,-119.55094 L376.084,-119.91553 L376.70297,-120.27827 L377.32303,-120.63897 L377.9442,-120.997665 L378.5665,-121.35426 L379.18994,-121.7088 L379.8145,-122.06127 L380.44025,-122.411644 L381.0672,-122.76 L381.69528,-123.106224 L382.32455,-123.45033 L382.95502,-123.79237 L383.5867,-124.13231 L384.21954,-124.47008 L384.85367,-124.80575 L385.48895,-125.13926 L386.1255,-125.47059 L386.76324,-125.79976 L387.40222,-126.12669 L388.04245,-126.45144 L388.6839,-126.77396 L389.32657,-127.09419 L389.97046,-127.41216 L390.61563,-127.72785 L391.262,-128.0412 L391.90964,-128.35226 L392.55844,-128.6609 L393.2085,-128.96721 L393.85977,-129.27109 L394.51227,-129.57259 L395.16595,-129.8716 L395.82086,-130.16815 L396.47693,-130.4622 L397.13422,-130.75377 L397.79263,-131.04277 L398.45224,-131.32924 L399.113,-131.61313 L399.7749,-131.89442 L400.43793,-132.17313 L401.10205,-132.44917 L401.76727,-132.72258 L402.43353,-132.9933 L403.10092,-133.26138 L403.76935,-133.52675 L404.43875,-133.7894 L405.1092,-134.04933 L405.78058,-134.30655 L406.45297,-134.56107 L407.12628,-134.8128 L407.80048,-135.0618 L408.4756,-135.30807 L409.15152,-135.5516 L409.82834,-135.79242 L410.50592,-136.0305 L411.1843,-136.26587 L411.86337,-136.49852 L412.54318,-136.72849 L413.22366,-136.95578 L413.9048,-137.18042 L414.58652,-137.40247 L415.2688,-137.62189 L415.9516,-137.83876 L416.63492,-138.05313 L417.31866,-138.265 L418.0028,-138.47444 L418.6873,-138.68147 L419.37213,-138.8862 L420.05722,-139.08864 L420.74255,-139.28888 L421.42804,-139.48697 L422.11365,-139.683 L422.79935,-139.87704 L423.48505,-140.06917 L424.17075,-140.25948 L424.85632,-140.44806 L425.54178,-140.63504 L426.22702,-140.82048 L426.912,-141.00453 L427.59668,-141.18729 L428.28094,-141.36888 L428.9648,-141.54944 L429.64813,-141.72911 L430.33087,-141.908 L431.01297,-142.0863 L431.6944,-142.26416 L432.37503,-142.44173 L433.05478,-142.61916 L433.73364,-142.79665" fill="none" stroke="#D719A5" stroke-linejoin="round" stroke-width="2"/>
</g>
</g>
<g transform="translate(380, -322)">
<text font-size="12" text-anchor="start" x="0" y="0">
curvature error s=0.852
</text>
<line stroke="#D719A5" stroke-width="2" x1="-10" x2="-3" y1="-4" y2="-4"/>
</g>
<g>
<g>
<path d="M0.68570286,-0.016990922 L0.68570286,-0.016990922 L1.3714057,-0.033936936 L2.05704,-0.050921585 L2.742539,-0.06808091 L3.4278376,-0.08549216 L4.1128716,-0.10327531 L4.797579,-0.12150204 L5.4818983,-0.14026697 L6.1657705,-0.15964726 L6.8491373,-0.17971279 L7.531942,-0.20052673 L8.214129,-0.2221558 L8.895647,-0.24464984 L9.576441,-0.26805246 L10.256461,-0.29242188 L10.9356575,-0.31779993 L11.613983,-0.3442031 L12.291389,-0.37168184 L12.9678335,-0.40025282 L13.6432705,-0.42992646 L14.3176565,-0.46073905 L14.990951,-0.4927025 L15.663115,-0.52581424 L16.334108,-0.5600875 L17.003895,-0.59552217 L17.67244,-0.6321238 L18.339705,-0.6698753 L19.005661,-0.70878667 L19.670273,-0.74884236 L20.33351,-0.79001576 L20.995342,-0.8323203 L21.655745,-0.8757124 L22.314688,-0.92017895 L22.972145,-0.9657037 L23.62809,-1.0122677 L24.282503,-1.0598357 L24.935358,-1.1083819 L25.586637,-1.1578885 L26.236319,-1.2083205 L26.88438,-1.2596321 L27.530811,-1.311822 L28.175587,-1.3648312 L28.818695,-1.4186351 L29.460123,-1.4732078 L30.099855,-1.5285043 L30.737879,-1.5844941 L31.374182,-1.6411446 L32.00875,-1.6984155 L32.641586,-1.7562772 L33.27267,-1.8146881 L33.901997,-1.8736202 L34.529564,-1.9330356 L35.155357,-1.9929008 L35.77938,-2.053175 L36.401627,-2.113827 L37.02209,-2.1748312 L37.640774,-2.236157 L38.257675,-2.2977688 L38.87279,-2.3596373 L39.486126,-2.4217227 L40.09768,-2.4840117 L40.70745,-2.5464766 L41.31545,-2.609075 L41.92167,-2.6718013 L42.526127,-2.7346256 L43.128822,-2.797524 L43.72976,-2.8604734 L44.328953,-2.923474 L44.9264,-2.9864783 L45.522114,-3.049489 L46.1161,-3.1124835 L46.708378,-3.1754568 L47.298946,-3.2383928 L47.887825,-3.3012924 L48.47502,-3.3641317 L49.060555,-3.426915 L49.64443,-3.4896414 L50.22666,-3.5522916 L50.807262,-3.6148877 L51.386257,-3.6774137 L51.96365,-3.7398815 L52.539463,-3.8023021 L53.113712,-3.8646746 L53.686413,-3.9270058 L54.257584,-3.989312 L54.827248,-4.0516043 L55.395416,-4.1139297 L55.962112,-4.176255 L56.527336,-4.238527 L57.091095,-4.300679 L57.653393,-4.3626633 L58.214233,-4.4244156 L58.773636,-4.485912 L59.331596,-4.547073 L59.888123,-4.607862 L60.443226,-4.668237 L60.99691,-4.728134 L61.54919,-4.7875333 L62.100067,-4.846362 L62.64955,-4.904596 L63.197655,-4.9621797 L63.74438,-5.019084 L64.28974,-5.0752654 L64.83375,-5.130693 L65.3764,-5.1853204 L65.917725,-5.23911 L66.45772,-5.2920423 L66.99639,-5.3440723 L67.53377,-5.395167 L68.06983,-5.445303 L68.60462,-5.4944544 L69.13813,-5.542576 L69.67038,-5.5896616 L70.20138,-5.6356845 L70.73113,-5.6806073 L71.25965,-5.7244043 L71.786964,-5.767086 L72.313065,-5.8085914 L72.837975,-5.8489356 L73.361694,-5.8880672 L73.88425,-5.9259844 L74.405655,-5.962695 L74.92591,-5.9981523 L75.44503,-6.032348 L75.963036,-6.065294 L76.479935,-6.096946 L76.99574,-6.127317 L77.510475,-6.156395 L78.02414,-6.1841707 L78.53676,-6.2106295 L79.04833,-6.235769 L79.55889,-6.2596083 L80.068436,-6.282103 L80.576996,-6.3033 L81.084564,-6.3231516 L81.59117,-6.3416758 L82.096825,-6.358887 L82.60154,-6.3747625 L83.10533,-6.3893194 L83.60823,-6.402569 L84.11023,-6.414511 L84.61135,-6.4251366 L85.11162,-6.434465 L85.61104,-6.4425073 L86.10962,-6.449262 L86.60739,-6.454733 L87.10437,-6.4589567 L87.600555,-6.4619203 L88.09598,-6.4636383 L88.59066,-6.464147 L89.084595,-6.4634194 L89.57782,-6.4615126 L90.070335,-6.458396 L90.562164,-6.4541235 L91.05332,-6.44868 L91.54383,-6.4421163 L92.03371,-6.434434 L92.52296,-6.425645 L93.011604,-6.415772 L93.499664,-6.4048285 L93.98715,-6.3928604 L94.47409,-6.37986 L94.96049,-6.3658543 L95.44637,-6.3508773 L95.93176,-6.3349514 L96.41666,-6.318082 L96.901085,-6.300305 L97.38506,-6.281644 L97.8686,-6.262101 L98.35173,-6.24174 L98.83446,-6.22056 L99.3168,-6.1986074 L99.79879,-6.1758847 L100.280426,-6.1524167 L100.761734,-6.128264 L101.24274,-6.1034117 L101.72344,-6.077925 L102.203865,-6.051788 L102.68404,-6.0250654 L103.16397,-5.997783 L103.64367,-5.9699445 L104.12318,-5.941614 L104.60249,-5.9127803 L105.08163,-5.8834853 L105.56062,-5.853778 L106.03948,-5.8236804 L106.51822,-5.7932005 L106.99687,-5.7624044 L107.47543,-5.731277 L107.95393,-5.699885 L108.43239,-5.6682334 L108.91081,-5.6363697 L109.38924,-5.6043096 L109.86766,-5.5720973 L110.34612,-5.539796 L110.82465,-5.507489 L111.30327,-5.47524 L111.782,-5.443112 L112.26086,-5.4111476 L112.73988,-5.3794303 L113.2191,-5.3480234 L113.698524,-5.316989 L114.178185,-5.2863884 L114.65811,-5.2562866 L115.13832,-5.226744 L115.61885,-5.197843 L116.09971,-5.169605 L116.580925,-5.1421103 L117.06253,-5.115441 L117.54454,-5.0896177 L118.02699,-5.064741 L118.509895,-5.0408516 L118.993286,-5.0180073 L119.47719,-4.996269 L119.96162,-4.9756966 L120.446594,-4.956346 L120.93216,-4.9382763 L121.41832,-4.921525 L121.90512,-4.906193 L122.39257,-4.89229 L122.880684,-4.8798785 L123.3695,-4.8690295 L123.85905,-4.859801 L124.34933,-4.852208 L124.840385,-4.846343 L125.33223,-4.8422213 L125.82489,-4.8399153 L126.31838,-4.839455 L126.81274,-4.840893 L127.307976,-4.844302 L127.804115,-4.849692 L128.30118,-4.8571105 L128.7992,-4.8666096 L129.29819,-4.8782554 L129.79817,-4.8920403 L130.29916,-4.908041 L130.80121,-4.9262915 L131.30429,-4.9467955 L131.80846,-4.9696364 L132.31372,-4.9948206 L132.8201,-5.022386 L133.32764,-5.052379 L133.83632,-5.0848026 L134.34618,-5.11971 L134.85725,-5.1571302 L135.36954,-5.1970754 L135.88307,-5.2395806 L136.39786,-5.284672 L136.91393,-5.332357 L137.43127,-5.3826766 L137.94997,-5.4356427 L138.46997,-5.4912553 L138.99133,-5.5495863 L139.51405,-5.610553 L140.03818,-5.6742687 L140.5637,-5.740712 L141.09067,-5.809884 L141.61903,-5.88176 L142.14888,-5.956416 L142.68018,-6.0337925 L143.21298,-6.113962 L143.74727,-6.196853 L144.28308,-6.2825093 L144.82043,-6.3709264 L145.35934,-6.462109 L145.8998,-6.5560207 L146.44183,-6.652692 L146.98544,-6.75206 L147.53067,-6.8541703 L148.07753,-6.9590006 L148.62599,-7.0665073 L149.1761,-7.1767125 L149.72786,-7.2895455 L150.2813,-7.405058 L150.8364,-7.523167 L151.39319,-7.643874 L151.95168,-7.76717 L152.51187,-7.8929896 L153.07376,-8.021331 L153.6374,-8.152167 L154.20277,-8.285462 L154.7699,-8.421186 L155.33875,-8.5592575 L155.90936,-8.699696 L156.48175,-8.842437 L157.05592,-8.987466 L157.63185,-9.134696 L158.20958,-9.284131 L158.7891,-9.435679 L159.3704,-9.589322 L159.95349,-9.744978 L160.5384,-9.902633 L161.12512,-10.062241 L161.71365,-10.2237 L162.30397,-10.386952 L162.89612,-10.552009 L163.49008,-10.718761 L164.08585,-10.887133 L164.68344,-11.057109 L165.28285,-11.228609 L165.88408,-11.401563 L166.4871,-11.575925 L167.09196,-11.751623 L167.69861,-11.9285755 L168.3071,-12.106789 L168.91737,-12.286124 L169.52945,-12.466546 L170.14336,-12.648001 L170.75903,-12.830381 L171.3765,-13.013664 L171.99577,-13.197769 L172.61679,-13.382575 L173.2396,-13.56807 L173.86417,-13.754172 L174.4905,-13.940788 L175.11856,-14.127856 L175.74835,-14.315306 L176.37987,-14.503044 L177.0131,-14.691023 L177.64804,-14.87915 L178.28467,-15.067356 L178.92294,-15.255571 L179.56288,-15.443699 L180.20447,-15.63169 L180.8477,-15.819479 L181.49251,-16.00694 L182.13892,-16.194061 L182.78691,-16.380749 L183.43645,-16.566912 L184.08752,-16.752491 L184.74011,-16.93743 L185.39417,-17.121626 L186.04973,-17.30506 L186.70671,-17.487625 L187.36511,-17.669258 L188.0249,-17.849928 L188.68608,-18.02954 L189.3486,-18.208057 L190.01242,-18.385397 L190.67754,-18.561522 L191.34389,-18.736355 L192.01149,-18.909885 L192.68027,-19.08202 L193.35022,-19.252739 L194.0213,-19.421993 L194.69347,-19.589731 L195.3667,-19.755941 L196.04095,-19.920557 L196.71619,-20.08356 L197.39236,-20.24492 L198.06947,-20.404615 L198.74744,-20.562622 L199.42624,-20.71893 L200.10582,-20.873516 L200.78615,-21.02638 L201.46716,-21.177502 L202.14886,-21.326899 L202.83116,-21.474564 L203.514,-21.620508 L204.19739,-21.764744 L204.88124,-21.907293 L205.56549,-22.048164 L206.25014,-22.187405 L206.93507,-22.325043 L207.62029,-22.461102 L208.30568,-22.595636 L208.99127,-22.72871 L209.67694,-22.860346 L210.36264,-22.990637 L211.04832,-23.119625 L211.73396,-23.24741 L212.41945,-23.374033 L213.10474,-23.499619 L213.78976,-23.62423 L214.47447,-23.747978 L215.1588,-23.870958 L215.84268,-23.993275 L216.52605,-24.11507 L217.20882,-24.236446 L217.89095,-24.357529 L218.57236,-24.478466 L219.25299,-24.599403 L219.93274,-24.720478 L220.61157,-24.84195 L221.28938,-24.96379 L221.96616,-25.085938 L222.6418,-25.20836 L223.31627,-25.331018 L223.98952,-25.453876 L224.66148,-25.576921 L225.3321,-25.700129 L226.00136,-25.823492 L226.66917,-25.946981 L227.33551,-26.070606 L228.00034,-26.194368 L228.66356,-26.31826 L229.3252,-26.44229 L229.98518,-26.566473 L230.64348,-26.690813 L231.30002,-26.815334 L231.95482,-26.94005 L232.6078,-27.064995 L233.25894,-27.190187 L233.90822,-27.315659 L234.55559,-27.441422 L235.20102,-27.567541 L235.8445,-27.69401 L236.486,-27.820896 L237.12546,-27.948238 L237.7629,-28.076046 L238.39825,-28.204409 L239.03152,-28.333332 L239.66269,-28.462858 L240.29173,-28.593046 L240.91861,-28.723936 L241.54333,-28.855581 L242.16588,-28.98801 L242.78622,-29.121284 L243.40436,-29.255447 L244.02026,-29.390541 L244.63393,-29.526619 L245.24535,-29.663712 L245.85452,-29.801872 L246.46141,-29.941172 L247.06602,-30.08164 L247.66838,-30.223288 L248.26842,-30.36622 L248.8662,-30.510414 L249.46167,-30.655968 L250.05482,-30.802916 L250.6457,-30.951254 L251.23427,-31.101078 L251.82056,-31.252373 L252.40453,-31.405207 L252.98622,-31.559608 L253.5656,-31.715631 L254.14268,-31.873281 L254.71751,-32.032578 L255.29004,-32.19359 L255.8603,-32.35632 L256.4283,-32.520775 L256.99405,-32.687008 L257.55756,-32.855038 L258.1188,-33.024883 L258.67783,-33.19656 L259.23462,-33.370083 L259.7892,-33.54547 L260.3416,-33.722725 L260.89185,-33.901863 L261.43994,-34.08288 L261.98584,-34.265797 L262.52963,-34.450623 L263.0713,-34.637337 L263.61084,-34.825962 L264.14832,-35.016468 L264.68372,-35.20889 L265.2171,-35.40317 L265.7484,-35.599373 L266.27774,-35.797405 L266.80505,-35.99729 L267.3304,-36.199005 L267.85385,-36.40254 L268.37534,-36.607864 L268.8949,-36.814987 L269.41263,-37.02383 L269.92847,-37.234413 L270.4425,-37.44668 L270.9547,-37.660618 L271.46515,-37.87614 L271.97382,-38.093277 L272.48074,-38.31206 L272.98593,-38.532505 L273.48938,-38.754707 L273.9911,-38.978645 L274.49112,-39.20434 L274.98944,-39.431885 L275.48602,-39.661285 L275.981,-39.892536 L276.47424,-40.125675 L276.96585,-40.36076 L277.4558,-40.597763 L277.94412,-40.836792 L278.43085,-41.077713 L278.91595,-41.32068 L279.3994,-41.565742 L279.88135,-41.81275 L280.36166,-42.06187 L280.84045,-42.31302 L281.3177,-42.566284 L281.7934,-42.821583 L282.26755,-43.07908 L282.7402,-43.33862 L283.2114,-43.600296 L283.6811,-43.864075 L284.14932,-44.129997 L284.6161,-44.39802 L285.08142,-44.66825 L285.54535,-44.94051 L286.00787,-45.21497 L286.46896,-45.49159 L286.9287,-45.770252 L287.3871,-46.051132 L287.84412,-46.334053 L288.29984,-46.619095 L288.75418,-46.9063 L289.20728,-47.19554 L289.65906,-47.48692 L290.1096,-47.78031 L290.5589,-48.075745 L291.0069,-48.373314 L291.4537,-48.672894 L291.89935,-48.97443 L292.34378,-49.278023 L292.78705,-49.58354 L293.22916,-49.89108 L293.6701,-50.20058 L294.10995,-50.511993 L294.5487,-50.825256 L294.9864,-51.14046 L295.42297,-51.457478 L295.85852,-51.776398 L296.29303,-52.09708 L296.72653,-52.419544 L297.15906,-52.74373 L297.59058,-53.069717 L298.02115,-53.397305 L298.45078,-53.726646 L298.87946,-54.05761 L299.30725,-54.3902 L299.73416,-54.724277 L300.1602,-55.06001 L300.5854,-55.39717 L301.00974,-55.735847 L301.43326,-56.075974 L301.85602,-56.417484 L302.27795,-56.76038 L302.69916,-57.104595 L303.11963,-57.450138 L303.53937,-57.796936 L303.9584,-58.144917 L304.37677,-58.49409 L304.7945,-58.844383 L305.21155,-59.195797 L305.628,-59.548264 L306.0438,-59.90178 L306.45905,-60.256203 L306.87372,-60.61161 L307.28784,-60.967926 L307.70142,-61.325077 L308.1145,-61.682983 L308.52713,-62.041653 L308.93924,-62.401085 L309.35092,-62.761127 L309.7622,-63.121777 L310.17303,-63.48304 L310.5835,-63.844833 L310.99356,-64.20716 L311.40332,-64.569786 L311.81268,-64.932945 L312.2218,-65.296326 L312.63058,-65.66008 L313.03912,-66.02398 L313.4474,-66.38817 L313.85547,-66.75242 L314.2633,-67.116806 L314.67093,-67.481255 L315.0784,-67.84568 L315.48572,-68.210075 L315.89294,-68.57429 L316.30002,-68.93839 L316.707,-69.30231 L317.11392,-69.665955 L317.52078,-70.029335 L317.9276,-70.39228 L318.33444,-70.75487 L318.74127,-71.11702 L319.14816,-71.47858 L319.55508,-71.839615 L319.96207,-72.20005 L320.3691,-72.55988 L320.77634,-72.91886 L321.18362,-73.27716 L321.59106,-73.63469 L321.99872,-73.99128 L322.40656,-74.34694 L322.81458,-74.70167 L323.22284,-75.055374 L323.63135,-75.40799 L324.04016,-75.75949 L324.44922,-76.10982 L324.85858,-76.458954 L325.2683,-76.80674 L325.67838,-77.15327 L326.0888,-77.498436 L326.4996,-77.842186 L326.91086,-78.18442 L327.3225,-78.52514 L327.73462,-78.864265 L328.14722,-79.2018 L328.56027,-79.53767 L328.97382,-79.87185 L329.3879,-80.204285 L329.80255,-80.53488 L330.21777,-80.86357 L330.63354,-81.19044 L331.04996,-81.51529 L331.46698,-81.838165 L331.8846,-82.15906 L332.30295,-82.4778 L332.72195,-82.794395 L333.14166,-83.10886 L333.56207,-83.42108 L333.98322,-83.73111 L334.40515,-84.03876 L334.82785,-84.344124 L335.25134,-84.64704 L335.67566,-84.947525 L336.10077,-85.24558 L336.52676,-85.541115 L336.95358,-85.83415 L337.38135,-86.124535 L337.80997,-86.41235 L338.23956,-86.69745 L338.67004,-86.97991 L339.10153,-87.25958 L339.53397,-87.53649 L339.9674,-87.81062 L340.40186,-88.081924 L340.83737,-88.35032 L341.2739,-88.61581 L341.7115,-88.878426 L342.1502,-89.138016 L342.58997,-89.39465 L343.03085,-89.64829 L343.4729,-89.898865 L343.91608,-90.14637 L344.36047,-90.39068 L344.806,-90.631966 L345.25275,-90.87009 L345.7007,-91.10505 L346.1499,-91.3368 L346.60037,-91.565285 L347.0521,-91.79059 L347.50507,-92.01265 L347.9594,-92.231346 L348.415,-92.446846 L348.87195,-92.65902 L349.33026,-92.86789 L349.78992,-93.07338 L350.25095,-93.27554 L350.71338,-93.47433 L351.17722,-93.66973 L351.6425,-93.8618 L352.10916,-94.050476 L352.5773,-94.23579 L353.0469,-94.417694 L353.51797,-94.596214 L353.99057,-94.77123 L354.46466,-94.942924 L354.94025,-95.11126 L355.4174,-95.27611 L355.89606,-95.437645 L356.3763,-95.595695 L356.85815,-95.75037 L357.34155,-95.901695 L357.82654,-96.04964 L358.31314,-96.19422 L358.8014,-96.33545 L359.29123,-96.47338 L359.78275,-96.60789 L360.2759,-96.7392 L360.77075,-96.86713 L361.26727,-96.99176 L361.7655,-97.11319 L362.2654,-97.23136 L362.76703,-97.34636 L363.27036,-97.45815 L363.77545,-97.56678 L364.28226,-97.67231 L364.79083,-97.77469 L365.30118,-97.874 L365.81326,-97.97025 L366.32718,-98.06338 L366.84293,-98.15333 L367.3605,-98.24003 L367.87997,-98.3235 L368.40137,-98.40363 L368.92465,-98.48051 L369.44992,-98.55398 L369.9771,-98.62408 L370.50632,-98.69075 L371.03754,-98.754036 L371.57077,-98.81385 L372.10605,-98.87018 L372.6434,-98.92303 L373.18283,-98.97235 L373.72437,-99.01818 L374.26804,-99.060486 L374.8138,-99.09928 L375.36172,-99.13457 L375.91183,-99.16628 L376.4641,-99.19445 L377.01862,-99.21908 L377.5753,-99.24023 L378.1342,-99.25783 L378.6953,-99.27194 L379.25864,-99.2826 L379.82425,-99.28975 L380.39212,-99.29338 L380.96225,-99.293655 L381.53464,-99.29048 L382.10934,-99.28388 L382.68628,-99.27399 L383.26553,-99.26067 L383.84708,-99.24413 L384.4309,-99.22427 L385.01706,-99.20118 L385.6055,-99.17486 L386.19623,-99.145424 L386.78928,-99.11279 L387.3846,-99.077156 L387.9822,-99.038475 L388.58215,-98.99674 L389.18436,-98.952095 L389.78885,-98.904564 L390.3956,-98.85419 L391.00464,-98.801025 L391.6159,-98.74512 L392.22943,-98.686516 L392.8452,-98.625275 L393.4632,-98.56148 L394.0834,-98.495186 L394.70584,-98.426384 L395.33044,-98.3552 L395.9572,-98.281654 L396.58612,-98.205864 L397.21713,-98.127846 L397.85028,-98.04764 L398.48553,-97.96534 L399.12283,-97.88101 L399.7622,-97.794655 L400.40356,-97.70641 L401.0469,-97.6163 L401.69223,-97.52438 L402.3395,-97.43068 L402.98865,-97.33531 L403.63968,-97.2383 L404.29257,-97.13967 L404.94727,-97.03952 L405.6037,-96.937904 L406.2619,-96.834816 L406.92175,-96.73035 L407.58328,-96.62452 L408.24646,-96.51737 L408.91116,-96.40899 L409.57745,-96.29934 L410.24515,-96.1885 L410.9143,-96.076515 L411.58487,-95.96334 L412.25677,-95.84905 L412.92993,-95.73368 L413.6043,-95.61722 L414.2799,-95.49965 L414.9566,-95.38106 L415.63437,-95.26135" fill="none" stroke="#3386D1" stroke-linejoin="round" stroke-width="2"/>
</g>
</g>
<g transform="translate(380, -304)">
<text font-size="12" text-anchor="start" x="0" y="0">
curvature error s=2.968
</text>
<line stroke="#3386D1" stroke-width="2" x1="-10" x2="-3" y1="-4" y2="-4"/>
</g>
<g>
<g>
<path d="M0.68570286,-0.016990922 L0.68570286,-0.016990922 L1.3714057,-0.033936936 L2.05704,-0.050921585 L2.742539,-0.06808091 L3.4278376,-0.08549216 L4.1128716,-0.10327531 L4.797579,-0.12150204 L5.4818983,-0.14026697 L6.1657705,-0.15964726 L6.8491373,-0.17971279 L7.531942,-0.20052673 L8.214129,-0.2221558 L8.895647,-0.24464984 L9.576441,-0.26805246 L10.256461,-0.29242188 L10.9356575,-0.31779993 L11.613983,-0.3442031 L12.291389,-0.37168184 L12.9678335,-0.40025282 L13.6432705,-0.42992646 L14.3176565,-0.46073905 L14.990951,-0.4927025 L15.663115,-0.52581424 L16.334108,-0.5600875 L17.003895,-0.59552217 L17.67244,-0.6321238 L18.339705,-0.6698753 L19.005661,-0.70878667 L19.670273,-0.74884236 L20.33351,-0.79001576 L20.995342,-0.8323203 L21.655745,-0.8757124 L22.314688,-0.92017895 L22.972145,-0.9657037 L23.62809,-1.0122677 L24.282503,-1.0598357 L24.935358,-1.1083819 L25.586637,-1.1578885 L26.236319,-1.2083205 L26.88438,-1.2596321 L27.530811,-1.311822 L28.175587,-1.3648312 L28.818695,-1.4186351 L29.460123,-1.4732078 L30.099855,-1.5285043 L30.737879,-1.5844941 L31.374182,-1.6411446 L32.00875,-1.6984155 L32.641586,-1.7562772 L33.27267,-1.8146881 L33.901997,-1.8736202 L34.529564,-1.9330356 L35.155357,-1.9929008 L35.77938,-2.053175 L36.401627,-2.113827 L37.02209,-2.1748312 L37.640774,-2.236157 L38.257675,-2.2977688 L38.87279,-2.3596373 L39.486126,-2.4217227 L40.09768,-2.4840117 L40.70745,-2.5464766 L41.31545,-2.609075 L41.92167,-2.6718013 L42.526127,-2.7346256 L43.128822,-2.797524 L43.72976,-2.8604734 L44.328953,-2.923474 L44.9264,-2.9864783 L45.522114,-3.049489 L46.1161,-3.1124835 L46.708378,-3.1754568 L47.298946,-3.2383928 L47.887825,-3.3012924 L48.47502,-3.3641317 L49.060555,-3.426915 L49.64443,-3.4896414 L50.22666,-3.5522916 L50.807262,-3.6148877 L51.386257,-3.6774137 L51.96365,-3.7398815 L52.539463,-3.8023021 L53.113712,-3.8646746 L53.686413,-3.9270058 L54.257584,-3.989312 L54.827248,-4.0516043 L55.395416,-4.1139297 L55.962112,-4.176255 L56.527336,-4.238527 L57.091095,-4.300679 L57.653393,-4.3626633 L58.214233,-4.4244156 L58.773636,-4.485912 L59.331596,-4.547073 L59.888123,-4.607862 L60.443226,-4.668237 L60.99691,-4.728134 L61.54919,-4.7875333 L62.100067,-4.846362 L62.64955,-4.904596 L63.197655,-4.9621797 L63.74438,-5.019084 L64.28974,-5.0752654 L64.83375,-5.130693 L65.3764,-5.1853204 L65.917725,-5.23911 L66.45772,-5.2920423 L66.99639,-5.3440723 L67.53377,-5.395167 L68.06983,-5.445303 L68.60462,-5.4944544 L69.13813,-5.542576 L69.67038,-5.5896616 L70.20138,-5.6356845 L70.73113,-5.6806073 L71.25965,-5.7244043 L71.786964,-5.767086 L72.313065,-5.8085914 L72.837975,-5.8489356 L73.361694,-5.8880672 L73.88425,-5.9259844 L74.405655,-5.962695 L74.92591,-5.9981523 L75.44503,-6.032348 L75.963036,-6.065294 L76.479935,-6.096946 L76.99574,-6.127317 L77.510475,-6.156395 L78.02414,-6.1841707 L78.53676,-6.2106295 L79.04833,-6.235769 L79.55889,-6.2596083 L80.068436,-6.282103 L80.576996,-6.3033 L81.084564,-6.3231516 L81.59117,-6.3416758 L82.096825,-6.358887 L82.60154,-6.3747625 L83.10533,-6.3893194 L83.60823,-6.402569 L84.11023,-6.414511 L84.61135,-6.4251366 L85.11162,-6.434465 L85.61104,-6.4425073 L86.10962,-6.449262 L86.60739,-6.454733 L87.10437,-6.4589567 L87.600555,-6.4619203 L88.09598,-6.4636383 L88.59066,-6.464147 L89.084595,-6.4634194 L89.57782,-6.4615126 L90.070335,-6.458396 L90.562164,-6.4541235 L91.05332,-6.44868 L91.54383,-6.4421163 L92.03371,-6.434434 L92.52296,-6.425645 L93.011604,-6.415772 L93.499664,-6.4048285 L93.98715,-6.3928604 L94.47409,-6.37986 L94.96049,-6.3658543 L95.44637,-6.3508773 L95.93176,-6.3349514 L96.41666,-6.318082 L96.901085,-6.300305 L97.38506,-6.281644 L97.8686,-6.262101 L98.35173,-6.24174 L98.83446,-6.22056 L99.3168,-6.1986074 L99.79879,-6.1758847 L100.280426,-6.1524167 L100.761734,-6.128264 L101.24274,-6.1034117 L101.72344,-6.077925 L102.203865,-6.051788 L102.68404,-6.0250654 L103.16397,-5.997783 L103.64367,-5.9699445 L104.12318,-5.941614 L104.60249,-5.9127803 L105.08163,-5.8834853 L105.56062,-5.853778 L106.03948,-5.8236804 L106.51822,-5.7932005 L106.99687,-5.7624044 L107.47543,-5.731277 L107.95393,-5.699885 L108.43239,-5.6682334 L108.91081,-5.6363697 L109.38924,-5.604318 L109.86766,-5.572106 L110.346115,-5.5397587 L110.824615,-5.5073223 L111.30318,-5.474803 L111.781815,-5.442246 L112.26057,-5.409697 L112.73942,-5.377143 L113.2184,-5.3446274 L113.69755,-5.312217 L114.176865,-5.2798967 L114.65636,-5.247692 L115.136055,-5.215667 L115.61598,-5.1838274 L116.09615,-5.152218 L116.57658,-5.1208415 L117.05727,-5.0897236 L117.53826,-5.058928 L118.01957,-5.028458 L118.50119,-4.9983177 L118.98318,-4.968589 L119.465515,-4.9392357 L119.948235,-4.9103203 L120.43135,-4.8818655 L120.91489,-4.8538923 L121.39886,-4.826421 L121.88327,-4.799458 L122.36816,-4.773059 L122.85354,-4.747246 L123.3394,-4.721998 L123.82579,-4.697378 L124.31272,-4.6734023 L124.8002,-4.650073 L125.288246,-4.6274233 L125.776886,-4.605476 L126.26612,-4.5842257 L126.75599,-4.563731 L127.24648,-4.5439696 L127.737625,-4.5249724 L128.22945,-4.5067596 L128.72195,-4.489345 L129.21516,-4.472742 L129.70908,-4.4569483 L130.20374,-4.442009 L130.69914,-4.4279065 L131.19533,-4.414665 L131.69228,-4.402304 L132.19005,-4.390827 L132.68861,-4.3802276 L133.18802,-4.3705363 L133.68826,-4.3617396 L134.18936,-4.3538537 L134.69135,-4.3468714 L135.19423,-4.340835 L135.698,-4.3357 L136.2027,-4.3315005 L136.70834,-4.3282375 L137.21492,-4.325873 L137.72249,-4.3244753 L138.23102,-4.3239636 L138.74054,-4.3243866 L139.25107,-4.3257337 L139.76262,-4.327978 L140.27522,-4.331155 L140.78886,-4.335224 L141.30359,-4.3402133 L141.81937,-4.3460608 L142.33626,-4.352786 L142.85423,-4.360362 L143.37334,-4.368805 L143.89357,-4.3780804 L144.41495,-4.388183 L144.93747,-4.399101 L145.46118,-4.4107866 L145.98605,-4.423246 L146.51213,-4.4364777 L147.03941,-4.4504275 L147.56792,-4.4651017 L148.09766,-4.4804573 L148.62862,-4.4964747 L149.16084,-4.5131187 L149.69434,-4.5303903 L150.2291,-4.548253 L150.76514,-4.566638 L151.30249,-4.585583 L151.84113,-4.604985 L152.38109,-4.624858 L152.9224,-4.6451917 L153.46503,-4.665881 L154.009,-4.686924 L154.55434,-4.7083087 L155.10104,-4.7299566 L155.64911,-4.7518425 L156.19856,-4.773908 L156.74942,-4.7961454 L157.30165,-4.818474 L157.85532,-4.8408923 L158.4104,-4.8633084 L158.9669,-4.885729 L159.52484,-4.9080486 L160.08421,-4.930233 L160.64502,-4.9522357 L161.20728,-4.973998 L161.77101,-4.995511 L162.33621,-5.016656 L162.90286,-5.037392 L163.47101,-5.057638 L164.04065,-5.0774794 L164.61182,-5.097038 L165.18456,-5.116404 L165.75893,-5.1357126 L166.33493,-5.1550465 L166.91261,-5.1745014 L167.49202,-5.194182 L168.07317,-5.2141943 L168.65607,-5.234559 L169.24077,-5.2554493 L169.82732,-5.276906 L170.41568,-5.298975 L171.00595,-5.321808 L171.59813,-5.3454256 L172.19221,-5.3699145 L172.78827,-5.39536 L173.38628,-5.4217925 L173.98628,-5.449296 L174.58829,-5.4779344 L175.19232,-5.5077686 L175.79839,-5.538838 L176.4065,-5.5711894 L177.01668,-5.6049027 L177.62892,-5.6399984 L178.24326,-5.676552 L178.85968,-5.7145925 L179.4782,-5.7541604 L180.09882,-5.7952833 L180.72153,-5.8380203 L181.34636,-5.8824067 L181.97328,-5.9284697 L182.60231,-5.9762354 L183.23343,-6.0257573 L183.86664,-6.0770545 L184.50192,-6.130169 L185.13928,-6.185111 L185.77869,-6.2419257 L186.42015,-6.300642 L187.06363,-6.361279 L187.70914,-6.423868 L188.35663,-6.488451 L189.00606,-6.5550203 L189.65746,-6.6236525 L190.31075,-6.6943493 L190.96593,-6.767132 L191.62296,-6.8420615 L192.28181,-6.919155 L192.94244,-6.998447 L193.60481,-7.0799713 L194.2689,-7.1637826 L194.93462,-7.2498894 L195.60197,-7.338375 L196.27089,-7.429269 L196.9413,-7.5226088 L197.61316,-7.618458 L198.28644,-7.7168756 L198.96104,-7.817916 L199.63693,-7.9216413 L200.31404,-8.028139 L200.9923,-8.137457 L201.67163,-8.249696 L202.35194,-8.364911 L203.03322,-8.48322 L203.71532,-8.604707 L204.39818,-8.729478 L205.08174,-8.857632 L205.76588,-8.989282 L206.45052,-9.124551 L207.13557,-9.263573 L207.82095,-9.406477 L208.50653,-9.553409 L209.19223,-9.704515 L209.87793,-9.859962 L210.56352,-10.019919 L211.2489,-10.184545 L211.93396,-10.354035 L212.61855,-10.528582 L213.30257,-10.708387 L213.98592,-10.893652 L214.66843,-11.084622 L215.34998,-11.281497 L216.03046,-11.484542 L216.70972,-11.693985 L217.38762,-11.910102 L218.06398,-12.133347 L218.73872,-12.363614 L219.4117,-12.600787 L220.08284,-12.844755 L220.75197,-13.095435 L221.41905,-13.352735 L222.08392,-13.616563 L222.74655,-13.88685 L223.40678,-14.163538 L224.06458,-14.446555 L224.7198,-14.735867 L225.3724,-15.031398 L226.02231,-15.333137 L226.66942,-15.641026 L227.31366,-15.955049 L227.95496,-16.275177 L228.59328,-16.60137 L229.22855,-16.93363 L229.86067,-17.271935 L230.48964,-17.61627 L231.11534,-17.966633 L231.7378,-18.323017 L232.3569,-18.685408 L232.97263,-19.053814 L233.58493,-19.428242 L234.19377,-19.808678 L234.79913,-20.195126 L235.40097,-20.587587 L235.99922,-20.986076 L236.59392,-21.390587 L237.18498,-21.801132 L237.7724,-22.21771 L238.35619,-22.640324 L238.9363,-23.068974 L239.5127,-23.503677 L240.0854,-23.94441 L240.6544,-24.391184 L241.21968,-24.84401 L241.78122,-25.302872 L242.33904,-25.76776 L242.89313,-26.238676 L243.4435,-26.715609 L243.99013,-27.198542 L244.53304,-27.68748 L245.07224,-28.1824 L245.60773,-28.683277 L246.13951,-29.190102 L246.66762,-29.70284 L247.19206,-30.221483 L247.71284,-30.745989 L248.23,-31.276327 L248.74355,-31.812468 L249.25351,-32.354362 L249.7599,-32.901993 L250.26276,-33.4553 L250.76207,-34.01425 L251.25793,-34.57878 L251.75032,-35.14885 L252.23927,-35.724407 L252.72485,-36.30537 L253.20708,-36.891693 L253.68596,-37.483322 L254.16156,-38.080177 L254.63391,-38.682186 L255.10306,-39.289257 L255.56903,-39.901344 L256.0319,-40.51836 L256.49164,-41.140213 L256.94836,-41.766804 L257.4021,-42.398056 L257.85287,-43.033875 L258.30075,-43.67417 L258.7458,-44.31882 L259.188,-44.967747 L259.62744,-45.620842 L260.0642,-46.27796 L260.49832,-46.93903 L260.92984,-47.603912 L261.3588,-48.272514 L261.78528,-48.944683 L262.2093,-49.620335 L262.63095,-50.299297 L263.05026,-50.981457 L263.46732,-51.666687 L263.88217,-52.354847 L264.2949,-53.045723 L264.7055,-53.7393 L265.114,-54.43561 L265.52045,-55.134624 L265.92484,-55.83636 L266.32718,-56.54087 L266.72748,-57.24812 L267.12573,-57.95815 L267.522,-58.670937 L267.91632,-59.386482 L268.30862,-60.104847 L268.69897,-60.82597 L269.0874,-61.549862 L269.47388,-62.27657 L269.85846,-63.006042 L270.24115,-63.7383 L270.62198,-64.47334 L271.00095,-65.21114 L271.37805,-65.95171 L271.75333,-66.69506 L272.12683,-67.44114 L272.4985,-68.18997 L272.8684,-68.94156 L273.23657,-69.695816 L273.603,-70.452835 L273.9677,-71.21251 L274.33072,-71.97485 L274.69202,-72.73989 L275.05164,-73.50758 L275.40967,-74.27787 L275.76602,-75.05078 L276.1208,-75.82626 L276.47397,-76.60433 L276.82556,-77.38493 L277.17557,-78.16808 L277.5241,-78.95367 L277.8711,-79.74177 L278.21655,-80.532326 L278.56058,-81.32529 L278.9031,-82.12067 L279.24423,-82.91834 L279.58392,-83.71838 L279.9222,-84.520744 L280.25912,-85.325356 L280.59473,-86.13217 L280.92896,-86.94119 L281.26184,-87.75242 L281.5934,-88.5658 L281.92377,-89.38121 L282.25284,-90.198715 L282.58066,-91.01825 L282.90726,-91.83975 L283.23267,-92.66323 L283.5569,-93.488625 L283.87997,-94.31586 L284.20193,-95.144936 L284.52274,-95.97579 L284.8425,-96.808365 L285.16116,-97.642654 L285.4788,-98.478584 L285.7954,-99.31609 L286.11096,-100.15524 L286.42557,-100.995834 L286.7392,-101.83793 L287.05188,-102.68146 L287.36365,-103.526344 L287.67453,-104.3726 L287.9845,-105.22013 L288.2936,-106.068886 L288.60193,-106.91877 L288.9094,-107.7698 L289.21606,-108.62195 L289.52197,-109.47509 L289.82715,-110.32921 L290.1316,-111.184235 L290.43533,-112.04015 L290.7384,-112.89683 L291.04077,-113.7543 L291.3425,-114.612526 L291.64365,-115.47133 L291.9442,-116.3307 L292.24417,-117.19066 L292.54358,-118.051094 L292.84247,-118.91195 L293.14084,-119.77319 L293.43875,-120.63469 L293.7362,-121.49642 L294.03317,-122.35838 L294.32977,-123.22041 L294.62595,-124.08258 L294.92175,-124.94472 L295.21722,-125.80683 L295.5124,-126.66875 L295.80722,-127.53054 L296.10175,-128.39212 L296.39606,-129.25333 L296.6901,-130.11423 L296.98395,-130.97464 L297.27762,-131.83458 L297.57108,-132.69403 L297.8644,-133.55281 L298.1576,-134.41092 L298.45074,-135.2682 L298.74374,-136.12479 L299.0367,-136.98042 L299.32965,-137.83511 L299.62256,-138.68877 L299.9155,-139.54137 L300.20847,-140.3928 L300.50146,-141.24309 L300.7946,-142.09206 L301.08777,-142.93967 L301.3811,-143.78586 L301.67456,-144.63057 L301.96823,-145.4737 L302.26202,-146.31525 L302.5561,-147.15506 L302.85037,-147.99315 L303.1449,-148.82939 L303.4397,-149.66377 L303.73483,-150.49614 L304.03027,-151.32645 L304.32605,-152.15471 L304.62222,-152.98073 L304.9188,-153.80449 L305.21576,-154.62599 L305.51318,-155.44505 L305.81104,-156.26166 L306.1094,-157.0757 L306.40826,-157.88715 L306.70764,-158.69594 L307.00757,-159.50197 L307.3081,-160.30511 L307.6092,-161.10547 L307.91092,-161.90274 L308.21326,-162.69702 L308.51627,-163.48819 L308.81995,-164.27615 L309.12433,-165.06091 L309.42947,-165.84227 L309.73535,-166.6202 L310.042,-167.39468 L310.34943,-168.16565 L310.65765,-168.93295 L310.96674,-169.69653 L311.27664,-170.45642 L311.58746,-171.21237 L311.89917,-171.96446 L312.21182,-172.71248 L312.5254,-173.45648 L312.83994,-174.1963 L313.15546,-174.932 L313.472,-175.66333 L313.78955,-176.39032 L314.10815,-177.11287 L314.42783,-177.8309 L314.7486,-178.54439 L315.07047,-179.25322 L315.3935,-179.95729 L315.71765,-180.65657 L316.04297,-181.351 L316.36954,-182.04042 L316.6973,-182.72485 L317.0263,-183.40417 L317.35654,-184.07837 L317.68805,-184.74734 L318.02087,-185.411 L318.355,-186.06927 L318.6905,-186.72212 L319.02734,-187.36938 L319.36554,-188.01118 L319.70517,-188.6472 L320.0462,-189.27753 L320.38867,-189.90205 L320.73257,-190.52075 L321.078,-191.13345 L321.42487,-191.74019 L321.77332,-192.34082 L322.12323,-192.93538 L322.47473,-193.5237 L322.82782,-194.10564 L323.18246,-194.68138 L323.53873,-195.25067 L323.89664,-195.81346 L324.25623,-196.36967 L324.61743,-196.91936 L324.9803,-197.46242 L325.3449,-197.99866 L325.7112,-198.52817 L326.07928,-199.05074 L326.4491,-199.56647 L326.82068,-200.07523 L327.19403,-200.57695 L327.56924,-201.07153 L327.94623,-201.55899 L328.32507,-202.03929 L328.70578,-202.51231 L329.08838,-202.97797 L329.4728,-203.43631 L329.8592,-203.88716 L330.24753,-204.33054 L330.63776,-204.76639 L331.02997,-205.19467 L331.42413,-205.61531 L331.8203,-206.02826 L332.21844,-206.43352 L332.6186,-206.83102 L333.0208,-207.22064 L333.42508,-207.60237 L333.83142,-207.9762 L334.2398,-208.3421 L334.6503,-208.70001 L335.06287,-209.04993 L335.47757,-209.39174 L335.89447,-209.72522 L336.3135,-210.05043 L336.7348,-210.36708 L337.1584,-210.67514 L337.58423,-210.97447 L338.0124,-211.26498 L338.44296,-211.54646 L338.8759,-211.81897 L339.3112,-212.08235 L339.74896,-212.33635 L340.1892,-212.58104 L340.63196,-212.81618 L341.0772,-213.04182 L341.52502,-213.25774 L341.97543,-213.46385 L342.42844,-213.66006 L342.8841,-213.84636 L343.34238,-214.02263 L343.80334,-214.18872 L344.26703,-214.34457 L344.73343,-214.49017 L345.2026,-214.62527 L345.6745,-214.74997 L346.14926,-214.8641 L346.6268,-214.96759 L347.10715,-215.06046 L347.5904,-215.14253 L348.07648,-215.21382 L348.56546,-215.2742 L349.0573,-215.3237 L349.55212,-215.36218 L350.0499,-215.3896 L350.55057,-215.40596 L351.05426,-215.41116 L351.5609,-215.4052 L352.07053,-215.38806 L352.58316,-215.35968 L353.0988,-215.32 L353.61746,-215.26901 L354.1392,-215.20665 L354.6639,-215.13301 L355.19168,-215.04805 L355.72253,-214.95164 L356.25644,-214.8438 L356.7934,-214.72464 L357.3334,-214.5941 L357.8765,-214.4521 L358.42264,-214.2988 L358.97186,-214.13406 L359.52417,-213.958 L360.0795,-213.7706 L360.63794,-213.5718 L361.19937,-213.36179 L361.7639,-213.14047 L362.33145,-212.90791 L362.90207,-212.66415 L363.4757,-212.40923 L364.05237,-212.14319 L364.63202,-211.86609 L365.21466,-211.578 L365.8003,-211.27892 L366.3889,-210.96896 L366.98044,-210.64813 L367.57492,-210.31659 L368.1723,-209.97435 L368.77258,-209.62144 L369.37576,-209.25798 L369.98175,-208.88406 L370.59058,-208.4998 L371.20224,-208.10521 L371.81662,-207.70049 L372.43378,-207.28557 L373.05362,-206.8607 L373.67618,-206.42586 L374.30136,-205.98128 L374.92917,-205.52695 L375.55954,-205.06306 L376.19247,-204.58968 L376.8279,-204.1069 L377.46582,-203.6149 L378.1061,-203.11374 L378.7488,-202.60356 L379.39386,-202.08447" fill="none" stroke="#8624AB" stroke-linejoin="round" stroke-width="2"/>
</g>
</g>
<g transform="translate(380, -286)">
<text font-size="12" text-anchor="start" x="0" y="0">
curvature error s=3.820
</text>
<line stroke="#8624AB" stroke-width="2" x1="-10" x2="-3" y1="-4" y2="-4"/>
</g>
<g>
<g>
<path d="M0.68570286,-0.016990922 L0.68570286,-0.016990922 L1.3714057,-0.033936936 L2.05704,-0.050921585 L2.742539,-0.06808091 L3.4278376,-0.08549216 L4.1128716,-0.10327531 L4.797579,-0.12150204 L5.4818983,-0.14026697 L6.1657705,-0.15964726 L6.8491373,-0.17971279 L7.531942,-0.20052673 L8.214129,-0.2221558 L8.895647,-0.24464984 L9.576441,-0.26805246 L10.256461,-0.29242188 L10.9356575,-0.31779993 L11.613983,-0.3442031 L12.291389,-0.37168184 L12.9678335,-0.40025282 L13.6432705,-0.42992646 L14.3176565,-0.46073905 L14.990951,-0.4927025 L15.663115,-0.52581424 L16.334108,-0.5600875 L17.003895,-0.59552217 L17.67244,-0.6321238 L18.339705,-0.6698753 L19.005661,-0.70878667 L19.670273,-0.74884236 L20.33351,-0.79001576 L20.995342,-0.8323203 L21.655745,-0.8757124 L22.314688,-0.92017895 L22.972145,-0.9657037 L23.62809,-1.0122677 L24.282503,-1.0598357 L24.935358,-1.1083819 L25.586637,-1.1578885 L26.236319,-1.2083205 L26.88438,-1.2596321 L27.530811,-1.311822 L28.175587,-1.3648312 L28.818695,-1.4186351 L29.460123,-1.4732078 L30.099855,-1.5285043 L30.737879,-1.5844941 L31.374182,-1.6411446 L32.00875,-1.6984155 L32.641586,-1.7562772 L33.27267,-1.8146881 L33.901997,-1.8736202 L34.529564,-1.9330356 L35.155357,-1.9929008 L35.77938,-2.053175 L36.401627,-2.113827 L37.02209,-2.1748312 L37.640774,-2.236157 L38.257675,-2.2977688 L38.87279,-2.3596373 L39.486126,-2.4217227 L40.09768,-2.4840117 L40.70745,-2.5464766 L41.31545,-2.609075 L41.92167,-2.6718013 L42.526127,-2.7346256 L43.128822,-2.797524 L43.72976,-2.8604734 L44.328953,-2.923474 L44.9264,-2.9864783 L45.522114,-3.049489 L46.1161,-3.1124835 L46.708378,-3.1754568 L47.298946,-3.2383928 L47.887825,-3.3012924 L48.47502,-3.3641317 L49.060555,-3.426915 L49.64443,-3.4896414 L50.22666,-3.5522916 L50.807262,-3.6148877 L51.386257,-3.6774137 L51.96365,-3.7398815 L52.539463,-3.8023021 L53.113712,-3.8646746 L53.686413,-3.9270058 L54.257584,-3.989312 L54.827248,-4.0516043 L55.395416,-4.1139297 L55.962112,-4.176255 L56.527336,-4.238527 L57.091095,-4.300679 L57.653393,-4.3626633 L58.214233,-4.4244156 L58.773636,-4.485912 L59.331596,-4.547073 L59.888123,-4.607862 L60.443226,-4.668237 L60.99691,-4.728134 L61.54919,-4.7875333 L62.100067,-4.846362 L62.64955,-4.904596 L63.197655,-4.9621797 L63.74438,-5.019084 L64.28974,-5.0752654 L64.83375,-5.130693 L65.3764,-5.1853204 L65.917725,-5.23911 L66.45772,-5.2920423 L66.99639,-5.3440723 L67.53377,-5.395167 L68.06983,-5.445303 L68.60462,-5.4944544 L69.13813,-5.542576 L69.67038,-5.5896616 L70.20138,-5.6356845 L70.73113,-5.6806073 L71.25965,-5.7244043 L71.786964,-5.767086 L72.313065,-5.8085914 L72.837975,-5.8489356 L73.361694,-5.8880672 L73.88425,-5.9259844 L74.405655,-5.962695 L74.92591,-5.9981523 L75.44503,-6.032348 L75.963036,-6.065294 L76.479935,-6.096946 L76.99574,-6.127317 L77.510475,-6.156395 L78.02414,-6.1841707 L78.53676,-6.2106295 L79.04833,-6.235769 L79.55889,-6.2596083 L80.068436,-6.282103 L80.576996,-6.3033 L81.084564,-6.3231516 L81.59117,-6.3416758 L82.096825,-6.358887 L82.60154,-6.3747625 L83.10533,-6.3893194 L83.60823,-6.402569 L84.11023,-6.414511 L84.61135,-6.4251366 L85.11162,-6.434465 L85.61104,-6.4425073 L86.10962,-6.449262 L86.60739,-6.454733 L87.10437,-6.4589567 L87.600555,-6.4619203 L88.09598,-6.4636383 L88.59066,-6.464147 L89.084595,-6.4634194 L89.57782,-6.4615126 L90.070335,-6.458396 L90.562164,-6.4541235 L91.05332,-6.44868 L91.54383,-6.4421163 L92.03371,-6.434434 L92.52296,-6.425645 L93.011604,-6.415772 L93.499664,-6.4048285 L93.98715,-6.3928604 L94.47409,-6.37986 L94.96049,-6.3658543 L95.44637,-6.3508773 L95.93176,-6.3349514 L96.41666,-6.318082 L96.901085,-6.300305 L97.38506,-6.281644 L97.8686,-6.262101 L98.35173,-6.24174 L98.83446,-6.22056 L99.3168,-6.1986074 L99.79879,-6.1758847 L100.280426,-6.1524167 L100.761734,-6.128264 L101.24274,-6.1034117 L101.72344,-6.077925 L102.203865,-6.051788 L102.68404,-6.0250654 L103.16397,-5.997783 L103.64367,-5.9699445 L104.12318,-5.941614 L104.60249,-5.9127803 L105.08163,-5.8834853 L105.56062,-5.853778 L106.03948,-5.8236804 L106.51822,-5.7932005 L106.99687,-5.7624044 L107.47543,-5.731277 L107.95393,-5.699885 L108.43239,-5.6682334 L108.91081,-5.6363697 L109.38924,-5.604318 L109.86766,-5.572106 L110.346115,-5.5397587 L110.824615,-5.5073223 L111.30318,-5.474803 L111.781815,-5.442246 L112.26057,-5.409697 L112.73942,-5.377143 L113.2184,-5.3446274 L113.69755,-5.312217 L114.176865,-5.2798967 L114.65636,-5.247692 L115.136055,-5.215667 L115.61598,-5.1838274 L116.09615,-5.152218 L116.57658,-5.1208415 L117.05727,-5.0897236 L117.53826,-5.058928 L118.01957,-5.028458 L118.50119,-4.9983177 L118.98318,-4.968589 L119.465515,-4.9392357 L119.948235,-4.9103203 L120.43135,-4.8818655 L120.91489,-4.8538923 L121.39886,-4.826421 L121.88327,-4.799458 L122.36816,-4.773059 L122.85354,-4.747246 L123.3394,-4.721998 L123.82579,-4.697378 L124.31272,-4.6734023 L124.8002,-4.650073 L125.288246,-4.6274233 L125.776886,-4.605476 L126.26612,-4.5842257 L126.75599,-4.563731 L127.24648,-4.5439696 L127.737625,-4.5249724 L128.22945,-4.5067596 L128.72195,-4.489345 L129.21516,-4.472742 L129.70908,-4.4569483 L130.20374,-4.442009 L130.69914,-4.4279065 L131.19533,-4.414665 L131.69228,-4.402304 L132.19005,-4.390827 L132.68861,-4.3802276 L133.18802,-4.3705363 L133.68826,-4.3617396 L134.18936,-4.3538537 L134.69135,-4.3468714 L135.19423,-4.340835 L135.698,-4.3357 L136.2027,-4.3315005 L136.70834,-4.3282375 L137.21492,-4.325873 L137.72249,-4.3244753 L138.23102,-4.3239636 L138.74054,-4.3243866 L139.25107,-4.3257337 L139.76262,-4.327978 L140.27522,-4.331155 L140.78886,-4.335224 L141.30359,-4.3402133 L141.81937,-4.3460608 L142.33626,-4.352786 L142.85423,-4.360362 L143.37334,-4.368805 L143.89357,-4.3780804 L144.41495,-4.388183 L144.93747,-4.399101 L145.46118,-4.4107866 L145.98605,-4.423246 L146.51213,-4.4364777 L147.03941,-4.4504275 L147.56792,-4.4651017 L148.09766,-4.4804573 L148.62862,-4.4964747 L149.16084,-4.5131187 L149.69434,-4.5303903 L150.2291,-4.548253 L150.76514,-4.566638 L151.30249,-4.585583 L151.84113,-4.604985 L152.38109,-4.624858 L152.9224,-4.6451917 L153.46503,-4.665881 L154.009,-4.686924 L154.55434,-4.7083087 L155.10104,-4.7299566 L155.64911,-4.7518425 L156.19856,-4.773908 L156.74942,-4.7961454 L157.30165,-4.818474 L157.85532,-4.8408923 L158.4104,-4.8633084 L158.9669,-4.885729 L159.52484,-4.9080486 L160.08421,-4.930233 L160.64502,-4.9522357 L161.20728,-4.973998 L161.77101,-4.995511 L162.33621,-5.016656 L162.90286,-5.0374026 L163.47101,-5.0576687 L164.04065,-5.0774994 L164.61179,-5.096872 L165.18445,-5.115789 L165.75868,-5.134327 L166.33444,-5.1524043 L166.91182,-5.17011 L167.49077,-5.187387 L168.07135,-5.204276 L168.65355,-5.220755 L169.23738,-5.2368407 L169.82288,-5.2525177 L170.41005,-5.2677946 L170.9989,-5.282657 L171.58943,-5.297077 L172.18167,-5.311093 L172.77562,-5.324648 L173.3713,-5.337767 L173.96872,-5.3504066 L174.56789,-5.3625746 L175.16878,-5.374222 L175.77144,-5.3853574 L176.37587,-5.395963 L176.98204,-5.4059887 L177.59001,-5.4154377 L178.19975,-5.4242907 L178.81126,-5.4325056 L179.42456,-5.440061 L180.03964,-5.4469457 L180.65651,-5.453117 L181.27516,-5.458542 L181.89558,-5.463188 L182.51779,-5.467061 L183.14178,-5.470089 L183.76755,-5.4722767 L184.39507,-5.4735627 L185.02437,-5.4739327 L185.65543,-5.473364 L186.28822,-5.4717984 L186.92276,-5.4692307 L187.55902,-5.465596 L188.197,-5.4608994 L188.8367,-5.455087 L189.47809,-5.4481406 L190.12117,-5.440024 L190.76593,-5.43073 L191.41232,-5.420197 L192.06036,-5.4084115 L192.71,-5.3953543 L193.36124,-5.3809767 L194.01407,-5.3653007 L194.66844,-5.3482556 L195.32437,-5.3298573 L195.98178,-5.310062 L196.6407,-5.2888794 L197.30109,-5.2662735 L197.96289,-5.2422366 L198.6261,-5.216761 L199.29068,-5.189854 L199.95662,-5.161497 L200.62386,-5.1316833 L201.29237,-5.100423 L201.96213,-5.067718 L202.63312,-5.0335827 L203.30524,-4.9980254 L203.97852,-4.9610577 L204.65288,-4.9227114 L205.3283,-4.8830066 L206.00471,-4.841953 L206.68211,-4.79961 L207.36041,-4.7559943 L208.0396,-4.711157 L208.7196,-4.66514 L209.40038,-4.6180034 L210.0819,-4.56979 L210.76405,-4.52057 L211.44684,-4.4704204 L212.1302,-4.4193907 L212.81407,-4.3675847 L213.49838,-4.3150654 L214.18307,-4.2619333 L214.8681,-4.2082963 L215.5534,-4.15424 L216.23889,-4.0998774 L216.92453,-4.0453396 L217.61024,-3.990837 L218.29593,-3.9363074 L218.98157,-3.8816628 L219.66708,-3.8268228 L220.35239,-3.7717414 L221.03743,-3.7163546 L221.72215,-3.6606083 L222.40648,-3.6044567 L223.09036,-3.5478568 L223.77373,-3.490768 L224.45654,-3.4331872 L225.1387,-3.375069 L225.82019,-3.3164034 L226.50096,-3.257179 L227.18094,-3.1973846 L227.86005,-3.13704 L228.53827,-3.0761228 L229.21555,-3.0146484 L229.89183,-2.9526312 L230.56706,-2.8901012 L231.24118,-2.8270736 L231.91418,-2.763562 L232.58598,-2.6996226 L233.25655,-2.6352577 L233.92586,-2.5705347 L234.59383,-2.5054867 L235.26045,-2.4401495 L235.92566,-2.374586 L236.58943,-2.3088412 L237.25172,-2.2429764 L237.9125,-2.177032 L238.57173,-2.1110873 L239.22935,-2.0452166 L239.88538,-1.9794458 L240.53972,-1.9138844 L241.1924,-1.8485701 L241.84335,-1.7835902 L242.49254,-1.7190262 L243.13995,-1.6549423 L243.78555,-1.5914143 L244.42932,-1.5285323 L245.07124,-1.4663497 L245.71126,-1.404982 L246.34935,-1.3445103 L246.98552,-1.2849648 L247.61972,-1.2264956 L248.25194,-1.1691428 L248.88216,-1.1130247 L249.51033,-1.0582016 L250.13649,-1.0047455 L250.76057,-0.952778 L251.38255,-0.9023726 L252.00247,-0.8535931 L252.62025,-0.80655444 L253.23592,-0.76132095 L253.84941,-0.71799934 L254.46077,-0.67664254 L255.06996,-0.6373476 L255.67696,-0.6002209 L256.28177,-0.565306 L256.88434,-0.5327089 L257.48474,-0.5024922 L258.08292,-0.47475126 L258.67883,-0.44956115 L259.27252,-0.42699316 L259.86395,-0.4071275 L260.45316,-0.39003757 L261.0401,-0.3757818 L261.62476,-0.36447316 L262.20715,-0.35613272 L262.7873,-0.35086128 L263.36517,-0.34868705 L263.94077,-0.34972504 L264.51407,-0.35403773 L265.0851,-0.36163267 L265.65387,-0.3726325 L266.22034,-0.38705826 L266.78458,-0.40493864 L267.3465,-0.42640388 L267.90616,-0.45147005 L268.4636,-0.4801711 L269.0187,-0.51257557 L269.5716,-0.5487343 L270.12222,-0.58868444 L270.6706,-0.63244253 L271.21674,-0.68011206 L271.76065,-0.7316665 L272.3023,-0.78719604 L272.84174,-0.8467202 L273.37897,-0.9102661 L273.914,-0.9779096 L274.4468,-1.049644 L274.97742,-1.1255522 L275.50586,-1.2056439 L276.0321,-1.2898957 L276.5562,-1.378364 L277.07813,-1.4711574 L277.59793,-1.5681831 L278.11557,-1.6695565 L278.6311,-1.7751791 L279.14453,-1.8851736 L279.6558,-1.9995565 L280.16504,-2.1182425 L280.67218,-2.2413394 L281.17725,-2.368813 L281.6803,-2.500626 L282.18127,-2.6368825 L282.6803,-2.7774851 L283.17725,-2.9225345 L283.6722,-3.0719762 L284.16522,-3.2257829 L284.65628,-3.3839834 L285.14542,-3.5465264 L285.6326,-3.7134523 L286.11786,-3.8847754 L286.60123,-4.060454 L287.08273,-4.240433 L287.5624,-4.4246726 L288.0402,-4.613264 L288.51617,-4.806149 L288.9904,-5.0032086 L289.4628,-5.2045374 L289.93344,-5.4100695 L290.40234,-5.619825 L290.8695,-5.8336782 L291.335,-6.0516453 L291.79877,-6.273731 L292.26093,-6.4998045 L292.7214,-6.729955 L293.18027,-6.9640427 L293.63754,-7.202081 L294.0932,-7.4440737 L294.5474,-7.6898103 L294.99997,-7.9394436 L295.45108,-8.192841 L295.90067,-8.449993 L296.34882,-8.710768 L296.7955,-8.97524 L297.24075,-9.243258 L297.68463,-9.514836 L298.12717,-9.789818 L298.5683,-10.06828 L299.00812,-10.35015 L299.44666,-10.635276 L299.8839,-10.923653 L300.31992,-11.215287 L300.7547,-11.51002 L301.18826,-11.807851 L301.6206,-12.108775 L302.05185,-12.412559 L302.48196,-12.719276 L302.91095,-13.028843 L303.3389,-13.341103 L303.76575,-13.656124 L304.19162,-13.973747 L304.61646,-14.293965 L305.0403,-14.616695 L305.46326,-14.941771 L305.88525,-15.269261 L306.30634,-15.599007 L306.72656,-15.930994 L307.14597,-16.265139 L307.56454,-16.601269 L307.98233,-16.939457 L308.39935,-17.279537 L308.8156,-17.621492 L309.2312,-17.965158 L309.6461,-18.310524 L310.06033,-18.657494 L310.47397,-19.005981 L310.88696,-19.35597 L311.2994,-19.707294 L311.7113,-20.059935 L312.12268,-20.413723 L312.53357,-20.768723 L312.944,-21.124763 L313.35397,-21.481749 L313.76358,-21.839584 L314.1728,-22.19826 L314.58163,-22.557676 L314.99017,-22.917742 L315.3984,-23.278278 L315.8064,-23.639355 L316.21408,-24.000872 L316.62164,-24.362576 L317.02893,-24.72461 L317.43613,-25.08672 L317.84317,-25.448885 L318.25012,-25.811016 L318.657,-26.17301 L319.06387,-26.534775 L319.47067,-26.896284 L319.8775,-27.257458 L320.2844,-27.61813 L320.6913,-27.978382 L321.0983,-28.338133 L321.50534,-28.697378 L321.91257,-29.055876 L322.3199,-29.413784 L322.72733,-29.771023 L323.13495,-30.127428 L323.5428,-30.483 L323.9508,-30.837736 L324.35907,-31.191553 L324.7676,-31.544373 L325.1764,-31.896189 L325.58545,-32.24692 L325.99484,-32.596573 L326.40457,-32.944977 L326.8146,-33.292213 L327.22504,-33.638203 L327.63586,-33.982784 L328.0471,-34.326115 L328.45874,-34.667953 L328.87085,-35.00831 L329.28345,-35.347168 L329.6965,-35.68446 L330.11005,-36.02018 L330.52414,-36.35425 L330.9388,-36.686516 L331.354,-37.01713 L331.76978,-37.34594 L332.1862,-37.672863 L332.6032,-37.997902 L333.02084,-38.321064 L333.43918,-38.642185 L333.8582,-38.96127 L334.2779,-39.27832 L334.69833,-39.59326 L335.11948,-39.9061 L335.54138,-40.216675 L335.96408,-40.525078 L336.38757,-40.83114 L336.8119,-41.13488 L337.237,-41.436302 L337.663,-41.735325 L338.08984,-42.031963 L338.51758,-42.32606 L338.9462,-42.617702 L339.3758,-42.906742 L339.8063,-43.193184 L340.23776,-43.477123 L340.6702,-43.75832 L341.10364,-44.03687 L341.5381,-44.3127 L341.9736,-44.585754 L342.41013,-44.856018 L342.84772,-45.12354 L343.28644,-45.38814 L343.7262,-45.64993 L344.1671,-45.908836 L344.60913,-46.16479 L345.05234,-46.417755 L345.4967,-46.66779 L345.94223,-46.91485 L346.38898,-47.158867 L346.83698,-47.3998 L347.28616,-47.637714 L347.7366,-47.87256 L348.18832,-48.10429 L348.64136,-48.33285 L349.09564,-48.55831 L349.55124,-48.780647 L350.0082,-48.999783 L350.46652,-49.21568 L350.92618,-49.428425 L351.3872,-49.63797 L351.8496,-49.844334 L352.31348,-50.047413 L352.77872,-50.24728 L353.2454,-50.44391 L353.71353,-50.63731 L354.18314,-50.827446 L354.65424,-51.01427 L355.1268,-51.197895 L355.6009,-51.37826 L356.0765,-51.55535 L356.55362,-51.729233 L357.03232,-51.899826 L357.51254,-52.06723 L357.9944,-52.23133 L358.47778,-52.392242 L358.96277,-52.549923 L359.44937,-52.704407 L359.93762,-52.85568 L360.4275,-53.003754 L360.919,-53.14869 L361.41217,-53.290447 L361.907,-53.429077 L362.40353,-53.564625 L362.90173,-53.697052 L363.40164,-53.826416 L363.90326,-53.952744 L364.4066,-54.07604 L364.91168,-54.196342 L365.41852,-54.31362 L365.9271,-54.428005 L366.4374,-54.53956 L366.9495,-54.648148 L367.4634,-54.753796 L367.97916,-54.856426 L368.49673,-54.955994 L369.01624,-55.052437 L369.5376,-55.145844 L370.0609,-55.23603 L370.58615,-55.32313 L371.11334,-55.406975 L371.64258,-55.487576 L372.17377,-55.56496 L372.707,-55.63907 L373.24228,-55.70987 L373.77963,-55.777386 L374.3191,-55.841553 L374.8606,-55.90242 L375.40427,-55.959946 L375.95004,-56.014137 L376.498,-56.064983 L377.0481,-56.1125 L377.60037,-56.15671 L378.15485,-56.19752 L378.71152,-56.23504 L379.27042,-56.26921 L379.83154,-56.300095 L380.3949,-56.327652 L380.9605,-56.351948 L381.52835,-56.37301 L382.09848,-56.390842 L382.67087,-56.40542 L383.24557,-56.416775 L383.82254,-56.42498 L384.4018,-56.430077 L384.98334,-56.43204 L385.56717,-56.430935 L386.15332,-56.4268 L386.74173,-56.41967 L387.3325,-56.40956 L387.9255,-56.396538 L388.52084,-56.38065 L389.11847,-56.361885 L389.71838,-56.340385 L390.3206,-56.316086 L390.92508,-56.28914 L391.53183,-56.25951 L392.14087,-56.22731 L392.75217,-56.192543 L393.36572,-56.155304 L393.98148,-56.115643 L394.5995,-56.073586 L395.2197,-56.02923 L395.84207,-55.982613 L396.4667,-55.93373 L397.09344,-55.88277 L397.72235,-55.829685 L398.3534,-55.77454 L398.98654,-55.717457 L399.6218,-55.658424 L400.2591,-55.597565 L400.89844,-55.534897 L401.5398,-55.470486 L402.1832,-55.404358 L402.8285,-55.336628 L403.47574,-55.26732 L404.1249,-55.19645 L404.77597,-55.124138 L405.42883,-55.050407 L406.0835,-54.9753 L406.73996,-54.898846 L407.39813,-54.821136 L408.058,-54.742146 L408.71954,-54.66198 L409.3827,-54.58066 L410.04742,-54.498203 L410.71368,-54.414654 L411.3814,-54.33004 L412.05057,-54.244415 L412.72113,-54.157734 L413.393,-54.070084 L414.06616,-53.981453 L414.7406,-53.891827 L415.41614,-53.80125 L416.09286,-53.709694 L416.7706,-53.617203" fill="none" stroke="#C5655D" stroke-linejoin="round" stroke-width="2"/>
</g>
</g>
<g transform="translate(380, -268)">
<text font-size="12" text-anchor="start" x="0" y="0">
curvature error s=4.672
</text>
<line stroke="#C5655D" stroke-width="2" x1="-10" x2="-3" y1="-4" y2="-4"/>
</g>
<g>
<g>
<line stroke="black" stroke-width="1" x1="0" x2="0" y1="0" y2="10"/>
<line stroke="black" stroke-width="1" x1="137.14285714285714" x2="137.14285714285714" y1="0" y2="10"/>
<line stroke="black" stroke-width="1" x1="274.2857142857143" x2="274.2857142857143" y1="0" y2="10"/>
<line stroke="black" stroke-width="1" x1="411.42857142857144" x2="411.42857142857144" y1="0" y2="10"/>
</g>
<line stroke="black" stroke-width="1" x1="0" x2="480" y1="0" y2="0"/>
<g>
<text font-size="12" text-anchor="middle" x="0" y="20">
0
</text>
<text font-size="12" text-anchor="middle" x="137.14285714285714" y="20">
2
</text>
<text font-size="12" text-anchor="middle" x="274.2857142857143" y="20">
4
</text>
<text font-size="12" text-anchor="middle" x="411.42857142857144" y="20">
6
</text>
</g>
<text font-size="12" text-anchor="middle" x="240" y="30">
x
</text>
</g>
<g>
<g>
<line stroke="black" stroke-width="1" x1="0" x2="-10" y1="0" y2="0"/>
<line stroke="black" stroke-width="1" x1="0" x2="-10" y1="-68" y2="-68"/>
<line stroke="black" stroke-width="1" x1="0" x2="-10" y1="-136" y2="-136"/>
<line stroke="black" stroke-width="1" x1="0" x2="-10" y1="-204" y2="-204"/>
<line stroke="black" stroke-width="1" x1="0" x2="-10" y1="-272" y2="-272"/>
<line stroke="black" stroke-width="1" x1="0" x2="-10" y1="-340" y2="-340"/>
</g>
<line stroke="black" stroke-width="1" x1="0" x2="0" y1="0" y2="-340"/>
<g>
<text dominant-baseline="middle" font-size="12" text-anchor="end" x="-15" y="0">
0
</text>
<text dominant-baseline="middle" font-size="12" text-anchor="end" x="-15" y="-68">
0.4
</text>
<text dominant-baseline="middle" font-size="12" text-anchor="end" x="-15" y="-136">
0.8
</text>
<text dominant-baseline="middle" font-size="12" text-anchor="end" x="-15" y="-204">
1.2
</text>
<text dominant-baseline="middle" font-size="12" text-anchor="end" x="-15" y="-272">
1.6
</text>
<text dominant-baseline="middle" font-size="12" text-anchor="end" x="-15" y="-340">
2
</text>
</g>
<text font-size="12" text-anchor="middle" transform="rotate(-90 -36 -170)" x="-36" y="-182">
error
</text>
</g>
</g>
</svg>