<svg viewBox="0 0 600 400" xmlns="http://www.w3.org/2000/svg">
<g transform="translate(72, 364)">
<g>
<g>
<path d="M0,-272 L0,-272 L2.154235,-271.96646 L4.30847,-271.8658 L6.4627047,-271.6982 L8.61694,-271.4638 L10.771174,-271.1628 L12.925409,-270.79553 L15.079645,-270.36234 L17.23388,-269.86365 L19.388115,-269.29996 L21.542349,-268.67184 L23.696585,-267.9799 L25.850819,-267.2248 L28.005054,-266.40732 L30.15929,-265.52823 L32.313526,-264.58844 L34.46776,-263.58887 L36.621994,-262.53046 L38.77623,-261.4143 L40.930466,-260.2415 L43.084698,-259.01315 L45.238934,-257.73053 L47.39317,-256.3949 L49.547405,-255.00755 L51.701637,-253.56987 L53.855873,-252.08327 L56.01011,-250.54921 L58.164345,-248.96921 L60.31858,-247.34483 L62.472813,-245.67767 L64.62705,-243.96939 L66.78128,-242.22166 L68.93552,-240.43622 L71.08975,-238.61482 L73.24399,-236.75925 L75.398224,-234.87135 L77.55246,-232.95299 L79.706696,-231.00606 L81.86093,-229.03247 L84.01517,-227.03418 L86.169395,-225.01315 L88.32363,-222.97139 L90.47787,-220.91092 L92.6321,-218.83374 L94.78634,-216.74193 L96.940575,-214.63754 L99.09481,-212.52266 L101.24905,-210.39937 L103.403275,-208.26976 L105.55751,-206.13593 L107.71175,-204 L109.86598,-201.86407 L112.02022,-199.73024 L114.17445,-197.60063 L116.32869,-195.47734 L118.482925,-193.36246 L120.63716,-191.25807 L122.79139,-189.16626 L124.945625,-187.08908 L127.09986,-185.02861 L129.2541,-182.98685 L131.40833,-180.96582 L133.56256,-178.96753 L135.7168,-176.99394 L137.87103,-175.04701 L140.02527,-173.12865 L142.1795,-171.24075 L144.33374,-169.38518 L146.48798,-167.56378 L148.64221,-165.77834 L150.79645,-164.03061 L152.95068,-162.32233 L155.10492,-160.65517 L157.25916,-159.03079 L159.41339,-157.45079 L161.56763,-155.91673 L163.72186,-154.43013 L165.8761,-152.99245 L168.03033,-151.6051 L170.18456,-150.26945 L172.33879,-148.98685 L174.49303,-147.75851 L176.64726,-146.58571 L178.8015,-145.46954 L180.95573,-144.41115 L183.10997,-143.41156 L185.2642,-142.47176 L187.41844,-141.59268 L189.57268,-140.77519 L191.72691,-140.02011 L193.88115,-139.32816 L196.03539,-138.70003 L198.18962,-138.13635 L200.34386,-137.63766 L202.4981,-137.20447 L204.65233,-136.83719 L206.80655,-136.5362 L208.96078,-136.30179 L211.11502,-136.13419 L213.26926,-136.03355 L215.4235,-136 L217.57773,-136.03355 L219.73196,-136.13419 L221.8862,-136.30179 L224.04044,-136.5362 L226.19467,-136.83719 L228.3489,-137.20447 L230.50314,-137.63766 L232.65738,-138.13635 L234.81161,-138.70003 L236.96585,-139.32816 L239.12009,-140.02011 L241.27432,-140.77519 L243.42856,-141.59268 L245.58278,-142.47176 L247.73701,-143.41156 L249.89125,-144.41115 L252.04549,-145.46954 L254.19972,-146.58571 L256.35397,-147.75851 L258.5082,-148.98685 L260.66245,-150.26945 L262.81665,-151.6051 L264.9709,-152.99245 L267.12512,-154.43013 L269.27936,-155.91673 L271.4336,-157.45079 L273.58783,-159.03079 L275.74207,-160.65517 L277.8963,-162.32233 L280.05054,-164.03061 L282.20477,-165.77834 L284.359,-167.56378 L286.51324,-169.38518 L288.66748,-171.24075 L290.82172,-173.12865 L292.97595,-175.04701 L295.1302,-176.99394 L297.28442,-178.96753 L299.43866,-180.96582 L301.5929,-182.98685 L303.74713,-185.02861 L305.90137,-187.08908 L308.0556,-189.16626 L310.20984,-191.25807 L312.36407,-193.36246 L314.5183,-195.47734 L316.67255,-197.60063 L318.82678,-199.73024 L320.98102,-201.86407 L323.13525,-204 L325.2895,-206.13593 L327.44373,-208.26976 L329.59796,-210.39937 L331.7522,-212.52266 L333.90643,-214.63754 L336.06067,-216.74193 L338.21487,-218.83374 L340.3691,-220.91092 L342.52335,-222.97139 L344.67758,-225.01315 L346.83182,-227.03418 L348.98605,-229.03247 L351.1403,-231.00606 L353.29453,-232.95299 L355.44876,-234.87135 L357.603,-236.75925 L359.75723,-238.61482 L361.91147,-240.43622 L364.0657,-242.22166 L366.21994,-243.96939 L368.37418,-245.67767 L370.5284,-247.34483 L372.68265,-248.96921 L374.83688,-250.54921 L376.99112,-252.08327 L379.14536,-253.56987 L381.2996,-255.00755 L383.45383,-256.3949 L385.60806,-257.73053 L387.7623,-259.01315 L389.91653,-260.2415 L392.07077,-261.4143 L394.225,-262.53046 L396.37924,-263.58887 L398.53348,-264.58844 L400.6877,-265.52823 L402.84195,-266.40732 L404.9962,-267.2248 L407.15042,-267.9799 L409.30466,-268.67184 L411.4589,-269.29996 L413.6131,-269.86365 L415.76733,-270.36234 L417.92157,-270.79553 L420.0758,-271.1628 L422.23004,-271.4638 L424.38428,-271.6982 L426.5385,-271.8658 L428.69275,-271.96646" fill="none" stroke="#54AEDA" stroke-linejoin="round" stroke-width="2"/>
</g>
</g>
<g transform="translate(380, -340)">
<text font-size="12" text-anchor="start" x="0" y="0">
standard cos curve
</text>
<line stroke="#54AEDA" stroke-width="2" x1="-10" x2="-3" y1="-4" y2="-4"/>
</g>
<g>
<g>
<path d="M0.68569183,-272.00476 L0.68569183,-272.00476 L1.3713835,-271.99997 L2.0569413,-271.9857 L2.7422345,-271.962 L3.4271367,-271.92902 L4.1115236,-271.8868 L4.7952757,-271.83548 L5.4782767,-271.7751 L6.160412,-271.70575 L6.8415728,-271.62756 L7.521652,-271.54062 L8.200547,-271.44498 L8.878157,-271.34076 L9.554386,-271.2281 L10.229141,-271.10703 L10.902331,-270.9777 L11.573871,-270.84015 L12.243675,-270.69455 L12.911664,-270.54092 L13.577759,-270.37946 L14.241888,-270.2102 L14.903979,-270.03326 L15.563963,-269.84875 L16.221777,-269.65677 L16.877356,-269.4574 L17.530643,-269.2508 L18.181581,-269.037 L18.830116,-268.81613 L19.476202,-268.58832 L20.119783,-268.35364 L20.76082,-268.1122 L21.399271,-267.86414 L22.035091,-267.6095 L22.66825,-267.34842 L23.298708,-267.081 L23.926437,-266.80734 L24.551405,-266.52753 L25.173586,-266.24167 L25.792957,-265.9499 L26.409494,-265.65225 L27.023182,-265.34888 L27.633997,-265.03986 L28.241928,-264.72528 L28.846962,-264.40527 L29.449087,-264.07993 L30.048298,-263.7493 L30.644587,-263.41354 L31.237946,-263.07272 L31.82838,-262.72693 L32.415882,-262.37625 L33.000458,-262.0208 L33.58211,-261.66068 L34.160847,-261.29596 L34.73667,-260.92673 L35.309597,-260.5531 L35.87963,-260.17514 L36.44679,-259.79297 L37.011086,-259.40662 L37.572533,-259.01624 L38.131153,-258.62186 L38.686962,-258.22363 L39.239983,-257.82156 L39.79024,-257.4158 L40.33775,-257.0064 L40.882545,-256.59348 L41.424652,-256.17706 L41.964096,-255.75726 L42.500904,-255.33417 L43.03511,-254.90784 L43.566746,-254.47835 L44.095844,-254.0458 L44.62244,-253.61026 L45.146564,-253.1718 L45.668262,-252.73048 L46.18756,-252.2864 L46.704506,-251.83965 L47.21914,-251.39026 L47.731495,-250.93832 L48.24162,-250.48392 L48.749554,-250.02708 L49.25534,-249.56793 L49.75903,-249.10652 L50.260662,-248.6429 L50.76028,-248.17715 L51.257935,-247.70934 L51.753677,-247.23953 L52.247566,-246.7678 L52.73963,-246.2942 L53.22987,-245.81876 L53.718304,-245.34149 L54.20494,-244.86241 L54.689785,-244.38155 L55.17286,-243.89894 L55.654163,-243.4146 L56.13372,-242.92854 L56.61153,-242.44081 L57.087612,-241.95142 L57.56198,-241.46039 L58.034637,-240.96774 L58.505608,-240.4735 L58.97489,-239.97769 L59.442513,-239.48035 L59.90848,-238.98146 L60.372803,-238.48108 L60.835503,-237.97922 L61.296593,-237.4759 L61.756077,-236.97115 L62.213978,-236.46498 L62.670307,-235.95743 L63.12508,-235.44849 L63.57831,-234.9382 L64.030014,-234.42659 L64.4802,-233.91367 L64.928894,-233.39944 L65.3761,-232.88396 L65.821846,-232.36723 L66.26613,-231.84927 L66.708984,-231.33011 L67.15041,-230.80975 L67.59045,-230.28822 L68.02908,-229.76555 L68.466354,-229.24174 L68.90226,-228.71683 L69.33684,-228.19083 L69.77008,-227.66374 L70.20203,-227.1356 L70.632675,-226.60645 L71.06205,-226.07626 L71.49017,-225.54507 L71.91705,-225.01292 L72.34271,-224.4798 L72.76717,-223.94572 L73.190445,-223.41074 L73.61255,-222.87485 L74.03351,-222.33806 L74.45332,-221.8004 L74.872025,-221.26189 L75.289635,-220.72253 L75.70616,-220.18236 L76.12162,-219.64139 L76.53604,-219.09962 L76.94945,-218.5571 L77.36183,-218.01381 L77.77324,-217.4698 L78.18367,-216.92506 L78.593155,-216.37962 L79.001724,-215.8335 L79.40936,-215.2867 L79.81611,-214.73926 L80.221985,-214.19116 L80.627,-213.64246 L81.03119,-213.09314 L81.434555,-212.54324 L81.83713,-211.99275 L82.23892,-211.44173 L82.63995,-210.89014 L83.04025,-210.33803 L83.43982,-209.78542 L83.8387,-209.2323 L84.23689,-208.6787 L84.63443,-208.12463 L85.03132,-207.57011 L85.4276,-207.01515 L85.823265,-206.45978 L86.21835,-205.90399 L86.612885,-205.34782 L87.00688,-204.79128 L87.400345,-204.23436 L87.79331,-203.6771 L88.1858,-203.1195 L88.57783,-202.56158 L88.96941,-202.00337 L89.36058,-201.44487 L89.751335,-200.8861 L90.14172,-200.32704 L90.53175,-199.76776 L90.92144,-199.20824 L91.31081,-198.6485 L91.69988,-198.08856 L92.08868,-197.52843 L92.47721,-196.96811 L92.86551,-196.40765 L93.25359,-195.84703 L93.64149,-195.28629 L94.029205,-194.72542 L94.416756,-194.16444 L94.80419,-193.60338 L95.1915,-193.04224 L95.57872,-192.48103 L95.965866,-191.91978 L96.35296,-191.35849 L96.74002,-190.79718 L97.127075,-190.23587 L97.514145,-189.67456 L97.90123,-189.11327 L98.288376,-188.55202 L98.6756,-187.99081 L99.062904,-187.42967 L99.450325,-186.86859 L99.83788,-186.30762 L100.2256,-185.74675 L100.61348,-185.186 L101.00156,-184.62538 L101.389854,-184.06491 L101.77839,-183.50461 L102.167175,-182.94446 L102.556244,-182.38452 L102.9456,-181.82477 L103.33528,-181.26524 L103.72531,-180.70596 L104.11569,-180.14691 L104.50645,-179.58812 L104.8976,-179.02962 L105.28918,-178.47139 L105.68119,-177.91347 L106.07368,-177.35587 L106.46664,-176.7986 L106.86009,-176.24168 L107.25407,-175.68512 L107.64859,-175.12894 L108.04366,-174.57315 L108.43932,-174.01776 L108.83559,-173.4628 L109.23247,-172.90828 L109.62998,-172.3542 L110.028175,-171.8006 L110.42703,-171.24747 L110.8266,-170.69484 L111.226875,-170.14272 L111.62789,-169.59113 L112.02967,-169.04007 L112.43223,-168.4896 L112.83557,-167.93967 L113.239746,-167.39035 L113.644745,-166.84163 L114.050606,-166.29353 L114.45734,-165.74606 L114.86496,-165.19925 L115.2735,-164.65312 L115.68297,-164.10767 L116.09338,-163.56291 L116.50477,-163.01888 L116.917145,-162.47559 L117.33052,-161.93304 L117.74493,-161.39127 L118.16037,-160.85028 L118.57687,-160.31009 L118.99445,-159.77072 L119.41314,-159.2322 L119.83293,-158.69452 L120.25386,-158.15771 L120.67595,-157.6218 L121.0992,-157.08679 L121.52363,-156.5527 L121.949265,-156.01956 L122.37613,-155.48738 L122.80422,-154.95618 L123.233574,-154.42598 L123.6642,-153.89679 L124.096115,-153.36864 L124.529335,-152.84154 L124.96388,-152.3155 L125.399765,-151.79057 L125.837006,-151.26674 L126.27561,-150.74405 L126.715614,-150.2225 L127.15702,-149.70212 L127.59985,-149.18292 L128.04411,-148.66495 L128.48982,-148.1482 L128.937,-147.63268 L129.38567,-147.11844 L129.83582,-146.60548 L130.28749,-146.09384 L130.74069,-145.58354 L131.19543,-145.07457 L131.65173,-144.56699 L132.1096,-144.06079 L132.56906,-143.556 L133.0301,-143.05266 L133.49278,-142.55077 L133.95708,-142.05035 L134.423,-141.55145 L134.8906,-141.05408 L135.35985,-140.55824 L135.83078,-140.06396 L136.3034,-139.57129 L136.77774,-139.08022 L137.25378,-138.59079 L137.73155,-138.10303 L138.21107,-137.61694 L138.69235,-137.13257 L139.1754,-136.64992 L139.6602,-136.16904 L140.1468,-135.68991 L140.63521,-135.2126 L141.1254,-134.73712 L141.61743,-134.26349 L142.11128,-133.79172 L142.60696,-133.32187 L143.10455,-132.85397 L143.60403,-132.38808 L144.10544,-131.92421 L144.6088,-131.46243 L145.11414,-131.0028 L145.62148,-130.54533 L146.13084,-130.09009 L146.64227,-129.63712 L147.15575,-129.18645 L147.67134,-128.73813 L148.18904,-128.29222 L148.70888,-127.84876 L149.23088,-127.40781 L149.75505,-126.9694 L150.2814,-126.53358 L150.81,-126.1004 L151.3408,-125.66992 L151.87386,-125.24219 L152.4092,-124.81724 L152.9468,-124.39513 L153.48671,-123.975914 L154.02892,-123.55965 L154.57346,-123.14637 L155.12033,-122.736145 L155.66957,-122.32902 L156.22116,-121.92504 L156.77512,-121.52427 L157.33147,-121.12676 L157.8902,-120.73256 L158.45132,-120.34173 L159.0149,-119.95432 L159.58084,-119.57039 L160.14923,-119.18999 L160.72003,-118.81318 L161.29326,-118.44001 L161.86893,-118.07055 L162.44704,-117.704834 L163.02757,-117.34295 L163.61055,-116.98493 L164.19597,-116.630844 L164.78381,-116.28074 L165.37408,-115.93469 L165.9668,-115.59275 L166.56194,-115.254974 L167.15948,-114.92143 L167.75946,-114.59216 L168.36183,-114.26725 L168.96658,-113.94675 L169.57375,-113.6307 L170.18327,-113.31919 L170.79517,-113.012276 L171.40941,-112.71001 L172.02599,-112.41245 L172.64488,-112.119675 L173.2661,-111.83174 L173.88959,-111.548706 L174.51534,-111.27063 L175.14334,-110.997574 L175.77356,-110.729614 L176.406,-110.46681 L177.0406,-110.20922 L177.67737,-109.95692 L178.31627,-109.709946 L178.95724,-109.46838 L179.60031,-109.23229 L180.24539,-109.001724 L180.89249,-108.77677 L181.54156,-108.557465 L182.19257,-108.34389 L182.84549,-108.13609 L183.50027,-107.93415 L184.15688,-107.73813 L184.81526,-107.54808 L185.47539,-107.364075 L186.13722,-107.18617 L186.8007,-107.014435 L187.4658,-106.84893 L188.13245,-106.68972 L188.8006,-106.536865 L189.47023,-106.39043 L190.14127,-106.250465 L190.81363,-106.11704 L191.48732,-105.99022 L192.16226,-105.8701 L192.83836,-105.75667 L193.51555,-105.64987 L194.19379,-105.54967 L194.87296,-105.45603 L195.55302,-105.36893 L196.2339,-105.288284 L196.91551,-105.214096 L197.59781,-105.14629 L198.28072,-105.08486 L198.96417,-105.02973 L199.64812,-104.980865 L200.33247,-104.938225 L201.01721,-104.90176 L201.70224,-104.87142 L202.38751,-104.847176 L203.07297,-104.828964 L203.75858,-104.81674 L204.44426,-104.81046 L205.12997,-104.810074 L205.81564,-104.81553 L206.50128,-104.826775 L207.18677,-104.84377 L207.8721,-104.866455 L208.55722,-104.89478 L209.24208,-104.92871 L209.92662,-104.96817 L210.61086,-105.01313 L211.29468,-105.063515 L211.97807,-105.11929 L212.66101,-105.1804 L213.34346,-105.24679 L214.02534,-105.318405 L214.70668,-105.395195 L215.38739,-105.47711 L216.06747,-105.564095 L216.74689,-105.65608 L217.4256,-105.75304 L218.10356,-105.8549 L218.78079,-105.96161 L219.45721,-106.07312 L220.13283,-106.189384 L220.8076,-106.310326 L221.48154,-106.43591 L222.15456,-106.56608 L222.82669,-106.70078 L223.49788,-106.83995 L224.16812,-106.983536 L224.83743,-107.131485 L225.50574,-107.283745 L226.17302,-107.44027 L226.83931,-107.60099 L227.50456,-107.76587 L228.16878,-107.93483 L228.83192,-108.107834 L229.494,-108.284836 L230.155,-108.46576 L230.8149,-108.650566 L231.4737,-108.83919 L232.13138,-109.031586 L232.78796,-109.22771 L233.44342,-109.4275 L234.09775,-109.63089 L234.75092,-109.83785 L235.40295,-110.04831 L236.05386,-110.26222 L236.70361,-110.47954 L237.35223,-110.7002 L237.9997,-110.92416 L238.64598,-111.15136 L239.29114,-111.38175 L239.93515,-111.61529 L240.578,-111.851906 L241.21973,-112.09156 L241.8603,-112.334206 L242.49973,-112.57978 L243.13803,-112.82824 L243.7752,-113.07953 L244.41125,-113.3336 L245.04619,-113.59041 L245.68001,-113.8499 L246.31274,-114.112015 L246.94437,-114.37672 L247.5749,-114.64394 L248.20438,-114.91366 L248.8328,-115.18579 L249.46014,-115.46033 L250.08643,-115.73721 L250.71167,-116.01643 L251.33585,-116.29798 L251.95898,-116.581795 L252.58104,-116.86788 L253.20209,-117.1562 L253.82205,-117.44671 L254.44101,-117.73941 L255.0589,-118.034256 L255.67578,-118.33124 L256.2916,-118.63032 L256.9064,-118.93147 L257.52017,-119.23467 L258.1329,-119.53991 L258.74466,-119.847145 L259.35538,-120.15635 L259.9651,-120.4675 L260.57382,-120.78057 L261.18152,-121.09555 L261.78824,-121.4124 L262.39398,-121.731094 L262.99875,-122.05161 L263.60254,-122.37393 L264.20535,-122.69803 L264.80722,-123.02388 L265.4081,-123.35145 L266.0081,-123.68072 L266.60712,-124.01166 L267.2052,-124.34426 L267.80237,-124.67849 L268.39862,-125.01432 L268.994,-125.35174 L269.5884,-125.690704 L270.18198,-126.031204 L270.77466,-126.373215 L271.36646,-126.71672 L271.95737,-127.06167 L272.54742,-127.408066 L273.1367,-127.75588 L273.72507,-128.10509 L274.31262,-128.45566 L274.89938,-128.80757 L275.48532,-129.16083 L276.07043,-129.51535 L276.6548,-129.87119 L277.23834,-130.22826 L277.82117,-130.58655 L278.4032,-130.94606 L278.9845,-131.30676 L279.56503,-131.66862 L280.1449,-132.03162 L280.724,-132.39574 L281.30243,-132.76096 L281.88016,-133.12726 L282.45718,-133.4946 L283.03357,-133.86298 L283.6093,-134.23236 L284.1844,-134.60272 L284.75882,-134.97406 L285.33267,-135.34634 L285.90588,-135.71954 L286.4785,-136.09364 L287.0505,-136.46861 L287.62198,-136.84445 L288.19287,-137.22113 L288.76324,-137.5986 L289.33307,-137.97688 L289.90234,-138.35593 L290.47116,-138.73572 L291.03943,-139.11624 L291.60727,-139.49748 L292.1746,-139.8794 L292.74152,-140.26198 L293.30795,-140.6452 L293.87396,-141.02907 L294.43958,-141.41351 L295.00476,-141.79855 L295.56958,-142.18416 L296.134,-142.5703 L296.6981,-142.95694 L297.26178,-143.3441 L297.8252,-143.73174 L298.38824,-144.11983 L298.951,-144.50836 L299.5135,-144.89731 L300.07565,-145.28665 L300.6376,-145.67638 L301.19928,-146.06645 L301.7607,-146.45686 L302.32193,-146.84758 L302.88293,-147.2386 L303.44376,-147.62988 L304.0044,-148.02144 L304.56485,-148.41321 L305.12515,-148.8052 L305.68536,-149.19739 L306.2454,-149.58974 L306.80536,-149.98225 L307.36517,-150.3749 L307.92496,-150.76764 L308.48468,-151.16048 L309.04434,-151.55339 L309.60397,-151.94637 L310.16357,-152.33936 L310.72314,-152.73236 L311.28278,-153.12537 L311.84238,-153.51833 L312.40204,-153.91124 L312.96173,-154.3041 L313.52148,-154.69685 L314.08136,-155.0895 L314.6413,-155.48201 L315.20135,-155.87437 L315.76154,-156.26657 L316.32184,-156.65857 L316.8823,-157.05037 L317.4429,-157.44193 L318.00372,-157.83324 L318.5647,-158.22426 L319.1259,-158.615 L319.68735,-159.00543 L320.249,-159.39552 L320.81088,-159.78526 L321.37308,-160.17464 L321.93552,-160.56361 L322.49826,-160.95216 L323.0613,-161.34029 L323.6247,-161.72795 L324.1884,-162.11513 L324.75244,-162.50182 L325.31683,-162.88799 L325.88162,-163.27362 L326.4468,-163.65869 L327.01236,-164.04318 L327.57837,-164.42708 L328.1448,-164.81033 L328.71167,-165.19296 L329.279,-165.57492 L329.84677,-165.95619 L330.41504,-166.33676 L330.9838,-166.7166 L331.55307,-167.09569 L332.12283,-167.47401 L332.69318,-167.85155 L333.26404,-168.22826 L333.83548,-168.60414 L334.40747,-168.97917 L334.98007,-169.35332 L335.55322,-169.72658 L336.12704,-170.0989 L336.70142,-170.4703 L337.2765,-170.84073 L337.85214,-171.21017 L338.4285,-171.57861 L339.00552,-171.94601 L339.5832,-172.31238 L340.16156,-172.67766 L340.74063,-173.04184 L341.32043,-173.4049 L341.90097,-173.76685 L342.4822,-174.12761 L343.0642,-174.48718 L343.64697,-174.84557 L344.2305,-175.20271 L344.8148,-175.5586 L345.3999,-175.91322 L345.98575,-176.26654 L346.57245,-176.61853 L347.15997,-176.9692 L347.74832,-177.31847 L348.3375,-177.66637 L348.92752,-178.01285 L349.5184,-178.3579 L350.11014,-178.70148 L350.70276,-179.04358 L351.29623,-179.38417 L351.89066,-179.72324 L352.48593,-180.06073 L353.08215,-180.39667 L353.67926,-180.73099 L354.2773,-181.06369 L354.87625,-181.39473 L355.47614,-181.7241 L356.07703,-182.05177 L356.67883,-182.37772 L357.28156,-182.70192 L357.8853,-183.02434 L358.49002,-183.34497 L359.0957,-183.66379 L359.70236,-183.98074 L360.31003,-184.29582 L360.91867,-184.60901 L361.52835,-184.92029 L362.139,-185.2296 L362.75067,-185.53696 L363.36334,-185.8423 L363.97708,-186.14563 L364.59183,-186.44691 L365.20758,-186.74611 L365.8244,-187.04321 L366.44223,-187.3382 L367.0611,-187.63101 L367.681,-187.92166 L368.302,-188.21011 L368.924,-188.49632 L369.5471,-188.78029 L370.17117,-189.06195 L370.79636,-189.34132 L371.42258,-189.61835 L372.04987,-189.89302 L372.67822,-190.16531 L373.30762,-190.43517 L373.93808,-190.70255 L374.56967,-190.96739 L375.20233,-191.22968 L375.83606,-191.48932 L376.47095,-191.74628 L377.10693,-192.00052 L377.74402,-192.25198 L378.3823,-192.50061 L379.02164,-192.74635 L379.66217,-192.98918 L380.30377,-193.229 L380.9466,-193.46582 L381.5905,-193.69952 L382.2356,-193.93011 L382.88184,-194.1575 L383.52924,-194.38165 L384.17776,-194.60252 L384.82745,-194.82004 L385.4783,-195.03415 L386.13025,-195.24481 L386.7834,-195.45198 L387.43762,-195.6556 L388.09302,-195.85559 L388.7495,-196.05193 L389.40717,-196.24455 L390.0659,-196.43341 L390.7257,-196.61844 L391.38666,-196.7996 L392.04868,-196.97684 L392.71176,-197.15007 L393.37592,-197.31929 L394.0411,-197.4844 L394.7073,-197.64537 L395.37457,-197.80214 L396.04282,-197.95467 L396.71204,-198.10287 L397.38223,-198.24672 L398.05338,-198.38615 L398.72543,-198.52112 L399.3984,-198.65155 L400.07227,-198.77742 L400.747,-198.89864 L401.42258,-199.01518 L402.09897,-199.12697 L402.77615,-199.23398 L403.45407,-199.33612 L404.13272,-199.43336 L404.81207,-199.52567 L405.49213,-199.61295 L406.17282,-199.69516 L406.8541,-199.77225 L407.53598,-199.84418 L408.21838,-199.91087 L408.9013,-199.9723 L409.58466,-200.0284 L410.26846,-200.0791 L410.95267,-200.12439 L411.6372,-200.16418 L412.32202,-200.19843 L413.00714,-200.2271 L413.69247,-200.25012 L414.37793,-200.26746 L415.06357,-200.27904 L415.74924,-200.28485 L416.43497,-200.2848 L417.12067,-200.27887 L417.80627,-200.267 L418.49173,-200.24915 L419.17703,-200.22527 L419.8621,-200.1953 L420.5468,-200.1592 L421.2312,-200.11691 L421.91516,-200.06842 L422.59866,-200.01367 L423.2816,-199.9526 L423.96393,-199.8852 L424.64557,-199.81137 L425.3265,-199.73112 L426.00662,-199.6444 L426.68585,-199.55115 L427.36414,-199.45134 L428.0414,-199.34494 L428.7176,-199.2319" fill="none" stroke="#81BF81" stroke-linejoin="round" stroke-width="2"/>
</g>
</g>
<g transform="translate(380, -322)">
<text font-size="12" text-anchor="start" x="0" y="0">
curvature error s=0.000
</text>
<line stroke="#81BF81" stroke-width="2" x1="-10" x2="-3" y1="-4" y2="-4"/>
</g>
<g>
<g>
<path d="M0.68570286,-272.0034 L0.68570286,-272.0034 L1.3714057,-271.99997 L2.05704,-271.98978 L2.7425385,-271.97284 L3.4278355,-271.9492 L4.1128654,-271.91888 L4.7975645,-271.88193 L5.4818697,-271.8384 L6.16572,-271.78833 L6.8490543,-271.73175 L7.5318136,-271.66873 L8.213939,-271.59927 L8.895373,-271.52344 L9.57606,-271.44128 L10.255946,-271.3528 L10.934975,-271.25812 L11.613095,-271.1572 L12.290256,-271.05014 L12.966404,-270.93698 L13.641492,-270.81775 L14.315471,-270.69247 L14.988294,-270.56125 L15.659912,-270.4241 L16.330282,-270.28107 L16.999361,-270.1322 L17.667103,-269.97754 L18.333467,-269.81717 L18.998415,-269.6511 L19.6619,-269.47934 L20.323889,-269.30203 L20.984343,-269.11917 L21.64322,-268.93082 L22.300495,-268.737 L22.956123,-268.53778 L23.610071,-268.33322 L24.26231,-268.12338 L24.912807,-267.90826 L25.561531,-267.68793 L26.20845,-267.46246 L26.853537,-267.23187 L27.496761,-266.99625 L28.138102,-266.7556 L28.777523,-266.51 L29.415009,-266.2595 L30.050528,-266.00412 L30.684063,-265.74393 L31.315584,-265.47897 L31.945074,-265.20932 L32.572514,-264.935 L33.19788,-264.65607 L33.821156,-264.37256 L34.442318,-264.08453 L35.06136,-263.79205 L35.678253,-263.49515 L36.292988,-263.19388 L36.905552,-262.88824 L37.515923,-262.57837 L38.1241,-262.26428 L38.73006,-261.94598 L39.333794,-261.62357 L39.93529,-261.2971 L40.534546,-260.96655 L41.131542,-260.63202 L41.726273,-260.29355 L42.31874,-259.95117 L42.908924,-259.60498 L43.49682,-259.25494 L44.082428,-258.90118 L44.66574,-258.5437 L45.246754,-258.18256 L45.825466,-257.8178 L46.401867,-257.44946 L46.975967,-257.0776 L47.547752,-256.70227 L48.117226,-256.32346 L48.684395,-255.94128 L49.249252,-255.55576 L49.8118,-255.16693 L50.37204,-254.77483 L50.929974,-254.37952 L51.485607,-253.98103 L52.03894,-253.5794 L52.589985,-253.1747 L53.138737,-252.76694 L53.685204,-252.35617 L54.22939,-251.94244 L54.77131,-251.52579 L55.310963,-251.10625 L55.848354,-250.68388 L56.383495,-250.2587 L56.91639,-249.83076 L57.447044,-249.40009 L57.97547,-248.96674 L58.50168,-248.53072 L59.02567,-248.0921 L59.54746,-247.65091 L60.06706,-247.20717 L60.58447,-246.76094 L61.099712,-246.31224 L61.612797,-245.86111 L62.12373,-245.4076 L62.632526,-244.95172 L63.139194,-244.49352 L63.643757,-244.03304 L64.14622,-243.57031 L64.6466,-243.10536 L65.144905,-242.63823 L65.64115,-242.16896 L66.13537,-241.69756 L66.62755,-241.22409 L67.11772,-240.74857 L67.605896,-240.27104 L68.0921,-239.79152 L68.57633,-239.31006 L69.058624,-238.82669 L69.538994,-238.34143 L70.01745,-237.85431 L70.49401,-237.36537 L70.9687,-236.87465 L71.441536,-236.38217 L71.91252,-235.88795 L72.38171,-235.39204 L72.84908,-234.89447 L73.314674,-234.39526 L73.77853,-233.89444 L74.240616,-233.39203 L74.701004,-232.88808 L75.15968,-232.38261 L75.6167,-231.87566 L76.072044,-231.36723 L76.52576,-230.85736 L76.97787,-230.3461 L77.428375,-229.83345 L77.87732,-229.31946 L78.32472,-228.80414 L78.77059,-228.2875 L79.214966,-227.76962 L79.65786,-227.25049 L80.0993,-226.73013 L80.53931,-226.20859 L80.97791,-225.68588 L81.41512,-225.16205 L81.85098,-224.63708 L82.2855,-224.11104 L82.718704,-223.58392 L83.15063,-223.05577 L83.58128,-222.52661 L84.010704,-221.99646 L84.43892,-221.46535 L84.86593,-220.93329 L85.29179,-220.40033 L85.71651,-219.86647 L86.140114,-219.33174 L86.56264,-218.79616 L86.9841,-218.25977 L87.404526,-217.72258 L87.823944,-217.18462 L88.242386,-216.6459 L88.65987,-216.10646 L89.07642,-215.5663 L89.49207,-215.02547 L89.906845,-214.48398 L90.32078,-213.94185 L90.73388,-213.3991 L91.146194,-212.85574 L91.55773,-212.31183 L91.96853,-211.76736 L92.378624,-211.22237 L92.78802,-210.67686 L93.19676,-210.13089 L93.60487,-209.58443 L94.01238,-209.03754 L94.41931,-208.49022 L94.82568,-207.9425 L95.23155,-207.39441 L95.63692,-206.84595 L96.041824,-206.29715 L96.44629,-205.74805 L96.85034,-205.19864 L97.25402,-204.64896 L97.65734,-204.09901 L98.06033,-203.54884 L98.463036,-202.99846 L98.86547,-202.44788 L99.26766,-201.89713 L99.66964,-201.34622 L100.07143,-200.79518 L100.47307,-200.24403 L100.87457,-199.6928 L101.275986,-199.14148 L101.67733,-198.59012 L102.07863,-198.03873 L102.47991,-197.48734 L102.88121,-196.93594 L103.28254,-196.38457 L103.683914,-195.83324 L104.08536,-195.28195 L104.48689,-194.73073 L104.88854,-194.17958 L105.29032,-193.62854 L105.69225,-193.0776 L106.09436,-192.5268 L106.49665,-191.9761 L106.89916,-191.42558 L107.301895,-190.87523 L107.704895,-190.32506 L108.10815,-189.77507 L108.51171,-189.2253 L108.91558,-188.67577 L109.31978,-188.12645 L109.72433,-187.57741 L110.12925,-187.02863 L110.53457,-186.48013 L110.9403,-185.93195 L111.34646,-185.38406 L111.753075,-184.83652 L112.16016,-184.2893 L112.56773,-183.74246 L112.97582,-183.196 L113.38444,-182.64992 L113.79361,-182.10425 L114.20335,-181.55899 L114.61368,-181.01418 L115.02461,-180.4698 L115.43618,-179.92592 L115.8484,-179.38249 L116.26128,-178.83958 L116.674835,-178.29718 L117.08911,-177.75531 L117.50411,-177.21397 L117.91985,-176.67322 L118.33636,-176.13303 L118.75365,-175.59343 L119.17174,-175.05444 L119.590645,-174.5161 L120.01039,-173.97838 L120.43099,-173.44131 L120.85248,-172.90494 L121.27485,-172.36926 L121.69814,-171.83427 L122.12235,-171.30003 L122.54753,-170.76651 L122.973656,-170.23376 L123.40079,-169.7018 L123.8289,-169.17062 L124.25806,-168.64026 L124.68825,-168.11072 L125.11949,-167.58203 L125.55182,-167.0542 L125.98523,-166.52725 L126.419754,-166.0012 L126.8554,-165.47609 L127.2922,-164.9519 L127.730156,-164.42867 L128.1693,-163.9064 L128.60963,-163.38513 L129.05118,-162.86487 L129.49396,-162.34563 L129.93797,-161.82745 L130.38327,-161.31033 L130.82983,-160.7943 L131.27768,-160.27937 L131.72685,-159.76556 L132.17735,-159.2529 L132.6292,-158.74141 L133.0824,-158.2311 L133.53696,-157.72198 L133.99294,-157.2141 L134.45029,-156.70746 L134.90907,-156.20207 L135.3693,-155.69798 L135.83098,-155.19519 L136.29411,-154.69373 L136.75871,-154.1936 L137.22482,-153.69485 L137.69243,-153.19751 L138.16158,-152.70155 L138.63223,-152.20705 L139.10448,-151.71397 L139.57825,-151.22238 L140.05359,-150.7323 L140.53053,-150.24373 L141.0091,-149.7567 L141.48924,-149.27124 L141.97104,-148.78737 L142.45445,-148.3051 L142.93953,-147.82448 L143.42627,-147.3455 L143.91469,-146.86821 L144.40479,-146.39261 L144.89659,-145.91875 L145.39009,-145.44662 L145.88531,-144.97629 L146.38228,-144.50775 L146.88098,-144.04103 L147.38141,-143.57614 L147.88362,-143.11314 L148.3876,-142.65204 L148.89336,-142.19286 L149.40092,-141.73561 L149.91031,-141.28038 L150.42154,-140.8272 L150.93466,-140.3761 L151.44966,-139.92714 L151.96658,-139.48036 L152.48547,-139.03581 L153.00632,-138.59352 L153.52916,-138.15355 L154.05402,-137.71594 L154.5809,-137.28075 L155.10983,-136.848 L155.64085,-136.41776 L156.17395,-135.99008 L156.70917,-135.56499 L157.24652,-135.14255 L157.78601,-134.72281 L158.32765,-134.30582 L158.87149,-133.89163 L159.41751,-133.48029 L159.96574,-133.07184 L160.51619,-132.66634 L161.0689,-132.26384 L161.62381,-131.8644 L162.18102,-131.46806 L162.74048,-131.07487 L163.30222,-130.68489 L163.86627,-130.2982 L164.4326,-129.91481 L165.00124,-129.53479 L165.57219,-129.15819 L166.14548,-128.7851 L166.72105,-128.41551 L167.29898,-128.04953 L167.87926,-127.6872 L168.46184,-127.328575 L169.04678,-126.97371 L169.63406,-126.622665 L170.22366,-126.27549 L170.81561,-125.93224 L171.40988,-125.593 L172.0065,-125.2578 L172.60545,-124.92671 L173.20671,-124.599785 L173.81029,-124.27709 L174.41618,-123.95868 L175.02437,-123.64461 L175.63486,-123.33495 L176.24763,-123.02976 L176.86267,-122.729095 L177.47998,-122.43302 L178.09953,-122.14159 L178.7213,-121.854866 L179.34528,-121.57292 L179.97147,-121.29581 L180.59985,-121.02358 L181.23038,-120.75632 L181.86305,-120.49408 L182.49783,-120.236916 L183.1347,-119.98489 L183.77365,-119.73808 L184.41466,-119.49653 L185.05766,-119.26032 L185.70265,-119.029495 L186.34962,-118.80414 L186.9985,-118.5843 L187.64929,-118.37004 L188.30194,-118.16142 L188.9564,-117.95852 L189.61267,-117.76138 L190.27069,-117.57008 L190.93044,-117.38468 L191.59183,-117.20523 L192.25487,-117.03181 L192.91948,-116.86446 L193.58566,-116.70327 L194.25333,-116.54828 L194.92242,-116.39955 L195.59294,-116.25716 L196.2648,-116.12116 L196.93794,-115.99161 L197.61234,-115.86857 L198.28792,-115.7521 L198.96463,-115.64227 L199.64241,-115.53918 L200.3212,-115.44277 L201.0009,-115.35305 L201.68149,-115.26994 L202.36284,-115.19342 L203.0449,-115.123436 L203.72763,-115.05996 L204.41092,-115.00293 L205.09474,-114.952324 L205.77899,-114.90808 L206.46364,-114.870155 L207.1486,-114.83851 L207.83385,-114.813095 L208.51929,-114.79387 L209.20486,-114.78078 L209.89055,-114.77377 L210.57625,-114.77281 L211.26193,-114.77784 L211.94757,-114.7888 L212.63307,-114.805664 L213.31839,-114.82836 L214.00351,-114.85686 L214.68835,-114.89108 L215.3729,-114.93101 L216.05705,-114.976555 L216.74081,-115.027695 L217.42415,-115.084366 L218.107,-115.146515 L218.7893,-115.21409 L219.47107,-115.28704 L220.15222,-115.3653 L220.83273,-115.44884 L221.51259,-115.53758 L222.19174,-115.631485 L222.87015,-115.7305 L223.54778,-115.83455 L224.22461,-115.9436 L224.90062,-116.0576 L225.57578,-116.17648 L226.25003,-116.30019 L226.92339,-116.42869 L227.59583,-116.561905 L228.26729,-116.69978 L228.93777,-116.842285 L229.60725,-116.989334 L230.27573,-117.14089 L230.94316,-117.2969 L231.60951,-117.4573 L232.27481,-117.62204 L232.939,-117.79106 L233.60208,-117.96432 L234.26404,-118.141754 L234.92485,-118.3233 L235.58453,-118.50893 L236.24304,-118.698555 L236.90039,-118.892136 L237.55653,-119.08964 L238.2115,-119.290985 L238.86526,-119.49612 L239.51782,-119.705 L240.16917,-119.91758 L240.8193,-120.13378 L241.46822,-120.35357 L242.1159,-120.57689 L242.76234,-120.80369 L243.40756,-121.033905 L244.05154,-121.267494 L244.6943,-121.504395 L245.33583,-121.74457 L245.9761,-121.987946 L246.61516,-122.2345 L247.25299,-122.48415 L247.88959,-122.73687 L248.52496,-122.99259 L249.15913,-123.251274 L249.79207,-123.512856 L250.42381,-123.77728 L251.05435,-124.044525 L251.68372,-124.314514 L252.31186,-124.587204 L252.93886,-124.86255 L253.56467,-125.1405 L254.18932,-125.421005 L254.81282,-125.70401 L255.4352,-125.98947 L256.05643,-126.27732 L256.67657,-126.56754 L257.29556,-126.86009 L257.91348,-127.15496 L258.53024,-127.45211 L259.1459,-127.75151 L259.76047,-128.05315 L260.37393,-128.357 L260.98627,-128.66301 L261.59753,-128.97118 L262.2077,-129.28148 L262.81674,-129.59387 L263.42474,-129.90834 L264.03165,-130.22487 L264.63745,-130.54343 L265.24222,-130.86397 L265.8459,-131.1865 L266.44852,-131.51094 L267.05008,-131.83734 L267.65057,-132.16563 L268.25006,-132.49579 L268.84845,-132.82779 L269.44586,-133.16162 L270.04224,-133.49725 L270.63757,-133.83466 L271.23193,-134.17381 L271.82526,-134.5147 L272.4176,-134.85727 L273.00894,-135.20152 L273.5993,-135.54744 L274.1887,-135.89497 L274.77713,-136.24411 L275.3646,-136.59483 L275.9511,-136.94711 L276.5367,-137.30093 L277.12137,-137.65625 L277.70508,-138.01306 L278.2879,-138.37134 L278.8698,-138.73105 L279.45087,-139.09216 L280.03098,-139.4547 L280.61023,-139.81859 L281.18866,-140.18382 L281.76624,-140.55038 L282.3429,-140.91824 L282.91882,-141.2874 L283.49387,-141.65779 L284.0681,-142.02943 L284.64157,-142.40228 L285.21423,-142.77632 L285.7861,-143.15152 L286.3572,-143.52786 L286.92758,-143.90533 L287.4972,-144.2839 L288.0661,-144.66356 L288.63428,-145.04427 L289.20175,-145.42601 L289.7685,-145.80876 L290.3346,-146.1925 L290.90002,-146.57722 L291.46478,-146.96289 L292.0289,-147.34947 L292.59238,-147.73697 L293.15524,-148.12535 L293.7175,-148.5146 L294.27917,-148.9047 L294.84024,-149.2956 L295.4008,-149.6873 L295.96072,-150.07979 L296.52014,-150.47304 L297.07904,-150.86702 L297.63742,-151.26172 L298.1953,-151.6571 L298.7527,-152.05318 L299.30963,-152.44989 L299.8661,-152.84724 L300.4221,-153.24521 L300.9777,-153.64377 L301.53287,-154.0429 L302.08765,-154.44258 L302.64197,-154.84279 L303.196,-155.24352 L303.74963,-155.64473 L304.30292,-156.0464 L304.8559,-156.44855 L305.40854,-156.8511 L305.96088,-157.25407 L306.51294,-157.65742 L307.0647,-158.06116 L307.6162,-158.46524 L308.16748,-158.86964 L308.71854,-159.27435 L309.26935,-159.67935 L309.81998,-160.08463 L310.37042,-160.49014 L310.9207,-160.8959 L311.47076,-161.30185 L312.02075,-161.70801 L312.5706,-162.11432 L313.12033,-162.52078 L313.66998,-162.92738 L314.2195,-163.33409 L314.76898,-163.74088 L315.31842,-164.14775 L315.8678,-164.55466 L316.41718,-164.96161 L316.96652,-165.36856 L317.5159,-165.77551 L318.06528,-166.18243 L318.6147,-166.5893 L319.16418,-166.9961 L319.7137,-167.4028 L320.26337,-167.8094 L320.81308,-168.21588 L321.3629,-168.62221 L321.91287,-169.02837 L322.46298,-169.43434 L323.0132,-169.8401 L323.56366,-170.24564 L324.11426,-170.65092 L324.6651,-171.05594 L325.2161,-171.46068 L325.76736,-171.8651 L326.31885,-172.2692 L326.87064,-172.67294 L327.42267,-173.07632 L327.97498,-173.47931 L328.5276,-173.8819 L329.08054,-174.28406 L329.63382,-174.68578 L330.18744,-175.087 L330.74142,-175.48776 L331.29578,-175.888 L331.85052,-176.28772 L332.40564,-176.68687 L332.9612,-177.08548 L333.51718,-177.48347 L334.07364,-177.88086 L334.63055,-178.27762 L335.1879,-178.67372 L335.74576,-179.06917 L336.30408,-179.4639 L336.86295,-179.85793 L337.42233,-180.2512 L337.9823,-180.64374 L338.5428,-181.03549 L339.10382,-181.42645 L339.66547,-181.81659 L340.2277,-182.20589 L340.7905,-182.59431 L341.35394,-182.98187 L341.91803,-183.36852 L342.48276,-183.75424 L343.04813,-184.139 L343.6142,-184.52281 L344.18094,-184.90562 L344.74832,-185.28743 L345.31647,-185.6682 L345.8853,-186.04791 L346.4549,-186.42654 L347.0252,-186.8041 L347.59628,-187.1805 L348.16812,-187.55577 L348.74075,-187.92987 L349.31412,-188.3028 L349.88834,-188.6745 L350.46335,-189.04498 L351.03918,-189.4142 L351.61584,-189.78214 L352.19333,-190.14879 L352.77167,-190.5141 L353.35092,-190.87807 L353.931,-191.24068 L354.51196,-191.60188 L355.09384,-191.96169 L355.6766,-192.32004 L356.2603,-192.67694 L356.8449,-193.03235 L357.43042,-193.38625 L358.01688,-193.73862 L358.60428,-194.08943 L359.19266,-194.43867 L359.782,-194.7863 L360.37228,-195.13231 L360.9636,-195.47667 L361.55588,-195.81934 L362.14914,-196.16032 L362.7434,-196.49957 L363.33868,-196.83708 L363.93503,-197.17282 L364.53235,-197.50676 L365.1307,-197.83888 L365.73013,-198.16914 L366.33057,-198.49754 L366.93207,-198.82405 L367.53464,-199.14864 L368.13824,-199.47127 L368.74292,-199.79193 L369.3487,-200.1106 L369.9555,-200.42725 L370.56342,-200.74184 L371.17245,-201.05437 L371.78253,-201.36479 L372.39374,-201.67308 L373.006,-201.97923 L373.6194,-202.2832 L374.2339,-202.58496 L374.8495,-202.8845 L375.4662,-203.1818 L376.084,-203.47679 L376.70297,-203.76949 L377.32303,-204.05984 L377.9442,-204.34785 L378.5665,-204.63345 L379.18994,-204.91661 L379.8145,-205.19725 L380.44025,-205.47536 L381.0672,-205.75085 L381.69528,-206.02371 L382.32455,-206.29387 L382.95502,-206.56126 L383.5867,-206.82587 L384.21954,-207.08762 L384.85367,-207.34647 L385.48895,-207.60237 L386.1255,-207.85527 L386.76324,-208.1051 L387.40222,-208.35184 L388.04245,-208.59541 L388.6839,-208.83578 L389.32657,-209.07288 L389.97046,-209.30667 L390.61563,-209.5371 L391.262,-209.76408 L391.90964,-209.98761 L392.55844,-210.20761 L393.2085,-210.42404 L393.85977,-210.63683 L394.51227,-210.84593 L395.16595,-211.0513 L395.82086,-211.25287 L396.47693,-211.45059 L397.13422,-211.64441 L397.79263,-211.83427 L398.45224,-212.02014 L399.113,-212.20193 L399.7749,-212.37961 L400.43793,-212.55312 L401.10205,-212.7224 L401.76727,-212.88739 L402.43353,-213.04805 L403.10092,-213.20432 L403.76935,-213.35614 L404.43875,-213.50346 L405.1092,-213.64624 L405.78058,-213.7844 L406.45297,-213.9179 L407.12628,-214.04666 L407.80048,-214.17065 L408.4756,-214.28983 L409.15152,-214.40411 L409.82834,-214.51346 L410.50592,-214.61783 L411.1843,-214.71713 L411.86337,-214.81134 L412.54318,-214.90039 L413.22366,-214.98424 L413.9048,-215.06282 L414.58652,-215.13608 L415.2688,-215.20398 L415.9516,-215.26645 L416.63492,-215.32346 L417.31866,-215.37492 L418.0028,-215.4208 L418.6873,-215.46106 L419.37213,-215.49564 L420.05722,-215.52446 L420.74255,-215.54752 L421.42804,-215.56471 L422.11365,-215.57603 L422.79935,-215.58142 L423.48505,-215.58081 L424.17075,-215.57417 L424.85632,-215.56143 L425.54178,-215.54257 L426.22702,-215.51753 L426.912,-215.48625 L427.59668,-215.44872 L428.28094,-215.40485 L428.9648,-215.35461 L429.64813,-215.29796 L430.33087,-215.23486 L431.01297,-215.16528 L431.6944,-215.08914 L432.37503,-215.00642 L433.05478,-214.9171 L433.73364,-214.8211" fill="none" stroke="#847A9A" stroke-linejoin="round" stroke-width="2"/>
</g>
</g>
<g transform="translate(380, -304)">
<text font-size="12" text-anchor="start" x="0" y="0">
curvature error s=0.852
</text>
<line stroke="#847A9A" stroke-width="2" x1="-10" x2="-3" y1="-4" y2="-4"/>
</g>
<g>
<g>
<path d="M0.68570286,-272.0034 L0.68570286,-272.0034 L1.3714057,-271.99997 L2.05704,-271.98978 L2.742539,-271.97284 L3.4278376,-271.94925 L4.1128716,-271.91904 L4.797579,-271.88223 L5.4818983,-271.83893 L6.1657705,-271.78915 L6.8491373,-271.73297 L7.531942,-271.6704 L8.214129,-271.60156 L8.895647,-271.52646 L9.576441,-271.44516 L10.256461,-271.35773 L10.9356575,-271.26422 L11.613983,-271.16467 L12.291389,-271.05917 L12.9678335,-270.94772 L13.6432705,-270.83044 L14.3176565,-270.70737 L14.990951,-270.57855 L15.663115,-270.44403 L16.334108,-270.30392 L17.003895,-270.1582 L17.67244,-270.007 L18.339705,-269.85034 L19.005661,-269.6883 L19.670273,-269.5209 L20.33351,-269.3482 L20.995342,-269.17035 L21.655745,-268.9873 L22.314688,-268.79913 L22.972145,-268.60596 L23.62809,-268.40778 L24.282503,-268.20468 L24.935358,-267.9967 L25.586637,-267.78394 L26.236319,-267.5664 L26.88438,-267.34418 L27.530811,-267.1173 L28.175587,-266.8859 L28.818695,-266.64993 L29.460123,-266.40952 L30.099855,-266.1647 L30.737879,-265.91556 L31.374182,-265.6621 L32.00875,-265.40442 L32.641586,-265.14258 L33.27267,-264.8766 L33.901997,-264.60657 L34.529564,-264.33252 L35.155357,-264.05453 L35.77938,-263.77264 L36.401627,-263.48694 L37.02209,-263.19742 L37.640774,-262.9042 L38.257675,-262.6073 L38.87279,-262.3068 L39.486126,-262.00272 L40.09768,-261.69513 L40.70745,-261.3841 L41.31545,-261.06964 L41.92167,-260.75183 L42.526127,-260.43076 L43.128822,-260.10645 L43.72976,-259.77893 L44.328953,-259.44827 L44.9264,-259.11453 L45.522114,-258.77777 L46.1161,-258.43802 L46.708378,-258.09534 L47.298946,-257.74976 L47.887825,-257.40137 L48.47502,-257.0502 L49.060555,-256.69632 L49.64443,-256.33972 L50.22666,-255.98051 L50.807262,-255.61873 L51.386257,-255.2544 L51.96365,-254.88759 L52.539463,-254.51836 L53.113712,-254.14671 L53.686413,-253.77275 L54.257584,-253.39648 L54.827248,-253.01796 L55.395416,-252.63725 L55.962112,-252.2544 L56.527336,-251.8694 L57.091095,-251.48228 L57.653393,-251.0931 L58.214233,-250.70184 L58.773636,-250.30858 L59.331596,-249.91328 L59.888123,-249.51602 L60.443226,-249.1168 L60.99691,-248.71567 L61.54919,-248.3126 L62.100067,-247.90768 L62.64955,-247.50089 L63.197655,-247.09227 L63.74438,-246.68184 L64.28974,-246.26964 L64.83375,-245.85567 L65.3764,-245.43996 L65.917725,-245.02255 L66.45772,-244.60344 L66.99639,-244.18268 L67.53377,-243.76027 L68.06983,-243.33626 L68.60462,-242.91063 L69.13813,-242.48344 L69.67038,-242.05472 L70.20138,-241.62445 L70.73113,-241.19269 L71.25965,-240.75945 L71.786964,-240.32475 L72.313065,-239.88861 L72.837975,-239.45108 L73.361694,-239.01215 L73.88425,-238.57184 L74.405655,-238.13019 L74.92591,-237.68721 L75.44503,-237.24294 L75.963036,-236.79738 L76.479935,-236.35056 L76.99574,-235.9025 L77.510475,-235.45322 L78.02414,-235.00275 L78.53676,-234.5511 L79.04833,-234.0983 L79.55889,-233.64435 L80.068436,-233.1893 L80.576996,-232.73315 L81.084564,-232.27594 L81.59117,-231.81767 L82.096825,-231.35837 L82.60154,-230.89806 L83.10533,-230.43677 L83.60823,-229.97449 L84.11023,-229.51126 L84.61135,-229.0471 L85.11162,-228.58203 L85.61104,-228.11606 L86.10962,-227.64923 L86.60739,-227.18153 L87.10437,-226.71301 L87.600555,-226.24367 L88.09598,-225.77354 L88.59066,-225.30263 L89.084595,-224.83095 L89.57782,-224.35855 L90.070335,-223.8854 L90.562164,-223.41158 L91.05332,-222.93707 L91.54383,-222.46188 L92.03371,-221.98607 L92.52296,-221.50961 L93.011604,-221.03255 L93.499664,-220.5549 L93.98715,-220.07668 L94.47409,-219.5979 L94.96049,-219.11859 L95.44637,-218.63876 L95.93176,-218.15843 L96.41666,-217.67761 L96.901085,-217.19635 L97.38506,-216.71463 L97.8686,-216.23248 L98.35173,-215.74992 L98.83446,-215.26697 L99.3168,-214.78365 L99.79879,-214.29997 L100.280426,-213.81595 L100.761734,-213.3316 L101.24274,-212.84695 L101.72344,-212.36203 L102.203865,-211.87683 L102.68404,-211.39137 L103.16397,-210.90569 L103.64367,-210.41978 L104.12318,-209.93369 L104.60249,-209.4474 L105.08163,-208.96095 L105.56062,-208.47437 L106.03948,-207.98764 L106.51822,-207.5008 L106.99687,-207.01387 L107.47543,-206.52686 L107.95393,-206.0398 L108.43239,-205.55267 L108.91081,-205.06554 L109.38924,-204.57838 L109.86766,-204.09125 L110.34612,-203.60414 L110.82465,-203.1171 L111.30327,-202.63014 L111.782,-202.14328 L112.26086,-201.65657 L112.73988,-201.17 L113.2191,-200.68362 L113.698524,-200.19745 L114.178185,-199.7115 L114.65811,-199.22581 L115.13832,-198.7404 L115.61885,-198.2553 L116.09971,-197.77051 L116.580925,-197.28609 L117.06253,-196.80203 L117.54454,-196.31837 L118.02699,-195.83516 L118.509895,-195.35237 L118.993286,-194.87007 L119.47719,-194.38828 L119.96162,-193.90701 L120.446594,-193.42628 L120.93216,-192.94614 L121.41832,-192.46658 L121.90512,-191.98767 L122.39257,-191.5094 L122.880684,-191.03181 L123.3695,-190.55492 L123.85905,-190.07877 L124.34933,-189.60336 L124.840385,-189.12874 L125.33223,-188.6549 L125.82489,-188.18193 L126.31838,-187.70981 L126.81274,-187.23856 L127.307976,-186.76823 L127.804115,-186.29884 L128.30118,-185.83041 L128.7992,-185.36298 L129.29819,-184.89656 L129.79817,-184.4312 L130.29916,-183.9669 L130.80121,-183.50371 L131.30429,-183.04164 L131.80846,-182.58073 L132.31372,-182.12102 L132.8201,-181.6625 L133.32764,-181.20525 L133.83632,-180.74925 L134.34618,-180.29456 L134.85725,-179.84119 L135.36954,-179.38916 L135.88307,-178.93854 L136.39786,-178.48932 L136.91393,-178.04155 L137.43127,-177.59526 L137.94997,-177.15047 L138.46997,-176.70721 L138.99133,-176.26552 L139.51405,-175.82542 L140.03818,-175.38695 L140.5637,-174.95013 L141.09067,-174.515 L141.61903,-174.0816 L142.14888,-173.64993 L142.68018,-173.22006 L143.21298,-172.79199 L143.74727,-172.36577 L144.28308,-171.94144 L144.82043,-171.519 L145.35934,-171.09851 L145.8998,-170.68001 L146.44183,-170.2635 L146.98544,-169.84904 L147.53067,-169.43665 L148.07753,-169.02637 L148.62599,-168.61824 L149.1761,-168.21228 L149.72786,-167.80855 L150.2813,-167.40704 L150.8364,-167.00783 L151.39319,-166.61092 L151.95168,-166.21637 L152.51187,-165.82422 L153.07376,-165.43448 L153.6374,-165.0472 L154.20277,-164.6624 L154.7699,-164.28015 L155.33875,-163.90045 L155.90936,-163.52336 L156.48175,-163.14893 L157.05592,-162.77716 L157.63185,-162.4081 L158.20958,-162.0418 L158.7891,-161.67828 L159.3704,-161.31761 L159.95349,-160.9598 L160.5384,-160.60489 L161.12512,-160.25291 L161.71365,-159.90393 L162.30397,-159.55797 L162.89612,-159.21506 L163.49008,-158.87526 L164.08585,-158.53859 L164.68344,-158.20511 L165.28285,-157.87485 L165.88408,-157.54784 L166.4871,-157.22414 L167.09196,-156.9038 L167.69861,-156.58682 L168.3071,-156.27328 L168.91737,-155.96323 L169.52945,-155.6567 L170.14336,-155.35371 L170.75903,-155.05434 L171.3765,-154.75862 L171.99577,-154.46658 L172.61679,-154.17828 L173.2396,-153.89377 L173.86417,-153.61308 L174.4905,-153.33626 L175.11856,-153.06334 L175.74835,-152.79439 L176.37987,-152.52943 L177.0131,-152.26854 L177.64804,-152.01172 L178.28467,-151.75905 L178.92294,-151.51056 L179.56288,-151.2663 L180.20447,-151.0263 L180.8477,-150.79062 L181.49251,-150.55931 L182.13892,-150.33241 L182.78691,-150.10997 L183.43645,-149.89203 L184.08752,-149.67862 L184.74011,-149.46982 L185.39417,-149.26564 L186.04973,-149.06616 L186.70671,-148.8714 L187.36511,-148.68141 L188.0249,-148.49625 L188.68608,-148.31595 L189.3486,-148.14056 L190.01242,-147.97012 L190.67754,-147.8047 L191.34389,-147.64432 L192.01149,-147.48901 L192.68027,-147.33887 L193.35022,-147.1939 L194.0213,-147.05414 L194.69347,-146.91966 L195.3667,-146.79051 L196.04095,-146.66672 L196.71619,-146.54832 L197.39236,-146.43538 L198.06947,-146.32793 L198.74744,-146.22601 L199.42624,-146.12967 L200.10582,-146.03896 L200.78615,-145.95392 L201.46716,-145.87457 L202.14886,-145.80098 L202.83116,-145.73318 L203.514,-145.67123 L204.19739,-145.61514 L204.88124,-145.56497 L205.56549,-145.52075 L206.25014,-145.48254 L206.93507,-145.45036 L207.62029,-145.42426 L208.30568,-145.40427 L208.99127,-145.39043 L209.67694,-145.38278 L210.36264,-145.38136 L211.04832,-145.38622 L211.73396,-145.39737 L212.41945,-145.41486 L213.10474,-145.43872 L213.78976,-145.469 L214.47447,-145.5057 L215.1588,-145.54889 L215.84268,-145.59859 L216.52605,-145.65482 L217.20882,-145.71762 L217.89095,-145.78703 L218.57236,-145.86307 L219.25299,-145.94577 L219.93274,-146.03517 L220.61157,-146.13132 L221.28938,-146.23418 L221.96616,-146.34367 L222.6418,-146.45975 L223.31627,-146.58237 L223.98952,-146.71144 L224.66148,-146.84692 L225.3321,-146.98875 L226.00136,-147.13687 L226.66917,-147.2912 L227.33551,-147.4517 L228.00034,-147.6183 L228.66356,-147.79094 L229.3252,-147.96956 L229.98518,-148.1541 L230.64348,-148.34448 L231.30002,-148.54065 L231.95482,-148.74257 L232.6078,-148.95013 L233.25894,-149.16331 L233.90822,-149.38202 L234.55559,-149.60622 L235.20102,-149.83583 L235.8445,-150.0708 L236.486,-150.31105 L237.12546,-150.55653 L237.7629,-150.80719 L238.39825,-151.06294 L239.03152,-151.32375 L239.66269,-151.58952 L240.29173,-151.86021 L240.91861,-152.13577 L241.54333,-152.41612 L242.16588,-152.7012 L242.78622,-152.99097 L243.40436,-153.28534 L244.02026,-153.58426 L244.63393,-153.88768 L245.24535,-154.19551 L245.85452,-154.50772 L246.46141,-154.82425 L247.06602,-155.14503 L247.66838,-155.47 L248.26842,-155.7991 L248.8662,-156.13228 L249.46167,-156.46947 L250.05482,-156.81062 L250.6457,-157.15567 L251.23427,-157.50458 L251.82056,-157.85725 L252.40453,-158.21367 L252.98622,-158.57376 L253.5656,-158.93747 L254.14268,-159.30473 L254.71751,-159.67549 L255.29004,-160.04973 L255.8603,-160.42734 L256.4283,-160.8083 L256.99405,-161.19255 L257.55756,-161.58005 L258.1188,-161.9707 L258.67783,-162.3645 L259.23462,-162.76138 L259.7892,-163.16129 L260.3416,-163.56415 L260.89185,-163.96996 L261.43994,-164.37862 L261.98584,-164.79012 L262.52963,-165.20436 L263.0713,-165.62135 L263.61084,-166.041 L264.14832,-166.46327 L264.68372,-166.88812 L265.2171,-167.31549 L265.7484,-167.74535 L266.27774,-168.17764 L266.80505,-168.6123 L267.3304,-169.04932 L267.85385,-169.48862 L268.37534,-169.93016 L268.8949,-170.3739 L269.41263,-170.81981 L269.92847,-171.2678 L270.4425,-171.71788 L270.9547,-172.16998 L271.46515,-172.62405 L271.97382,-173.08006 L272.48074,-173.53798 L272.98593,-173.99779 L273.48938,-174.45947 L273.9911,-174.92299 L274.49112,-175.38832 L274.98944,-175.85545 L275.48602,-176.32434 L275.981,-176.79498 L276.47424,-177.26735 L276.96585,-177.74141 L277.4558,-178.21713 L277.94412,-178.69452 L278.43085,-179.17352 L278.91595,-179.65414 L279.3994,-180.13634 L279.88135,-180.62009 L280.36166,-181.10538 L280.84045,-181.59218 L281.3177,-182.08047 L281.7934,-182.57024 L282.26755,-183.06146 L282.7402,-183.5541 L283.2114,-184.04814 L283.6811,-184.54358 L284.14932,-185.04036 L284.6161,-185.5385 L285.08142,-186.03795 L285.54535,-186.5387 L286.00787,-187.04074 L286.46896,-187.54402 L286.9287,-188.04855 L287.3871,-188.55429 L287.84412,-189.06123 L288.29984,-189.56937 L288.75418,-190.07864 L289.20728,-190.58905 L289.65906,-191.10059 L290.1096,-191.61322 L290.5589,-192.12694 L291.0069,-192.64171 L291.4537,-193.15753 L291.89935,-193.67436 L292.34378,-194.1922 L292.78705,-194.71103 L293.22916,-195.23083 L293.6701,-195.75157 L294.10995,-196.27324 L294.5487,-196.79582 L294.9864,-197.3193 L295.42297,-197.84366 L295.85852,-198.36887 L296.29303,-198.89491 L296.72653,-199.42178 L297.15906,-199.94946 L297.59058,-200.47794 L298.02115,-201.00717 L298.45078,-201.53716 L298.87946,-202.06789 L299.30725,-202.59932 L299.73416,-203.13147 L300.1602,-203.6643 L300.5854,-204.1978 L301.00974,-204.73195 L301.43326,-205.26674 L301.85602,-205.80214 L302.27795,-206.33815 L302.69916,-206.87474 L303.11963,-207.4119 L303.53937,-207.94962 L303.9584,-208.48787 L304.37677,-209.02664 L304.7945,-209.56592 L305.21155,-210.10568 L305.628,-210.64594 L306.0438,-211.18663 L306.45905,-211.72778 L306.87372,-212.26935 L307.28784,-212.81134 L307.70142,-213.35371 L308.1145,-213.89647 L308.52713,-214.4396 L308.93924,-214.98308 L309.35092,-215.52689 L309.7622,-216.07101 L310.17303,-216.61545 L310.5835,-217.16017 L310.99356,-217.70517 L311.40332,-218.25043 L311.81268,-218.79593 L312.2218,-219.34166 L312.63058,-219.8876 L313.03912,-220.43375 L313.4474,-220.98009 L313.85547,-221.52658 L314.2633,-222.07323 L314.67093,-222.62003 L315.0784,-223.16695 L315.48572,-223.71397 L315.89294,-224.2611 L316.30002,-224.8083 L316.707,-225.35558 L317.11392,-225.90291 L317.52078,-226.45027 L317.9276,-226.99765 L318.33444,-227.54504 L318.74127,-228.09244 L319.14816,-228.6398 L319.55508,-229.18712 L319.96207,-229.7344 L320.3691,-230.28162 L320.77634,-230.82875 L321.18362,-231.37578 L321.59106,-231.9227 L321.99872,-232.46951 L322.40656,-233.01617 L322.81458,-233.56268 L323.22284,-234.10902 L323.63135,-234.65518 L324.04016,-235.20113 L324.44922,-235.74687 L324.85858,-236.29239 L325.2683,-236.83766 L325.67838,-237.38268 L326.0888,-237.92741 L326.4996,-238.47186 L326.91086,-239.01602 L327.3225,-239.55984 L327.73462,-240.10333 L328.14722,-240.64648 L328.56027,-241.18927 L328.97382,-241.73167 L329.3879,-242.27368 L329.80255,-242.81528 L330.21777,-243.35645 L330.63354,-243.89717 L331.04996,-244.43744 L331.46698,-244.97725 L331.8846,-245.51656 L332.30295,-246.05536 L332.72195,-246.59364 L333.14166,-247.1314 L333.56207,-247.66858 L333.98322,-248.20522 L334.40515,-248.74126 L334.82785,-249.2767 L335.25134,-249.81152 L335.67566,-250.3457 L336.10077,-250.87924 L336.52676,-251.41211 L336.95358,-251.9443 L337.38135,-252.47578 L337.80997,-253.00655 L338.23956,-253.53659 L338.67004,-254.06587 L339.10153,-254.59438 L339.53397,-255.1221 L339.9674,-255.64903 L340.40186,-256.1751 L340.83737,-256.70038 L341.2739,-257.2248 L341.7115,-257.74832 L342.1502,-258.27097 L342.58997,-258.7927 L343.03085,-259.31348 L343.4729,-259.83334 L343.91608,-260.3522 L344.36047,-260.87012 L344.806,-261.38702 L345.25275,-261.9029 L345.7007,-262.41772 L346.1499,-262.93152 L346.60037,-263.4442 L347.0521,-263.9558 L347.50507,-264.46628 L347.9594,-264.97565 L348.415,-265.48383 L348.87195,-265.99084 L349.33026,-266.49664 L349.78992,-267.00125 L350.25095,-267.5046 L350.71338,-268.0067 L351.17722,-268.50754 L351.6425,-269.00708 L352.10916,-269.5053 L352.5773,-270.00217 L353.0469,-270.49768 L353.51797,-270.99182 L353.99057,-271.48453 L354.46466,-271.97583 L354.94025,-272.4657 L355.4174,-272.95407 L355.89606,-273.44098 L356.3763,-273.92633 L356.85815,-274.4102 L357.34155,-274.8925 L357.82654,-275.37317 L358.31314,-275.8523 L358.8014,-276.32977 L359.29123,-276.8056 L359.78275,-277.27975 L360.2759,-277.75223 L360.77075,-278.22296 L361.26727,-278.69196 L361.7655,-279.15918 L362.2654,-279.62463 L362.76703,-280.08826 L363.27036,-280.55005 L363.77545,-281.00995 L364.28226,-281.46802 L364.79083,-281.92413 L365.30118,-282.37833 L365.81326,-282.83054 L366.32718,-283.28073 L366.84293,-283.72885 L367.3605,-284.1749 L367.87997,-284.61877 L368.40137,-285.06042 L368.92465,-285.49988 L369.44992,-285.937 L369.9771,-286.37183 L370.50632,-286.80426 L371.03754,-287.23425 L371.57077,-287.66177 L372.10605,-288.0868 L372.6434,-288.50922 L373.18283,-288.92902 L373.72437,-289.34616 L374.26804,-289.7606 L374.8138,-290.17224 L375.36172,-290.5811 L375.91183,-290.98703 L376.4641,-291.39008 L377.01862,-291.79016 L377.5753,-292.18723 L378.1342,-292.5812 L378.6953,-292.97208 L379.25864,-293.35974 L379.82425,-293.7442 L380.39212,-294.12534 L380.96225,-294.50317 L381.53464,-294.8776 L382.10934,-295.24857 L382.68628,-295.61606 L383.26553,-295.97995 L383.84708,-296.34027 L384.4309,-296.6969 L385.01706,-297.0498 L385.6055,-297.39893 L386.19623,-297.7442 L386.78928,-298.0856 L387.3846,-298.42303 L387.9822,-298.75644 L388.58215,-299.0858 L389.18436,-299.411 L389.78885,-299.73203 L390.3956,-300.04883 L391.00464,-300.3613 L391.6159,-300.6694 L392.22943,-300.97305 L392.8452,-301.27225 L393.4632,-301.5669 L394.0834,-301.85693 L394.70584,-302.1423 L395.33044,-302.42294 L395.9572,-302.69876 L396.58612,-302.96976 L397.21713,-303.23584 L397.85028,-303.49692 L398.48553,-303.753 L399.12283,-304.00394 L399.7622,-304.24973 L400.40356,-304.4903 L401.0469,-304.7256 L401.69223,-304.9555 L402.3395,-305.18005 L402.98865,-305.39908 L403.63968,-305.61258 L404.29257,-305.8205 L404.94727,-306.02274 L405.6037,-306.21927 L406.2619,-306.41 L406.92175,-306.59488 L407.58328,-306.77383 L408.24646,-306.94684 L408.91116,-307.1138 L409.57745,-307.27466 L410.24515,-307.42935 L410.9143,-307.57785 L411.58487,-307.72006 L412.25677,-307.85593 L412.92993,-307.98538 L413.6043,-308.10837 L414.2799,-308.22485 L414.9566,-308.33475 L415.63437,-308.438" fill="none" stroke="#D8CC1A" stroke-linejoin="round" stroke-width="2"/>
</g>
</g>
<g transform="translate(380, -286)">
<text font-size="12" text-anchor="start" x="0" y="0">
curvature error s=2.968
</text>
<line stroke="#D8CC1A" stroke-width="2" x1="-10" x2="-3" y1="-4" y2="-4"/>
</g>
<g>
<g>
<path d="M0.68570286,-272.0034 L0.68570286,-272.0034 L1.3714057,-271.99997 L2.05704,-271.98978 L2.742539,-271.97284 L3.4278376,-271.94925 L4.1128716,-271.91904 L4.797579,-271.88223 L5.4818983,-271.83893 L6.1657705,-271.78915 L6.8491373,-271.73297 L7.531942,-271.6704 L8.214129,-271.60156 L8.895647,-271.52646 L9.576441,-271.44516 L10.256461,-271.35773 L10.9356575,-271.26422 L11.613983,-271.16467 L12.291389,-271.05917 L12.9678335,-270.94772 L13.6432705,-270.83044 L14.3176565,-270.70737 L14.990951,-270.57855 L15.663115,-270.44403 L16.334108,-270.30392 L17.003895,-270.1582 L17.67244,-270.007 L18.339705,-269.85034 L19.005661,-269.6883 L19.670273,-269.5209 L20.33351,-269.3482 L20.995342,-269.17035 L21.655745,-268.9873 L22.314688,-268.79913 L22.972145,-268.60596 L23.62809,-268.40778 L24.282503,-268.20468 L24.935358,-267.9967 L25.586637,-267.78394 L26.236319,-267.5664 L26.88438,-267.34418 L27.530811,-267.1173 L28.175587,-266.8859 L28.818695,-266.64993 L29.460123,-266.40952 L30.099855,-266.1647 L30.737879,-265.91556 L31.374182,-265.6621 L32.00875,-265.40442 L32.641586,-265.14258 L33.27267,-264.8766 L33.901997,-264.60657 L34.529564,-264.33252 L35.155357,-264.05453 L35.77938,-263.77264 L36.401627,-263.48694 L37.02209,-263.19742 L37.640774,-262.9042 L38.257675,-262.6073 L38.87279,-262.3068 L39.486126,-262.00272 L40.09768,-261.69513 L40.70745,-261.3841 L41.31545,-261.06964 L41.92167,-260.75183 L42.526127,-260.43076 L43.128822,-260.10645 L43.72976,-259.77893 L44.328953,-259.44827 L44.9264,-259.11453 L45.522114,-258.77777 L46.1161,-258.43802 L46.708378,-258.09534 L47.298946,-257.74976 L47.887825,-257.40137 L48.47502,-257.0502 L49.060555,-256.69632 L49.64443,-256.33972 L50.22666,-255.98051 L50.807262,-255.61873 L51.386257,-255.2544 L51.96365,-254.88759 L52.539463,-254.51836 L53.113712,-254.14671 L53.686413,-253.77275 L54.257584,-253.39648 L54.827248,-253.01796 L55.395416,-252.63725 L55.962112,-252.2544 L56.527336,-251.8694 L57.091095,-251.48228 L57.653393,-251.0931 L58.214233,-250.70184 L58.773636,-250.30858 L59.331596,-249.91328 L59.888123,-249.51602 L60.443226,-249.1168 L60.99691,-248.71567 L61.54919,-248.3126 L62.100067,-247.90768 L62.64955,-247.50089 L63.197655,-247.09227 L63.74438,-246.68184 L64.28974,-246.26964 L64.83375,-245.85567 L65.3764,-245.43996 L65.917725,-245.02255 L66.45772,-244.60344 L66.99639,-244.18268 L67.53377,-243.76027 L68.06983,-243.33626 L68.60462,-242.91063 L69.13813,-242.48344 L69.67038,-242.05472 L70.20138,-241.62445 L70.73113,-241.19269 L71.25965,-240.75945 L71.786964,-240.32475 L72.313065,-239.88861 L72.837975,-239.45108 L73.361694,-239.01215 L73.88425,-238.57184 L74.405655,-238.13019 L74.92591,-237.68721 L75.44503,-237.24294 L75.963036,-236.79738 L76.479935,-236.35056 L76.99574,-235.9025 L77.510475,-235.45322 L78.02414,-235.00275 L78.53676,-234.5511 L79.04833,-234.0983 L79.55889,-233.64435 L80.068436,-233.1893 L80.576996,-232.73315 L81.084564,-232.27594 L81.59117,-231.81767 L82.096825,-231.35837 L82.60154,-230.89806 L83.10533,-230.43677 L83.60823,-229.97449 L84.11023,-229.51126 L84.61135,-229.0471 L85.11162,-228.58203 L85.61104,-228.11606 L86.10962,-227.64923 L86.60739,-227.18153 L87.10437,-226.71301 L87.600555,-226.24367 L88.09598,-225.77354 L88.59066,-225.30263 L89.084595,-224.83095 L89.57782,-224.35855 L90.070335,-223.8854 L90.562164,-223.41158 L91.05332,-222.93707 L91.54383,-222.46188 L92.03371,-221.98607 L92.52296,-221.50961 L93.011604,-221.03255 L93.499664,-220.5549 L93.98715,-220.07668 L94.47409,-219.5979 L94.96049,-219.11859 L95.44637,-218.63876 L95.93176,-218.15843 L96.41666,-217.67761 L96.901085,-217.19635 L97.38506,-216.71463 L97.8686,-216.23248 L98.35173,-215.74992 L98.83446,-215.26697 L99.3168,-214.78365 L99.79879,-214.29997 L100.280426,-213.81595 L100.761734,-213.3316 L101.24274,-212.84695 L101.72344,-212.36203 L102.203865,-211.87683 L102.68404,-211.39137 L103.16397,-210.90569 L103.64367,-210.41978 L104.12318,-209.93369 L104.60249,-209.4474 L105.08163,-208.96095 L105.56062,-208.47437 L106.03948,-207.98764 L106.51822,-207.5008 L106.99687,-207.01387 L107.47543,-206.52686 L107.95393,-206.0398 L108.43239,-205.55267 L108.91081,-205.06554 L109.38924,-204.57838 L109.86766,-204.09125 L110.346115,-203.60413 L110.824615,-203.11707 L111.30318,-202.63005 L111.781815,-202.14311 L112.26057,-201.65628 L112.73942,-201.16956 L113.2184,-200.68295 L113.69755,-200.1965 L114.176865,-199.71022 L114.65636,-199.2241 L115.136055,-198.7382 L115.61598,-198.25252 L116.09615,-197.76706 L116.57658,-197.28185 L117.05727,-196.79692 L117.53826,-196.31227 L118.01957,-195.82791 L118.50119,-195.34389 L118.98318,-194.8602 L119.465515,-194.37688 L119.948235,-193.89392 L120.43135,-193.41135 L120.91489,-192.9292 L121.39886,-192.44746 L121.88327,-191.96619 L122.36816,-191.48537 L122.85354,-191.00502 L123.3394,-190.52518 L123.82579,-190.04587 L124.31272,-189.56708 L124.8002,-189.08884 L125.288246,-188.61118 L125.776886,-188.13411 L126.26612,-187.65764 L126.75599,-187.18181 L127.24648,-186.70662 L127.737625,-186.23209 L128.22945,-185.75824 L128.72195,-185.2851 L129.21516,-184.81267 L129.70908,-184.34099 L130.20374,-183.87006 L130.69914,-183.3999 L131.19533,-182.93054 L131.69228,-182.462 L132.19005,-181.9943 L132.68861,-181.52745 L133.18802,-181.06146 L133.68826,-180.59637 L134.18936,-180.1322 L134.69135,-179.66896 L135.19423,-179.20667 L135.698,-178.74533 L136.2027,-178.285 L136.70834,-177.82568 L137.21492,-177.3674 L137.72249,-176.91016 L138.23102,-176.454 L138.74054,-175.99892 L139.25107,-175.54497 L139.76262,-175.09213 L140.27522,-174.64047 L140.78886,-174.18997 L141.30359,-173.74066 L141.81937,-173.29259 L142.33626,-172.84573 L142.85423,-172.40016 L143.37334,-171.95586 L143.89357,-171.51285 L144.41495,-171.07117 L144.93747,-170.63084 L145.46118,-170.19188 L145.98605,-169.7543 L146.51213,-169.31815 L147.03941,-168.88342 L147.56792,-168.45015 L148.09766,-168.01836 L148.62862,-167.58807 L149.16084,-167.1593 L149.69434,-166.73209 L150.2291,-166.30644 L150.76514,-165.88239 L151.30249,-165.45995 L151.84113,-165.03915 L152.38109,-164.62001 L152.9224,-164.20256 L153.46503,-163.78682 L154.009,-163.37282 L154.55434,-162.96057 L155.10104,-162.55011 L155.64911,-162.14146 L156.19856,-161.73463 L156.74942,-161.32967 L157.30165,-160.92657 L157.85532,-160.52539 L158.4104,-160.12613 L158.9669,-159.72884 L159.52484,-159.33351 L160.08421,-158.9402 L160.64502,-158.5489 L161.20728,-158.15968 L161.77101,-157.77254 L162.33621,-157.3875 L162.90286,-157.00458 L163.47101,-156.62381 L164.04065,-156.24525 L164.61182,-155.869 L165.18456,-155.4951 L165.75893,-155.12364 L166.33493,-154.7547 L166.91261,-154.38835 L167.49202,-154.02466 L168.07317,-153.66371 L168.65607,-153.30557 L169.24077,-152.95035 L169.82732,-152.59808 L170.41568,-152.24887 L171.00595,-151.9028 L171.59813,-151.55994 L172.19221,-151.22037 L172.78827,-150.88417 L173.38628,-150.55144 L173.98628,-150.22224 L174.58829,-149.89665 L175.19232,-149.57478 L175.79839,-149.25668 L176.4065,-148.94247 L177.01668,-148.6322 L177.62892,-148.32599 L178.24326,-148.02391 L178.85968,-147.72603 L179.4782,-147.43246 L180.09882,-147.1433 L180.72153,-146.85858 L181.34636,-146.57846 L181.97328,-146.303 L182.60231,-146.03226 L183.23343,-145.76637 L183.86664,-145.50542 L184.50192,-145.24948 L185.13928,-144.99866 L185.77869,-144.75304 L186.42015,-144.51271 L187.06363,-144.27777 L187.70914,-144.04831 L188.35663,-143.82443 L189.00606,-143.60622 L189.65746,-143.39375 L190.31075,-143.18716 L190.96593,-142.98653 L191.62296,-142.79193 L192.28181,-142.60347 L192.94244,-142.42125 L193.60481,-142.24535 L194.2689,-142.07588 L194.93462,-141.91293 L195.60197,-141.75659 L196.27089,-141.60696 L196.9413,-141.46414 L197.61316,-141.32822 L198.28644,-141.19928 L198.96104,-141.07744 L199.63693,-140.96277 L200.31404,-140.85536 L200.9923,-140.75534 L201.67163,-140.66277 L202.35194,-140.57774 L203.03322,-140.50035 L203.71532,-140.4307 L204.39818,-140.36887 L205.08174,-140.31494 L205.76588,-140.26903 L206.45052,-140.23119 L207.13557,-140.2015 L207.82095,-140.1801 L208.50653,-140.16702 L209.19223,-140.16238 L209.87793,-140.16624 L210.56352,-140.17868 L211.2489,-140.1998 L211.93396,-140.22964 L212.61855,-140.26831 L213.30257,-140.31587 L213.98592,-140.3724 L214.66843,-140.43797 L215.34998,-140.51263 L216.03046,-140.59648 L216.70972,-140.68956 L217.38762,-140.79193 L218.06398,-140.90375 L218.73872,-141.0249 L219.4117,-141.15529 L220.08284,-141.29482 L220.75197,-141.44337 L221.41905,-141.60086 L222.08392,-141.76715 L222.74655,-141.94214 L223.40678,-142.12575 L224.06458,-142.31783 L224.7198,-142.5183 L225.3724,-142.72702 L226.02231,-142.94392 L226.66942,-143.16885 L227.31366,-143.40173 L227.95496,-143.64244 L228.59328,-143.89085 L229.22855,-144.14687 L229.86067,-144.41037 L230.48964,-144.68124 L231.11534,-144.9594 L231.7378,-145.24469 L232.3569,-145.53703 L232.97263,-145.83632 L233.58493,-146.14241 L234.19377,-146.45522 L234.79913,-146.77463 L235.40097,-147.10052 L235.99922,-147.43282 L236.59392,-147.77136 L237.18498,-148.11609 L237.7724,-148.46687 L238.35619,-148.82361 L238.9363,-149.18619 L239.5127,-149.5545 L240.0854,-149.92847 L240.6544,-150.30795 L241.21968,-150.69287 L241.78122,-151.08313 L242.33904,-151.47859 L242.89313,-151.8792 L243.4435,-152.28482 L243.99013,-152.69536 L244.53304,-153.11075 L245.07224,-153.53085 L245.60773,-153.9556 L246.13951,-154.38489 L246.66762,-154.81863 L247.19206,-155.25671 L247.71284,-155.69907 L248.23,-156.1456 L248.74355,-156.5962 L249.25351,-157.0508 L249.7599,-157.5093 L250.26276,-157.97162 L250.76207,-158.43767 L251.25793,-158.90736 L251.75032,-159.38062 L252.23927,-159.85736 L252.72485,-160.3375 L253.20708,-160.82095 L253.68596,-161.30765 L254.16156,-161.7975 L254.63391,-162.29044 L255.10306,-162.78638 L255.56903,-163.28523 L256.0319,-163.78696 L256.49164,-164.29146 L256.94836,-164.79868 L257.4021,-165.30852 L257.85287,-165.82094 L258.30075,-166.33585 L258.7458,-166.8532 L259.188,-167.3729 L259.62744,-167.89488 L260.0642,-168.4191 L260.49832,-168.94548 L260.92984,-169.47397 L261.3588,-170.00449 L261.78528,-170.53697 L262.2093,-171.07137 L262.63095,-171.6076 L263.05026,-172.14565 L263.46732,-172.68541 L263.88217,-173.22685 L264.2949,-173.7699 L264.7055,-174.3145 L265.114,-174.86066 L265.52045,-175.40833 L265.92484,-175.9575 L266.32718,-176.50815 L266.72748,-177.06026 L267.12573,-177.6138 L267.522,-178.16875 L267.91632,-178.7251 L268.30862,-179.2828 L268.69897,-179.84187 L269.0874,-180.40225 L269.47388,-180.96396 L269.85846,-181.52693 L270.24115,-182.09119 L270.62198,-182.65668 L271.00095,-183.2234 L271.37805,-183.79134 L271.75333,-184.36046 L272.12683,-184.93074 L272.4985,-185.50218 L272.8684,-186.07475 L273.23657,-186.64842 L273.603,-187.2232 L273.9677,-187.79904 L274.33072,-188.37595 L274.69202,-188.95389 L275.05164,-189.53287 L275.40967,-190.11282 L275.76602,-190.69379 L276.1208,-191.27571 L276.47397,-191.85858 L276.82556,-192.4424 L277.17557,-193.02711 L277.5241,-193.61275 L277.8711,-194.19926 L278.21655,-194.78665 L278.56058,-195.37488 L278.9031,-195.96394 L279.24423,-196.55385 L279.58392,-197.14453 L279.9222,-197.73602 L280.25912,-198.32828 L280.59473,-198.9213 L280.92896,-199.51506 L281.26184,-200.10954 L281.5934,-200.70474 L281.92377,-201.30064 L282.25284,-201.89723 L282.58066,-202.49449 L282.90726,-203.0924 L283.23267,-203.69095 L283.5569,-204.29013 L283.87997,-204.88992 L284.20193,-205.49031 L284.52274,-206.0913 L284.8425,-206.69284 L285.16116,-207.29495 L285.4788,-207.8976 L285.7954,-208.5008 L286.11096,-209.10449 L286.42557,-209.70871 L286.7392,-210.31342 L287.05188,-210.9186 L287.36365,-211.52425 L287.67453,-212.13036 L287.9845,-212.73691 L288.2936,-213.34389 L288.60193,-213.9513 L288.9094,-214.5591 L289.21606,-215.1673 L289.52197,-215.77588 L289.82715,-216.38483 L290.1316,-216.99413 L290.43533,-217.60379 L290.7384,-218.21378 L291.04077,-218.82408 L291.3425,-219.43471 L291.64365,-220.04562 L291.9442,-220.65683 L292.24417,-221.26831 L292.54358,-221.88007 L292.84247,-222.49207 L293.14084,-223.10431 L293.43875,-223.7168 L293.7362,-224.3295 L294.03317,-224.9424 L294.32977,-225.55551 L294.62595,-226.1688 L294.92175,-226.78227 L295.21722,-227.3959 L295.5124,-228.00969 L295.80722,-228.62363 L296.10175,-229.2377 L296.39606,-229.85188 L296.6901,-230.46619 L296.98395,-231.0806 L297.27762,-231.69508 L297.57108,-232.30966 L297.8644,-232.9243 L298.1576,-233.539 L298.45074,-234.15375 L298.74374,-234.76854 L299.0367,-235.38335 L299.32965,-235.99817 L299.62256,-236.613 L299.9155,-237.22784 L300.20847,-237.84265 L300.50146,-238.45744 L300.7946,-239.07219 L301.08777,-239.68689 L301.3811,-240.30154 L301.67456,-240.91612 L301.96823,-241.53061 L302.26202,-242.14502 L302.5561,-242.75934 L302.85037,-243.37354 L303.1449,-243.98761 L303.4397,-244.60155 L303.73483,-245.21535 L304.03027,-245.829 L304.32605,-246.44247 L304.62222,-247.05577 L304.9188,-247.66888 L305.21576,-248.28181 L305.51318,-248.89453 L305.81104,-249.50702 L306.1094,-250.11928 L306.40826,-250.7313 L306.70764,-251.34306 L307.00757,-251.95456 L307.3081,-252.56578 L307.6092,-253.17673 L307.91092,-253.78735 L308.21326,-254.39769 L308.51627,-255.00769 L308.81995,-255.61737 L309.12433,-256.22668 L309.42947,-256.83566 L309.73535,-257.44427 L310.042,-258.0525 L310.34943,-258.6603 L310.65765,-259.26773 L310.96674,-259.87476 L311.27664,-260.48132 L311.58746,-261.08746 L311.89917,-261.69315 L312.21182,-262.29837 L312.5254,-262.90308 L312.83994,-263.50732 L313.15546,-264.11105 L313.472,-264.7143 L313.78955,-265.317 L314.10815,-265.9191 L314.42783,-266.5207 L314.7486,-267.1217 L315.07047,-267.72214 L315.3935,-268.32196 L315.71765,-268.92117 L316.04297,-269.51978 L316.36954,-270.1177 L316.6973,-270.71503 L317.0263,-271.31165 L317.35654,-271.90756 L317.68805,-272.5028 L318.02087,-273.09735 L318.355,-273.69116 L318.6905,-274.2842 L319.02734,-274.87653 L319.36554,-275.46805 L319.70517,-276.0588 L320.0462,-276.64874 L320.38867,-277.23785 L320.73257,-277.82614 L321.078,-278.41357 L321.42487,-279.00012 L321.77332,-279.58582 L322.12323,-280.1706 L322.47473,-280.75446 L322.82782,-281.3374 L323.18246,-281.91937 L323.53873,-282.5004 L323.89664,-283.0804 L324.25623,-283.65945 L324.61743,-284.23746 L324.9803,-284.81442 L325.3449,-285.39032 L325.7112,-285.96518 L326.07928,-286.5389 L326.4491,-287.11154 L326.82068,-287.68304 L327.19403,-288.2534 L327.56924,-288.8226 L327.94623,-289.3906 L328.32507,-289.9574 L328.70578,-290.52295 L329.08838,-291.08728 L329.4728,-291.65033 L329.8592,-292.2121 L330.24753,-292.77258 L330.63776,-293.33173 L331.02997,-293.88953 L331.42413,-294.44592 L331.8203,-295.00098 L332.21844,-295.5546 L332.6186,-296.10678 L333.0208,-296.65753 L333.42508,-297.2068 L333.83142,-297.75455 L334.2398,-298.3008 L334.6503,-298.8455 L335.06287,-299.38864 L335.47757,-299.93018 L335.89447,-300.4701 L336.3135,-301.00833 L336.7348,-301.54483 L337.1584,-302.0796 L337.58423,-302.61258 L338.0124,-303.1437 L338.44296,-303.67297 L338.8759,-304.20032 L339.3112,-304.7257 L339.74896,-305.24908 L340.1892,-305.77045 L340.63196,-306.2897 L341.0772,-306.80682 L341.52502,-307.3218 L341.97543,-307.83453 L342.42844,-308.34503 L342.8841,-308.85318 L343.34238,-309.359 L343.80334,-309.86243 L344.26703,-310.3634 L344.73343,-310.86188 L345.2026,-311.3578 L345.6745,-311.8511 L346.14926,-312.34183 L346.6268,-312.8298 L347.10715,-313.31506 L347.5904,-313.79752 L348.07648,-314.27713 L348.56546,-314.75388 L349.0573,-315.22763 L349.55212,-315.69843 L350.0499,-316.16614 L350.55057,-316.63074 L351.05426,-317.0922 L351.5609,-317.5504 L352.07053,-318.00537 L352.58316,-318.457 L353.0988,-318.90524 L353.61746,-319.35004 L354.1392,-319.79132 L354.6639,-320.22906 L355.19168,-320.6632 L355.72253,-321.09366 L356.25644,-321.52036 L356.7934,-321.9433 L357.3334,-322.36234 L357.8765,-322.7775 L358.42264,-323.1887 L358.97186,-323.59583 L359.52417,-323.99887 L360.0795,-324.39774 L360.63794,-324.7924 L361.19937,-325.18274 L361.7639,-325.56876 L362.33145,-325.95035 L362.90207,-326.32745 L363.4757,-326.70004 L364.05237,-327.068 L364.63202,-327.43127 L365.21466,-327.7898 L365.8003,-328.14355 L366.3889,-328.4924 L366.98044,-328.8363 L367.57492,-329.1752 L368.1723,-329.50903 L368.77258,-329.83774 L369.37576,-330.1612 L369.98175,-330.4794 L370.59058,-330.79224 L371.20224,-331.09967 L371.81662,-331.4016 L372.43378,-331.698 L373.05362,-331.98877 L373.67618,-332.27386 L374.30136,-332.55316 L374.92917,-332.82666 L375.55954,-333.09424 L376.19247,-333.35587 L376.8279,-333.61145 L377.46582,-333.86093 L378.1061,-334.10422 L378.7488,-334.34128 L379.39386,-334.57202" fill="none" stroke="#41998B" stroke-linejoin="round" stroke-width="2"/>
</g>
</g>
<g transform="translate(380, -268)">
<text font-size="12" text-anchor="start" x="0" y="0">
curvature error s=3.820
</text>
<line stroke="#41998B" stroke-width="2" x1="-10" x2="-3" y1="-4" y2="-4"/>
</g>
<g>
<g>
<path d="M0.68570286,-272.0034 L0.68570286,-272.0034 L1.3714057,-271.99997 L2.05704,-271.98978 L2.742539,-271.97284 L3.4278376,-271.94925 L4.1128716,-271.91904 L4.797579,-271.88223 L5.4818983,-271.83893 L6.1657705,-271.78915 L6.8491373,-271.73297 L7.531942,-271.6704 L8.214129,-271.60156 L8.895647,-271.52646 L9.576441,-271.44516 L10.256461,-271.35773 L10.9356575,-271.26422 L11.613983,-271.16467 L12.291389,-271.05917 L12.9678335,-270.94772 L13.6432705,-270.83044 L14.3176565,-270.70737 L14.990951,-270.57855 L15.663115,-270.44403 L16.334108,-270.30392 L17.003895,-270.1582 L17.67244,-270.007 L18.339705,-269.85034 L19.005661,-269.6883 L19.670273,-269.5209 L20.33351,-269.3482 L20.995342,-269.17035 L21.655745,-268.9873 L22.314688,-268.79913 L22.972145,-268.60596 L23.62809,-268.40778 L24.282503,-268.20468 L24.935358,-267.9967 L25.586637,-267.78394 L26.236319,-267.5664 L26.88438,-267.34418 L27.530811,-267.1173 L28.175587,-266.8859 L28.818695,-266.64993 L29.460123,-266.40952 L30.099855,-266.1647 L30.737879,-265.91556 L31.374182,-265.6621 L32.00875,-265.40442 L32.641586,-265.14258 L33.27267,-264.8766 L33.901997,-264.60657 L34.529564,-264.33252 L35.155357,-264.05453 L35.77938,-263.77264 L36.401627,-263.48694 L37.02209,-263.19742 L37.640774,-262.9042 L38.257675,-262.6073 L38.87279,-262.3068 L39.486126,-262.00272 L40.09768,-261.69513 L40.70745,-261.3841 L41.31545,-261.06964 L41.92167,-260.75183 L42.526127,-260.43076 L43.128822,-260.10645 L43.72976,-259.77893 L44.328953,-259.44827 L44.9264,-259.11453 L45.522114,-258.77777 L46.1161,-258.43802 L46.708378,-258.09534 L47.298946,-257.74976 L47.887825,-257.40137 L48.47502,-257.0502 L49.060555,-256.69632 L49.64443,-256.33972 L50.22666,-255.98051 L50.807262,-255.61873 L51.386257,-255.2544 L51.96365,-254.88759 L52.539463,-254.51836 L53.113712,-254.14671 L53.686413,-253.77275 L54.257584,-253.39648 L54.827248,-253.01796 L55.395416,-252.63725 L55.962112,-252.2544 L56.527336,-251.8694 L57.091095,-251.48228 L57.653393,-251.0931 L58.214233,-250.70184 L58.773636,-250.30858 L59.331596,-249.91328 L59.888123,-249.51602 L60.443226,-249.1168 L60.99691,-248.71567 L61.54919,-248.3126 L62.100067,-247.90768 L62.64955,-247.50089 L63.197655,-247.09227 L63.74438,-246.68184 L64.28974,-246.26964 L64.83375,-245.85567 L65.3764,-245.43996 L65.917725,-245.02255 L66.45772,-244.60344 L66.99639,-244.18268 L67.53377,-243.76027 L68.06983,-243.33626 L68.60462,-242.91063 L69.13813,-242.48344 L69.67038,-242.05472 L70.20138,-241.62445 L70.73113,-241.19269 L71.25965,-240.75945 L71.786964,-240.32475 L72.313065,-239.88861 L72.837975,-239.45108 L73.361694,-239.01215 L73.88425,-238.57184 L74.405655,-238.13019 L74.92591,-237.68721 L75.44503,-237.24294 L75.963036,-236.79738 L76.479935,-236.35056 L76.99574,-235.9025 L77.510475,-235.45322 L78.02414,-235.00275 L78.53676,-234.5511 L79.04833,-234.0983 L79.55889,-233.64435 L80.068436,-233.1893 L80.576996,-232.73315 L81.084564,-232.27594 L81.59117,-231.81767 L82.096825,-231.35837 L82.60154,-230.89806 L83.10533,-230.43677 L83.60823,-229.97449 L84.11023,-229.51126 L84.61135,-229.0471 L85.11162,-228.58203 L85.61104,-228.11606 L86.10962,-227.64923 L86.60739,-227.18153 L87.10437,-226.71301 L87.600555,-226.24367 L88.09598,-225.77354 L88.59066,-225.30263 L89.084595,-224.83095 L89.57782,-224.35855 L90.070335,-223.8854 L90.562164,-223.41158 L91.05332,-222.93707 L91.54383,-222.46188 L92.03371,-221.98607 L92.52296,-221.50961 L93.011604,-221.03255 L93.499664,-220.5549 L93.98715,-220.07668 L94.47409,-219.5979 L94.96049,-219.11859 L95.44637,-218.63876 L95.93176,-218.15843 L96.41666,-217.67761 L96.901085,-217.19635 L97.38506,-216.71463 L97.8686,-216.23248 L98.35173,-215.74992 L98.83446,-215.26697 L99.3168,-214.78365 L99.79879,-214.29997 L100.280426,-213.81595 L100.761734,-213.3316 L101.24274,-212.84695 L101.72344,-212.36203 L102.203865,-211.87683 L102.68404,-211.39137 L103.16397,-210.90569 L103.64367,-210.41978 L104.12318,-209.93369 L104.60249,-209.4474 L105.08163,-208.96095 L105.56062,-208.47437 L106.03948,-207.98764 L106.51822,-207.5008 L106.99687,-207.01387 L107.47543,-206.52686 L107.95393,-206.0398 L108.43239,-205.55267 L108.91081,-205.06554 L109.38924,-204.57838 L109.86766,-204.09125 L110.346115,-203.60413 L110.824615,-203.11707 L111.30318,-202.63005 L111.781815,-202.14311 L112.26057,-201.65628 L112.73942,-201.16956 L113.2184,-200.68295 L113.69755,-200.1965 L114.176865,-199.71022 L114.65636,-199.2241 L115.136055,-198.7382 L115.61598,-198.25252 L116.09615,-197.76706 L116.57658,-197.28185 L117.05727,-196.79692 L117.53826,-196.31227 L118.01957,-195.82791 L118.50119,-195.34389 L118.98318,-194.8602 L119.465515,-194.37688 L119.948235,-193.89392 L120.43135,-193.41135 L120.91489,-192.9292 L121.39886,-192.44746 L121.88327,-191.96619 L122.36816,-191.48537 L122.85354,-191.00502 L123.3394,-190.52518 L123.82579,-190.04587 L124.31272,-189.56708 L124.8002,-189.08884 L125.288246,-188.61118 L125.776886,-188.13411 L126.26612,-187.65764 L126.75599,-187.18181 L127.24648,-186.70662 L127.737625,-186.23209 L128.22945,-185.75824 L128.72195,-185.2851 L129.21516,-184.81267 L129.70908,-184.34099 L130.20374,-183.87006 L130.69914,-183.3999 L131.19533,-182.93054 L131.69228,-182.462 L132.19005,-181.9943 L132.68861,-181.52745 L133.18802,-181.06146 L133.68826,-180.59637 L134.18936,-180.1322 L134.69135,-179.66896 L135.19423,-179.20667 L135.698,-178.74533 L136.2027,-178.285 L136.70834,-177.82568 L137.21492,-177.3674 L137.72249,-176.91016 L138.23102,-176.454 L138.74054,-175.99892 L139.25107,-175.54497 L139.76262,-175.09213 L140.27522,-174.64047 L140.78886,-174.18997 L141.30359,-173.74066 L141.81937,-173.29259 L142.33626,-172.84573 L142.85423,-172.40016 L143.37334,-171.95586 L143.89357,-171.51285 L144.41495,-171.07117 L144.93747,-170.63084 L145.46118,-170.19188 L145.98605,-169.7543 L146.51213,-169.31815 L147.03941,-168.88342 L147.56792,-168.45015 L148.09766,-168.01836 L148.62862,-167.58807 L149.16084,-167.1593 L149.69434,-166.73209 L150.2291,-166.30644 L150.76514,-165.88239 L151.30249,-165.45995 L151.84113,-165.03915 L152.38109,-164.62001 L152.9224,-164.20256 L153.46503,-163.78682 L154.009,-163.37282 L154.55434,-162.96057 L155.10104,-162.55011 L155.64911,-162.14146 L156.19856,-161.73463 L156.74942,-161.32967 L157.30165,-160.92657 L157.85532,-160.52539 L158.4104,-160.12613 L158.9669,-159.72884 L159.52484,-159.33351 L160.08421,-158.9402 L160.64502,-158.5489 L161.20728,-158.15968 L161.77101,-157.77254 L162.33621,-157.3875 L162.90286,-157.00458 L163.47101,-156.62383 L164.04065,-156.24527 L164.61179,-155.86896 L165.18445,-155.49493 L165.75868,-155.12326 L166.33444,-154.75397 L166.91182,-154.3871 L167.49077,-154.02274 L168.07135,-153.66089 L168.65355,-153.30164 L169.23738,-152.94499 L169.82288,-152.59103 L170.41005,-152.23982 L170.9989,-151.89137 L171.58943,-151.54575 L172.18167,-151.203 L172.77562,-150.8632 L173.3713,-150.52638 L173.96872,-150.19258 L174.56789,-149.86186 L175.16878,-149.53429 L175.77144,-149.2099 L176.37587,-148.88875 L176.98204,-148.57089 L177.59001,-148.25638 L178.19975,-147.94527 L178.81126,-147.63762 L179.42456,-147.33347 L180.03964,-147.03288 L180.65651,-146.73592 L181.27516,-146.44261 L181.89558,-146.15303 L182.51779,-145.86723 L183.14178,-145.58528 L183.76755,-145.30722 L184.39507,-145.0331 L185.02437,-144.76299 L185.65543,-144.49692 L186.28822,-144.23499 L186.92276,-143.97722 L187.55902,-143.7237 L188.197,-143.47444 L188.8367,-143.22954 L189.47809,-142.98904 L190.12117,-142.753 L190.76593,-142.52148 L191.41232,-142.29454 L192.06036,-142.07222 L192.71,-141.8546 L193.36124,-141.64172 L194.01407,-141.43367 L194.66844,-141.23047 L195.32437,-141.0322 L195.98178,-140.8389 L196.6407,-140.65065 L197.30109,-140.4675 L197.96289,-140.28952 L198.6261,-140.11674 L199.29068,-139.94925 L199.95662,-139.78708 L200.62386,-139.63031 L201.29237,-139.47899 L201.96213,-139.33319 L202.63312,-139.19293 L203.30524,-139.05832 L203.97852,-138.92938 L204.65288,-138.8062 L205.3283,-138.6888 L206.00471,-138.57726 L206.68211,-138.47162 L207.36041,-138.37196 L208.0396,-138.27832 L208.7196,-138.19077 L209.40038,-138.10936 L210.0819,-138.03413 L210.76405,-137.96515 L211.44684,-137.90248 L212.1302,-137.84616 L212.81407,-137.79626 L213.49838,-137.75282 L214.18307,-137.7159 L214.8681,-137.68555 L215.5534,-137.66182 L216.23889,-137.64476 L216.92453,-137.63443 L217.61024,-137.6309 L218.29593,-137.63417 L218.98157,-137.64418 L219.66708,-137.6609 L220.35239,-137.6843 L221.03743,-137.71431 L221.72215,-137.75092 L222.40648,-137.79407 L223.09036,-137.84373 L223.77373,-137.89987 L224.45654,-137.96243 L225.1387,-138.03137 L225.82019,-138.10666 L226.50096,-138.18825 L227.18094,-138.2761 L227.86005,-138.37015 L228.53827,-138.47035 L229.21555,-138.57669 L229.89183,-138.6891 L230.56706,-138.80756 L231.24118,-138.93199 L231.91418,-139.06236 L232.58598,-139.19862 L233.25655,-139.34073 L233.92586,-139.48863 L234.59383,-139.6423 L235.26045,-139.80167 L235.92566,-139.96669 L236.58943,-140.13731 L237.25172,-140.3135 L237.9125,-140.49522 L238.57173,-140.68239 L239.22935,-140.87498 L239.88538,-141.07294 L240.53972,-141.27621 L241.1924,-141.48477 L241.84335,-141.69853 L242.49254,-141.91748 L243.13995,-142.14156 L243.78555,-142.3707 L244.42932,-142.60487 L245.07124,-142.84402 L245.71126,-143.0881 L246.34935,-143.33707 L246.98552,-143.59085 L247.61972,-143.84944 L248.25194,-144.11275 L248.88216,-144.38074 L249.51033,-144.65337 L250.13649,-144.93059 L250.76057,-145.21234 L251.38255,-145.49858 L252.00247,-145.78928 L252.62025,-146.08435 L253.23592,-146.38379 L253.84941,-146.6875 L254.46077,-146.99548 L255.06996,-147.30766 L255.67696,-147.624 L256.28177,-147.94443 L256.88434,-148.26892 L257.48474,-148.59743 L258.08292,-148.92992 L258.67883,-149.2663 L259.27252,-149.60657 L259.86395,-149.95065 L260.45316,-150.29852 L261.0401,-150.65013 L261.62476,-151.00542 L262.20715,-151.36435 L262.7873,-151.72688 L263.36517,-152.09297 L263.94077,-152.46255 L264.51407,-152.8356 L265.0851,-153.21207 L265.65387,-153.5919 L266.22034,-153.97508 L266.78458,-154.36153 L267.3465,-154.75124 L267.90616,-155.14412 L268.4636,-155.54018 L269.0187,-155.93935 L269.5716,-156.34158 L270.12222,-156.74686 L270.6706,-157.1551 L271.21674,-157.5663 L271.76065,-157.98041 L272.3023,-158.39737 L272.84174,-158.81717 L273.37897,-159.23975 L273.914,-159.66508 L274.4468,-160.09312 L274.97742,-160.52383 L275.50586,-160.95718 L276.0321,-161.39313 L276.5562,-161.83163 L277.07813,-162.27267 L277.59793,-162.71619 L278.11557,-163.16216 L278.6311,-163.61053 L279.14453,-164.0613 L279.6558,-164.5144 L280.16504,-164.9698 L280.67218,-165.42749 L281.17725,-165.8874 L281.6803,-166.34953 L282.18127,-166.81381 L282.6803,-167.28024 L283.17725,-167.74876 L283.6722,-168.21936 L284.16522,-168.69199 L284.65628,-169.16661 L285.14542,-169.6432 L285.6326,-170.12173 L286.11786,-170.60217 L286.60123,-171.08449 L287.08273,-171.56863 L287.5624,-172.0546 L288.0402,-172.54233 L288.51617,-173.0318 L288.9904,-173.52301 L289.4628,-174.01588 L289.93344,-174.51042 L290.40234,-175.00659 L290.8695,-175.50435 L291.335,-176.00368 L291.79877,-176.50455 L292.26093,-177.00693 L292.7214,-177.51077 L293.18027,-178.01608 L293.63754,-178.52281 L294.0932,-179.03094 L294.5474,-179.54044 L294.99997,-180.05127 L295.45108,-180.56342 L295.90067,-181.07684 L296.34882,-181.59154 L296.7955,-182.10745 L297.24075,-182.62459 L297.68463,-183.14288 L298.12717,-183.66235 L298.5683,-184.18294 L299.00812,-184.70464 L299.44666,-185.2274 L299.8839,-185.75122 L300.31992,-186.27606 L300.7547,-186.80191 L301.18826,-187.32872 L301.6206,-187.8565 L302.05185,-188.3852 L302.48196,-188.91481 L302.91095,-189.44528 L303.3389,-189.97662 L303.76575,-190.50879 L304.19162,-191.04178 L304.61646,-191.57553 L305.0403,-192.11006 L305.46326,-192.64532 L305.88525,-193.1813 L306.30634,-193.71797 L306.72656,-194.25531 L307.14597,-194.7933 L307.56454,-195.33191 L307.98233,-195.87112 L308.39935,-196.41093 L308.8156,-196.95128 L309.2312,-197.49217 L309.6461,-198.03357 L310.06033,-198.57547 L310.47397,-199.11784 L310.88696,-199.66066 L311.2994,-200.2039 L311.7113,-200.74756 L312.12268,-201.2916 L312.53357,-201.836 L312.944,-202.38074 L313.35397,-202.92581 L313.76358,-203.47118 L314.1728,-204.01682 L314.58163,-204.56273 L314.99017,-205.10887 L315.3984,-205.65523 L315.8064,-206.20178 L316.21408,-206.74852 L316.62164,-207.29541 L317.02893,-207.84242 L317.43613,-208.38956 L317.84317,-208.93678 L318.25012,-209.48409 L318.657,-210.03145 L319.06387,-210.57883 L319.47067,-211.12622 L319.8775,-211.6736 L320.2844,-212.22098 L320.6913,-212.7683 L321.0983,-213.31558 L321.50534,-213.8628 L321.91257,-214.40991 L322.3199,-214.95695 L322.72733,-215.50388 L323.13495,-216.05067 L323.5428,-216.59734 L323.9508,-217.14384 L324.35907,-217.69019 L324.7676,-218.23634 L325.1764,-218.7823 L325.58545,-219.32805 L325.99484,-219.87357 L326.40457,-220.41884 L326.8146,-220.96385 L327.22504,-221.50859 L327.63586,-222.05304 L328.0471,-222.59718 L328.45874,-223.14102 L328.87085,-223.68451 L329.28345,-224.22766 L329.6965,-224.77045 L330.11005,-225.31285 L330.52414,-225.85484 L330.9388,-226.39645 L331.354,-226.93762 L331.76978,-227.47835 L332.1862,-228.01862 L332.6032,-228.55841 L333.02084,-229.09773 L333.43918,-229.63654 L333.8582,-230.17482 L334.2779,-230.71255 L334.69833,-231.24976 L335.11948,-231.78639 L335.54138,-232.32242 L335.96408,-232.85786 L336.38757,-233.39268 L336.8119,-233.92688 L337.237,-234.46042 L337.663,-234.99329 L338.08984,-235.52547 L338.51758,-236.05696 L338.9462,-236.58772 L339.3758,-237.11775 L339.8063,-237.64703 L340.23776,-238.17555 L340.6702,-238.70328 L341.10364,-239.2302 L341.5381,-239.75629 L341.9736,-240.28156 L342.41013,-240.80595 L342.84772,-241.32948 L343.28644,-241.85213 L343.7262,-242.37386 L344.1671,-242.89465 L344.60913,-243.41449 L345.05234,-243.93338 L345.4967,-244.45128 L345.94223,-244.96819 L346.38898,-245.48405 L346.83698,-245.9989 L347.28616,-246.51268 L347.7366,-247.02538 L348.18832,-247.53697 L348.64136,-248.04745 L349.09564,-248.5568 L349.55124,-249.06499 L350.0082,-249.572 L350.46652,-250.07782 L350.92618,-250.58241 L351.3872,-251.08578 L351.8496,-251.58789 L352.31348,-252.08871 L352.77872,-252.58826 L353.2454,-253.08646 L353.71353,-253.58333 L354.18314,-254.07884 L354.65424,-254.57297 L355.1268,-255.0657 L355.6009,-255.55699 L356.0765,-256.04684 L356.55362,-256.53522 L357.03232,-257.02213 L357.51254,-257.5075 L357.9944,-257.99136 L358.47778,-258.47363 L358.96277,-258.95435 L359.44937,-259.43344 L359.93762,-259.91092 L360.4275,-260.38675 L360.919,-260.8609 L361.41217,-261.33337 L361.907,-261.8041 L362.40353,-262.27313 L362.90173,-262.74036 L363.40164,-263.20578 L363.90326,-263.6694 L364.4066,-264.1312 L364.91168,-264.59113 L365.41852,-265.04916 L365.9271,-265.50528 L366.4374,-265.95947 L366.9495,-266.41168 L367.4634,-266.8619 L367.97916,-267.31003 L368.49673,-267.75604 L369.01624,-268.19992 L369.5376,-268.6416 L370.0609,-269.08102 L370.58615,-269.5182 L371.11334,-269.953 L371.64258,-270.3854 L372.17377,-270.81543 L372.707,-271.24295 L373.24228,-271.66794 L373.77963,-272.09036 L374.3191,-272.5102 L374.8606,-272.9273 L375.40427,-273.34174 L375.95004,-273.7534 L376.498,-274.16223 L377.0481,-274.5682 L377.60037,-274.97125 L378.15485,-275.37134 L378.71152,-275.76837 L379.27042,-276.16235 L379.83154,-276.55322 L380.3949,-276.9409 L380.9605,-277.32535 L381.52835,-277.7065 L382.09848,-278.08432 L382.67087,-278.45874 L383.24557,-278.8297 L383.82254,-279.1972 L384.4018,-279.56113 L384.98334,-279.92142 L385.56717,-280.27805 L386.15332,-280.63095 L386.74173,-280.98007 L387.3325,-281.32538 L387.9255,-281.66675 L388.52084,-282.00418 L389.11847,-282.33762 L389.71838,-282.66696 L390.3206,-282.99216 L390.92508,-283.3132 L391.53183,-283.62997 L392.14087,-283.94244 L392.75217,-284.25055 L393.36572,-284.55423 L393.98148,-284.85342 L394.5995,-285.14807 L395.2197,-285.43808 L395.84207,-285.72345 L396.4667,-286.0041 L397.09344,-286.27994 L397.72235,-286.5509 L398.3534,-286.817 L398.98654,-287.0781 L399.6218,-287.33414 L400.2591,-287.58508 L400.89844,-287.83087 L401.5398,-288.07144 L402.1832,-288.30673 L402.8285,-288.53668 L403.47574,-288.7612 L404.1249,-288.98022 L404.77597,-289.19373 L405.42883,-289.40164 L406.0835,-289.60388 L406.73996,-289.8004 L407.39813,-289.99115 L408.058,-290.17603 L408.71954,-290.35498 L409.3827,-290.52798 L410.04742,-290.69495 L410.71368,-290.8558 L411.3814,-291.01053 L412.05057,-291.159 L412.72113,-291.3012 L413.393,-291.43707 L414.06616,-291.56653 L414.7406,-291.6895 L415.41614,-291.806 L416.09286,-291.9159 L416.7706,-292.01913" fill="none" stroke="#B5C4A6" stroke-linejoin="round" stroke-width="2"/>
</g>
</g>
<g transform="translate(380, -250)">
<text font-size="12" text-anchor="start" x="0" y="0">
curvature error s=4.672
</text>
<line stroke="#B5C4A6" stroke-width="2" x1="-10" x2="-3" y1="-4" y2="-4"/>
</g>
<g>
<g>
<line stroke="black" stroke-width="1" x1="0" x2="0" y1="0" y2="10"/>
<line stroke="black" stroke-width="1" x1="137.14285714285714" x2="137.14285714285714" y1="0" y2="10"/>
<line stroke="black" stroke-width="1" x1="274.2857142857143" x2="274.2857142857143" y1="0" y2="10"/>
<line stroke="black" stroke-width="1" x1="411.42857142857144" x2="411.42857142857144" y1="0" y2="10"/>
</g>
<line stroke="black" stroke-width="1" x1="0" x2="480" y1="0" y2="0"/>
<g>
<text font-size="12" text-anchor="middle" x="0" y="20">
0
</text>
<text font-size="12" text-anchor="middle" x="137.14285714285714" y="20">
2
</text>
<text font-size="12" text-anchor="middle" x="274.2857142857143" y="20">
4
</text>
<text font-size="12" text-anchor="middle" x="411.42857142857144" y="20">
6
</text>
</g>
<text font-size="12" text-anchor="middle" x="240" y="30">
x
</text>
</g>
<g>
<g>
<line stroke="black" stroke-width="1" x1="0" x2="-10" y1="0" y2="0"/>
<line stroke="black" stroke-width="1" x1="0" x2="-10" y1="-68" y2="-68"/>
<line stroke="black" stroke-width="1" x1="0" x2="-10" y1="-136" y2="-136"/>
<line stroke="black" stroke-width="1" x1="0" x2="-10" y1="-204" y2="-204"/>
<line stroke="black" stroke-width="1" x1="0" x2="-10" y1="-272" y2="-272"/>
<line stroke="black" stroke-width="1" x1="0" x2="-10" y1="-340" y2="-340"/>
</g>
<line stroke="black" stroke-width="1" x1="0" x2="0" y1="0" y2="-340"/>
<g>
<text dominant-baseline="middle" font-size="12" text-anchor="end" x="-15" y="0">
-3
</text>
<text dominant-baseline="middle" font-size="12" text-anchor="end" x="-15" y="-68">
-2
</text>
<text dominant-baseline="middle" font-size="12" text-anchor="end" x="-15" y="-136">
-1
</text>
<text dominant-baseline="middle" font-size="12" text-anchor="end" x="-15" y="-204">
0
</text>
<text dominant-baseline="middle" font-size="12" text-anchor="end" x="-15" y="-272">
1
</text>
<text dominant-baseline="middle" font-size="12" text-anchor="end" x="-15" y="-340">
2
</text>
</g>
<text font-size="12" text-anchor="middle" transform="rotate(-90 -24 -170)" x="-24" y="-182">
y
</text>
</g>
</g>
</svg>