<svg viewBox="0 0 600 400" xmlns="http://www.w3.org/2000/svg">
<g transform="translate(72, 364)">
<g>
<g>
<path d="M0,-255 L0,-255 L2.154235,-254.95805 L4.30847,-254.83228 L6.4627047,-254.62277 L8.61694,-254.32974 L10.771174,-253.9535 L12.925409,-253.49442 L15.079645,-252.95293 L17.23388,-252.32957 L19.388115,-251.62497 L21.542349,-250.8398 L23.696585,-249.97487 L25.850819,-249.031 L28.005054,-248.00914 L30.15929,-246.9103 L32.313526,-245.73555 L34.46776,-244.48607 L36.621994,-243.16307 L38.77623,-241.76787 L40.930466,-240.30185 L43.084698,-238.76645 L45.238934,-237.16318 L47.39317,-235.49362 L49.547405,-233.75945 L51.701637,-231.96233 L53.855873,-230.10408 L56.01011,-228.18651 L58.164345,-226.2115 L60.31858,-224.18105 L62.472813,-222.0971 L64.62705,-219.96175 L66.78128,-217.77708 L68.93552,-215.54527 L71.08975,-213.26852 L73.24399,-210.94907 L75.398224,-208.58919 L77.55246,-206.19124 L79.706696,-203.75757 L81.86093,-201.29059 L84.01517,-198.79272 L86.169395,-196.26645 L88.32363,-193.71425 L90.47787,-191.13864 L92.6321,-188.54218 L94.78634,-185.92741 L96.940575,-183.29694 L99.09481,-180.65332 L101.24905,-177.9992 L103.403275,-175.33719 L105.55751,-172.66992 L107.71175,-170 L109.86598,-167.33008 L112.02022,-164.66281 L114.17445,-162.0008 L116.32869,-159.34668 L118.482925,-156.70306 L120.63716,-154.07259 L122.79139,-151.45782 L124.945625,-148.86136 L127.09986,-146.28575 L129.2541,-143.73355 L131.40833,-141.20728 L133.56256,-138.70941 L135.7168,-136.24243 L137.87103,-133.80876 L140.02527,-131.41081 L142.1795,-129.05093 L144.33374,-126.73148 L146.48798,-124.45472 L148.64221,-122.222916 L150.79645,-120.03825 L152.95068,-117.9029 L155.10492,-115.81896 L157.25916,-113.78849 L159.41339,-111.8135 L161.56763,-109.89592 L163.72186,-108.03767 L165.8761,-106.24056 L168.03033,-104.50638 L170.18456,-102.83682 L172.33879,-101.23356 L174.49303,-99.69815 L176.64726,-98.232124 L178.8015,-96.83693 L180.95573,-95.51393 L183.10997,-94.26444 L185.2642,-93.0897 L187.41844,-91.99086 L189.57268,-90.969 L191.72691,-90.02513 L193.88115,-89.160194 L196.03539,-88.37504 L198.18962,-87.67043 L200.34386,-87.04707 L202.4981,-86.505585 L204.65233,-86.04649 L206.80655,-85.67025 L208.96078,-85.377235 L211.11502,-85.167725 L213.26926,-85.04194 L215.4235,-85 L217.57773,-85.04194 L219.73196,-85.167725 L221.8862,-85.377235 L224.04044,-85.67025 L226.19467,-86.04649 L228.3489,-86.505585 L230.50314,-87.04707 L232.65738,-87.67043 L234.81161,-88.37504 L236.96585,-89.160194 L239.12009,-90.02513 L241.27432,-90.969 L243.42856,-91.99086 L245.58278,-93.0897 L247.73701,-94.26444 L249.89125,-95.51393 L252.04549,-96.83693 L254.19972,-98.232124 L256.35397,-99.69815 L258.5082,-101.23356 L260.66245,-102.83682 L262.81665,-104.50638 L264.9709,-106.24056 L267.12512,-108.03767 L269.27936,-109.89592 L271.4336,-111.8135 L273.58783,-113.78849 L275.74207,-115.81896 L277.8963,-117.9029 L280.05054,-120.03825 L282.20477,-122.222916 L284.359,-124.45472 L286.51324,-126.73148 L288.66748,-129.05093 L290.82172,-131.41081 L292.97595,-133.80876 L295.1302,-136.24243 L297.28442,-138.70941 L299.43866,-141.20728 L301.5929,-143.73355 L303.74713,-146.28575 L305.90137,-148.86136 L308.0556,-151.45782 L310.20984,-154.07259 L312.36407,-156.70306 L314.5183,-159.34668 L316.67255,-162.0008 L318.82678,-164.66281 L320.98102,-167.33008 L323.13525,-170 L325.2895,-172.66992 L327.44373,-175.33719 L329.59796,-177.9992 L331.7522,-180.65332 L333.90643,-183.29694 L336.06067,-185.92741 L338.21487,-188.54218 L340.3691,-191.13864 L342.52335,-193.71425 L344.67758,-196.26645 L346.83182,-198.79272 L348.98605,-201.29059 L351.1403,-203.75757 L353.29453,-206.19124 L355.44876,-208.58919 L357.603,-210.94907 L359.75723,-213.26852 L361.91147,-215.54527 L364.0657,-217.77708 L366.21994,-219.96175 L368.37418,-222.0971 L370.5284,-224.18105 L372.68265,-226.2115 L374.83688,-228.18651 L376.99112,-230.10408 L379.14536,-231.96233 L381.2996,-233.75945 L383.45383,-235.49362 L385.60806,-237.16318 L387.7623,-238.76645 L389.91653,-240.30185 L392.07077,-241.76787 L394.225,-243.16307 L396.37924,-244.48607 L398.53348,-245.73555 L400.6877,-246.9103 L402.84195,-248.00914 L404.9962,-249.031 L407.15042,-249.97487 L409.30466,-250.8398 L411.4589,-251.62497 L413.6131,-252.32957 L415.76733,-252.95293 L417.92157,-253.49442 L420.0758,-253.9535 L422.23004,-254.32974 L424.38428,-254.62277 L426.5385,-254.83228 L428.69275,-254.95805" fill="none" stroke="#000000" stroke-linejoin="round" stroke-width="2"/>
</g>
</g>
<g transform="translate(380, -340)">
<text font-size="12" text-anchor="start" x="0" y="0">
Standard Curve
</text>
<line stroke="#000000" stroke-width="2" x1="-10" x2="-3" y1="-4" y2="-4"/>
</g>
<g>
<g>
<path d="M0.68570286,-255.00424 L0.68570286,-255.00424 L1.3714057,-254.99997 L2.05704,-254.98721 L2.742539,-254.96606 L3.4278376,-254.93657 L4.1128716,-254.89879 L4.797579,-254.8528 L5.4818983,-254.79866 L6.1657705,-254.73643 L6.8491373,-254.6662 L7.531942,-254.58801 L8.214129,-254.50195 L8.895647,-254.40808 L9.576441,-254.30646 L10.256461,-254.19716 L10.9356575,-254.08028 L11.613983,-253.95584 L12.291389,-253.82396 L12.9678335,-253.68468 L13.6432705,-253.53807 L14.3176565,-253.38422 L14.990951,-253.22319 L15.663115,-253.05505 L16.334108,-252.8799 L17.003895,-252.69777 L17.67244,-252.50876 L18.339705,-252.31293 L19.005661,-252.11035 L19.670273,-251.90111 L20.33351,-251.68527 L20.995342,-251.46292 L21.655745,-251.23412 L22.314688,-250.99893 L22.972145,-250.75743 L23.62809,-250.50972 L24.282503,-250.25584 L24.935358,-249.99588 L25.586637,-249.7299 L26.236319,-249.45801 L26.88438,-249.18022 L27.530811,-248.89665 L28.175587,-248.60736 L28.818695,-248.31242 L29.460123,-248.01192 L30.099855,-247.70589 L30.737879,-247.39444 L31.374182,-247.07762 L32.00875,-246.75552 L32.641586,-246.4282 L33.27267,-246.09573 L33.901997,-245.7582 L34.529564,-245.41565 L35.155357,-245.06816 L35.77938,-244.7158 L36.401627,-244.35866 L37.02209,-243.99678 L37.640774,-243.63025 L38.257675,-243.25912 L38.87279,-242.88348 L39.486126,-242.50339 L40.09768,-242.1189 L40.70745,-241.7301 L41.31545,-241.33704 L41.92167,-240.9398 L42.526127,-240.53845 L43.128822,-240.13304 L43.72976,-239.72365 L44.328953,-239.31033 L44.9264,-238.89317 L45.522114,-238.4722 L46.1161,-238.04752 L46.708378,-237.61916 L47.298946,-237.18721 L47.887825,-236.75172 L48.47502,-236.31276 L49.060555,-235.87038 L49.64443,-235.42467 L50.22666,-234.97565 L50.807262,-234.5234 L51.386257,-234.06801 L51.96365,-233.6095 L52.539463,-233.14793 L53.113712,-232.6834 L53.686413,-232.21593 L54.257584,-231.74559 L54.827248,-231.27245 L55.395416,-230.79657 L55.962112,-230.318 L56.527336,-229.83675 L57.091095,-229.35286 L57.653393,-228.86636 L58.214233,-228.3773 L58.773636,-227.88571 L59.331596,-227.39162 L59.888123,-226.89503 L60.443226,-226.39601 L60.99691,-225.89458 L61.54919,-225.39076 L62.100067,-224.8846 L62.64955,-224.37611 L63.197655,-223.86534 L63.74438,-223.35231 L64.28974,-222.83704 L64.83375,-222.31958 L65.3764,-221.79996 L65.917725,-221.27818 L66.45772,-220.7543 L66.99639,-220.22835 L67.53377,-219.70033 L68.06983,-219.17032 L68.60462,-218.63829 L69.13813,-218.10431 L69.67038,-217.56839 L70.20138,-217.03056 L70.73113,-216.49086 L71.25965,-215.94931 L71.786964,-215.40594 L72.313065,-214.86078 L72.837975,-214.31384 L73.361694,-213.76518 L73.88425,-213.2148 L74.405655,-212.66273 L74.92591,-212.10901 L75.44503,-211.55367 L75.963036,-210.99672 L76.479935,-210.43819 L76.99574,-209.87811 L77.510475,-209.31653 L78.02414,-208.75343 L78.53676,-208.18887 L79.04833,-207.62286 L79.55889,-207.05544 L80.068436,-206.48663 L80.576996,-205.91644 L81.084564,-205.34492 L81.59117,-204.7721 L82.096825,-204.19797 L82.60154,-203.62257 L83.10533,-203.04594 L83.60823,-202.46811 L84.11023,-201.88907 L84.61135,-201.30887 L85.11162,-200.72754 L85.61104,-200.14508 L86.10962,-199.56154 L86.60739,-198.97693 L87.10437,-198.39127 L87.600555,-197.8046 L88.09598,-197.21692 L88.59066,-196.62828 L89.084595,-196.0387 L89.57782,-195.44818 L90.070335,-194.85677 L90.562164,-194.26448 L91.05332,-193.67133 L91.54383,-193.07736 L92.03371,-192.48257 L92.52296,-191.88701 L93.011604,-191.2907 L93.499664,-190.69362 L93.98715,-190.09584 L94.47409,-189.49738 L94.96049,-188.89824 L95.44637,-188.29845 L95.93176,-187.69803 L96.41666,-187.09702 L96.901085,-186.49544 L97.38506,-185.89328 L97.8686,-185.2906 L98.35173,-184.6874 L98.83446,-184.08371 L99.3168,-183.47955 L99.79879,-182.87495 L100.280426,-182.26993 L100.761734,-181.6645 L101.24274,-181.0587 L101.72344,-180.45253 L102.203865,-179.84604 L102.68404,-179.23923 L103.16397,-178.63211 L103.64367,-178.02473 L104.12318,-177.41711 L104.60249,-176.80925 L105.08163,-176.2012 L105.56062,-175.59296 L106.03948,-174.98454 L106.51822,-174.376 L106.99687,-173.76733 L107.47543,-173.15857 L107.95393,-172.54973 L108.43239,-171.94084 L108.91081,-171.33192 L109.38924,-170.72298 L109.86766,-170.11406 L110.346115,-169.50516 L110.824615,-168.89633 L111.30318,-168.28757 L111.781815,-167.6789 L112.26057,-167.07034 L112.73942,-166.46194 L113.2184,-165.85368 L113.69755,-165.24562 L114.176865,-164.63777 L114.65636,-164.03014 L115.136055,-163.42276 L115.61598,-162.81564 L116.09615,-162.20882 L116.57658,-161.60231 L117.05727,-160.99614 L117.53826,-160.39034 L118.01957,-159.7849 L118.50119,-159.17986 L118.98318,-158.57526 L119.465515,-157.97108 L119.948235,-157.36739 L120.43135,-156.76419 L120.91489,-156.1615 L121.39886,-155.55933 L121.88327,-154.95773 L122.36816,-154.3567 L122.85354,-153.75629 L123.3394,-153.15648 L123.82579,-152.55733 L124.31272,-151.95885 L124.8002,-151.36105 L125.288246,-150.76398 L125.776886,-150.16763 L126.26612,-149.57205 L126.75599,-148.97725 L127.24648,-148.38327 L127.737625,-147.7901 L128.22945,-147.1978 L128.72195,-146.60637 L129.21516,-146.01584 L129.70908,-145.42622 L130.20374,-144.83757 L130.69914,-144.24988 L131.19533,-143.66318 L131.69228,-143.07751 L132.19005,-142.49287 L132.68861,-141.9093 L133.18802,-141.32683 L133.68826,-140.74547 L134.18936,-140.16525 L134.69135,-139.5862 L135.19423,-139.00833 L135.698,-138.43167 L136.2027,-137.85626 L136.70834,-137.2821 L137.21492,-136.70924 L137.72249,-136.1377 L138.23102,-135.56749 L138.74054,-134.99866 L139.25107,-134.4312 L139.76262,-133.86517 L140.27522,-133.30058 L140.78886,-132.73746 L141.30359,-132.17583 L141.81937,-131.61574 L142.33626,-131.05717 L142.85423,-130.5002 L143.37334,-129.94481 L143.89357,-129.39107 L144.41495,-128.83897 L144.93747,-128.28856 L145.46118,-127.739845 L145.98605,-127.19289 L146.51213,-126.64768 L147.03941,-126.10427 L147.56792,-125.56268 L148.09766,-125.02295 L148.62862,-124.485085 L149.16084,-123.949135 L149.69434,-123.41511 L150.2291,-122.88305 L150.76514,-122.35298 L151.30249,-121.824936 L151.84113,-121.298935 L152.38109,-120.77502 L152.9224,-120.253204 L153.46503,-119.73353 L154.009,-119.21603 L154.55434,-118.70072 L155.10104,-118.187645 L155.64911,-117.67683 L156.19856,-117.1683 L156.74942,-116.66208 L157.30165,-116.15822 L157.85532,-115.65674 L158.4104,-115.15766 L158.9669,-114.66104 L159.52484,-114.16689 L160.08421,-113.67524 L160.64502,-113.186134 L161.20728,-112.6996 L161.77101,-112.21567 L162.33621,-111.73436 L162.90286,-111.25572 L163.47101,-110.77978 L164.04065,-110.30658 L164.61179,-109.83619 L165.18445,-109.36867 L165.75868,-108.90407 L166.33444,-108.44245 L166.91182,-107.98388 L167.49077,-107.52841 L168.07135,-107.07611 L168.65355,-106.62704 L169.23738,-106.181244 L169.82288,-105.7388 L170.41005,-105.299774 L170.9989,-104.86421 L171.58943,-104.43219 L172.18167,-104.00376 L172.77562,-103.579 L173.3713,-103.15797 L173.96872,-102.74072 L174.56789,-102.32733 L175.16878,-101.917854 L175.77144,-101.51237 L176.37587,-101.11093 L176.98204,-100.713615 L177.59001,-100.32048 L178.19975,-99.931595 L178.81126,-99.54702 L179.42456,-99.16683 L180.03964,-98.7911 L180.65651,-98.41988 L181.27516,-98.05326 L181.89558,-97.69129 L182.51779,-97.334045 L183.14178,-96.9816 L183.76755,-96.63402 L184.39507,-96.29137 L185.02437,-95.95372 L185.65543,-95.621155 L186.28822,-95.29373 L186.92276,-94.971535 L187.55902,-94.65461 L188.197,-94.343056 L188.8367,-94.03693 L189.47809,-93.736305 L190.12117,-93.44125 L190.76593,-93.15185 L191.41232,-92.868164 L192.06036,-92.59028 L192.71,-92.31825 L193.36124,-92.052155 L194.01407,-91.792076 L194.66844,-91.53808 L195.32437,-91.29024 L195.98178,-91.04863 L196.6407,-90.81332 L197.30109,-90.58438 L197.96289,-90.36189 L198.6261,-90.14593 L199.29068,-89.93656 L199.95662,-89.73386 L200.62386,-89.537895 L201.29237,-89.34875 L201.96213,-89.16648 L202.63312,-88.99117 L203.30524,-88.82291 L203.97852,-88.661736 L204.65288,-88.50774 L205.3283,-88.36099 L206.00471,-88.221565 L206.68211,-88.08953 L207.36041,-87.96495 L208.0396,-87.84791 L208.7196,-87.738464 L209.40038,-87.636696 L210.0819,-87.54266 L210.76405,-87.45644 L211.44684,-87.378105 L212.1302,-87.30771 L212.81407,-87.24533 L213.49838,-87.191025 L214.18307,-87.144875 L214.8681,-87.10693 L215.5534,-87.07727 L216.23889,-87.05595 L216.92453,-87.04304 L217.61024,-87.03864 L218.29593,-87.042725 L218.98157,-87.05522 L219.66708,-87.07605 L220.35239,-87.10517 L221.03743,-87.14251 L221.72217,-87.188 L222.40652,-87.24158 L223.09042,-87.303185 L223.77383,-87.37274 L224.4567,-87.45019 L225.13895,-87.53545 L225.82054,-87.62848 L226.50143,-87.72919 L227.18153,-87.8375 L227.86086,-87.95337 L228.5393,-88.076706 L229.21687,-88.20745 L229.89346,-88.34552 L230.56909,-88.49086 L231.24367,-88.643394 L231.91718,-88.80305 L232.58957,-88.96975 L233.26082,-89.14342 L233.93088,-89.324 L234.59972,-89.51141 L235.2673,-89.70559 L235.9336,-89.90644 L236.59856,-90.113914 L237.26218,-90.32793 L237.92442,-90.54841 L238.58525,-90.77529 L239.24466,-91.00849 L239.90259,-91.24794 L240.55907,-91.49357 L241.214,-91.7453 L241.86743,-92.00307 L242.5193,-92.26679 L243.1696,-92.53641 L243.81833,-92.81184 L244.46544,-93.093 L245.11092,-93.379845 L245.75478,-93.67228 L246.39697,-93.97024 L247.0375,-94.27366 L247.67638,-94.582466 L248.31354,-94.896576 L248.94902,-95.21593 L249.5828,-95.54045 L250.21484,-95.87008 L250.84517,-96.204735 L251.47379,-96.54434 L252.10065,-96.88885 L252.72578,-97.23817 L253.34915,-97.59224 L253.9708,-97.951 L254.59071,-98.31436 L255.20886,-98.682274 L255.82527,-99.05466 L256.43994,-99.43146 L257.05286,-99.8126 L257.664,-100.198006 L258.27344,-100.58762 L258.88113,-100.981384 L259.48712,-101.37923 L260.09134,-101.78107 L260.69388,-102.18685 L261.29468,-102.59652 L261.8938,-103.01 L262.49124,-103.42723 L263.08698,-103.84815 L263.68103,-104.27269 L264.27344,-104.70078 L264.86417,-105.13237 L265.45325,-105.5674 L266.04074,-106.0058 L266.6266,-106.4475 L267.21088,-106.892456 L267.79352,-107.3406 L268.3746,-107.79187 L268.95416,-108.2462 L269.53214,-108.703545 L270.10864,-109.163826 L270.6836,-109.627 L271.25708,-110.093 L271.8291,-110.56176 L272.39966,-111.03324 L272.96875,-111.50741 L273.5364,-111.98422 L274.10263,-112.46366 L274.66742,-112.945694 L275.2308,-113.430275 L275.79272,-113.91739 L276.35327,-114.40699 L276.91238,-114.89906 L277.47015,-115.393555 L278.0265,-115.89045 L278.58142,-116.38972 L279.13504,-116.89132 L279.68726,-117.395226 L280.2381,-117.90141 L280.78763,-118.40985 L281.3358,-118.920494 L281.88266,-119.43333 L282.4282,-119.94832 L282.9724,-120.46543 L283.51535,-120.98464 L284.05695,-121.50592 L284.5973,-122.029236 L285.13638,-122.55456 L285.6742,-123.08186 L286.21075,-123.61112 L286.7461,-124.142296 L287.2802,-124.67537 L287.81308,-125.210304 L288.3448,-125.74707 L288.8753,-126.28566 L289.4046,-126.82602 L289.93274,-127.36813 L290.45975,-127.91197 L290.9856,-128.4575 L291.5103,-129.00471 L292.0339,-129.55357 L292.5564,-130.10403 L293.0778,-130.6561 L293.59814,-131.20972 L294.11737,-131.76488 L294.6356,-132.32153 L295.15274,-132.87968 L295.6689,-133.4393 L296.18402,-134.00034 L296.69815,-134.56277 L297.2113,-135.12659 L297.72348,-135.69176 L298.2347,-136.25826 L298.74496,-136.82607 L299.25433,-137.39514 L299.7628,-137.96547 L300.27032,-138.53703 L300.77698,-139.10979 L301.28278,-139.68372 L301.78772,-140.2588 L302.29184,-140.83502 L302.7951,-141.41232 L303.2976,-141.99072 L303.7993,-142.57016 L304.3002,-143.15063 L304.80038,-143.73212 L305.29974,-144.31458 L305.79846,-144.898 L306.29645,-145.48235 L306.7937,-146.06761 L307.2903,-146.65375 L307.78622,-147.24075 L308.28152,-147.8286 L308.77618,-148.41727 L309.27023,-149.00673 L309.76367,-149.59694 L310.25656,-150.18791 L310.74884,-150.7796 L311.2406,-151.372 L311.73184,-151.96506 L312.22253,-152.55878 L312.71274,-153.15314 L313.20245,-153.7481 L313.69174,-154.34364 L314.18057,-154.93974 L314.66895,-155.53639 L315.15692,-156.13356 L315.6445,-156.73123 L316.1317,-157.32936 L316.61856,-157.92795 L317.10507,-158.52696 L317.59125,-159.12639 L318.0771,-159.7262 L318.56268,-160.32635 L319.04797,-160.92686 L319.53305,-161.5277 L320.01785,-162.12881 L320.5024,-162.73021 L320.9868,-163.33185 L321.471,-163.93373 L321.95502,-164.53581 L322.43893,-165.13809 L322.92264,-165.74052 L323.40628,-166.3431 L323.88983,-166.9458 L324.37326,-167.5486 L324.85666,-168.15147 L325.34,-168.7544 L325.82333,-169.35736 L326.30664,-169.96034 L326.78998,-170.5633 L327.2733,-171.16623 L327.75668,-171.7691 L328.2401,-172.37192 L328.72366,-172.97462 L329.20728,-173.57721 L329.691,-174.17964 L330.1749,-174.78194 L330.6589,-175.38403 L331.1431,-175.98592 L331.62747,-176.58757 L332.11206,-177.189 L332.59683,-177.79013 L333.08185,-178.39098 L333.56717,-178.9915 L334.0527,-179.59169 L334.53857,-180.19151 L335.02472,-180.79095 L335.5112,-181.39 L335.99805,-181.98862 L336.4852,-182.58678 L336.97278,-183.18446 L337.46072,-183.78166 L337.9491,-184.37834 L338.4379,-184.97449 L338.92712,-185.57007 L339.4168,-186.16505 L339.907,-186.75945 L340.39767,-187.35321 L340.8889,-187.9463 L341.38058,-188.53874 L341.87286,-189.13048 L342.3657,-189.72148 L342.8591,-190.31175 L343.35312,-190.90126 L343.84775,-191.48996 L344.343,-192.07787 L344.83887,-192.66492 L345.33545,-193.25111 L345.83267,-193.83643 L346.33063,-194.42084 L346.82925,-195.0043 L347.3286,-195.58682 L347.8287,-196.16837 L348.32962,-196.7489 L348.83124,-197.3284 L349.33368,-197.90686 L349.8369,-198.48424 L350.341,-199.06052 L350.8459,-199.63567 L351.35162,-200.20967 L351.85822,-200.7825 L352.36572,-201.35413 L352.8741,-201.92453 L353.38342,-202.49368 L353.89362,-203.06155 L354.4048,-203.62814 L354.91693,-204.19339 L355.43002,-204.7573 L355.9441,-205.31981 L356.45917,-205.88094 L356.97522,-206.44063 L357.49234,-206.99886 L358.01047,-207.55562 L358.52966,-208.11086 L359.04996,-208.66458 L359.57126,-209.21672 L360.09372,-209.76729 L360.61722,-210.31624 L361.1419,-210.86354 L361.66766,-211.40918 L362.19458,-211.95313 L362.7227,-212.49535 L363.25192,-213.03581 L363.78235,-213.5745 L364.31396,-214.11137 L364.84677,-214.64642 L365.38083,-215.1796 L365.91608,-215.71089 L366.45258,-216.24026 L366.99033,-216.76768 L367.52933,-217.29312 L368.06958,-217.81656 L368.6111,-218.33797 L369.15396,-218.8573 L369.69812,-219.37454 L370.24356,-219.88965 L370.79034,-220.40262 L371.33844,-220.91339 L371.88788,-221.42195 L372.4387,-221.92828 L372.9908,-222.43233 L373.5443,-222.93407 L374.09918,-223.43347 L374.65546,-223.93051 L375.21307,-224.42514 L375.77216,-224.91736 L376.33258,-225.4071 L376.89447,-225.89436 L377.45773,-226.3791 L378.02246,-226.86128 L378.58856,-227.34088 L379.15616,-227.81786 L379.72516,-228.29218 L380.29565,-228.76381 L380.86758,-229.23276 L381.44098,-229.69891 L382.01584,-230.16226 L382.59222,-230.62273 L383.17014,-231.08023 L383.74957,-231.53474 L384.3306,-231.9862 L384.91318,-232.43452 L385.4973,-232.87968 L386.08307,-233.32158 L386.67047,-233.76018 L387.25946,-234.1954 L387.8501,-234.6272 L388.44238,-235.05551 L389.03638,-235.48026 L389.632,-235.9014 L390.2293,-236.31885 L390.8283,-236.73254 L391.42905,-237.14244 L392.03146,-237.54846 L392.63562,-237.95055 L393.2415,-238.34862 L393.84906,-238.74263 L394.45844,-239.13249 L395.06946,-239.51816 L395.68228,-239.89955 L396.29684,-240.27661 L396.91315,-240.64926 L397.5312,-241.01744 L398.15097,-241.38107 L398.77252,-241.74011 L399.39578,-242.09445 L400.02084,-242.44406 L400.6476,-242.78885 L401.2761,-243.12875 L401.90634,-243.46371 L402.53827,-243.79364 L403.17197,-244.11847 L403.80734,-244.43813 L404.4444,-244.75256 L405.08316,-245.06168 L405.7236,-245.36542 L406.3657,-245.66371 L407.00946,-245.95648 L407.65485,-246.24365 L408.30185,-246.52516 L408.95047,-246.80093 L409.60068,-247.07088 L410.25247,-247.33496 L410.9058,-247.59308 L411.56067,-247.84517 L412.21704,-248.09117 L412.87488,-248.331 L413.53418,-248.56458 L414.19495,-248.79182 L414.8571,-249.01268 L415.52066,-249.22708 L416.18555,-249.43495 L416.85178,-249.6362 L417.51926,-249.83078 L418.18802,-250.01859 L418.858,-250.19957 L419.52917,-250.37366 L420.2015,-250.54077 L420.87494,-250.70085 L421.54947,-250.8538 L422.22504,-250.99957 L422.90158,-251.13809 L423.57907,-251.26927 L424.25748,-251.39305 L424.93677,-251.50935 L425.61682,-251.61812 L426.29764,-251.71928 L426.9792,-251.81276 L427.66144,-251.8985 L428.34424,-251.97641 L429.02762,-252.04643 L429.7115,-252.1085 L430.3958,-252.16257 L431.08054,-252.20854 L431.76556,-252.24637 L432.45087,-252.27599 L433.13635,-252.29732 L433.822,-252.3103 L434.50772,-252.31488" fill="none" stroke="#FF0000" stroke-linejoin="round" stroke-width="2"/>
</g>
</g>
<g transform="translate(380, -322)">
<text font-size="12" text-anchor="start" x="0" y="0">
Reconstructed Curve
</text>
<line stroke="#FF0000" stroke-width="2" x1="-10" x2="-3" y1="-4" y2="-4"/>
</g>
<g>
<g>
<line stroke="black" stroke-width="1" x1="0" x2="0" y1="0" y2="10"/>
<line stroke="black" stroke-width="1" x1="137.14285714285714" x2="137.14285714285714" y1="0" y2="10"/>
<line stroke="black" stroke-width="1" x1="274.2857142857143" x2="274.2857142857143" y1="0" y2="10"/>
<line stroke="black" stroke-width="1" x1="411.42857142857144" x2="411.42857142857144" y1="0" y2="10"/>
</g>
<line stroke="black" stroke-width="1" x1="0" x2="480" y1="0" y2="0"/>
<g>
<text font-size="12" text-anchor="middle" x="0" y="20">
0
</text>
<text font-size="12" text-anchor="middle" x="137.14285714285714" y="20">
2
</text>
<text font-size="12" text-anchor="middle" x="274.2857142857143" y="20">
4
</text>
<text font-size="12" text-anchor="middle" x="411.42857142857144" y="20">
6
</text>
</g>
<text font-size="12" text-anchor="middle" x="240" y="30">
x
</text>
</g>
<g>
<g>
<line stroke="black" stroke-width="1" x1="0" x2="-10" y1="0" y2="0"/>
<line stroke="black" stroke-width="1" x1="0" x2="-10" y1="-85" y2="-85"/>
<line stroke="black" stroke-width="1" x1="0" x2="-10" y1="-170" y2="-170"/>
<line stroke="black" stroke-width="1" x1="0" x2="-10" y1="-255" y2="-255"/>
<line stroke="black" stroke-width="1" x1="0" x2="-10" y1="-340" y2="-340"/>
</g>
<line stroke="black" stroke-width="1" x1="0" x2="0" y1="0" y2="-340"/>
<g>
<text dominant-baseline="middle" font-size="12" text-anchor="end" x="-15" y="0">
-2
</text>
<text dominant-baseline="middle" font-size="12" text-anchor="end" x="-15" y="-85">
-1
</text>
<text dominant-baseline="middle" font-size="12" text-anchor="end" x="-15" y="-170">
0
</text>
<text dominant-baseline="middle" font-size="12" text-anchor="end" x="-15" y="-255">
1
</text>
<text dominant-baseline="middle" font-size="12" text-anchor="end" x="-15" y="-340">
2
</text>
</g>
<text font-size="12" text-anchor="middle" transform="rotate(-90 -24 -170)" x="-24" y="-182">
y
</text>
</g>
</g>
</svg>